/* XPM */
static char *bc478145fa0448b59223d0a2dcc5ec88BMiYqPKn0SD82Rd1[] = {
/* columns rows colors chars-per-pixel */
"48 48 221 2 ",
"   c #020101",
".  c #060B05",
"X  c #0A0C06",
"o  c #0E0709",
"O  c #150404",
"+  c #1B0102",
"@  c #0A1205",
"#  c #0D1509",
"$  c #1B150D",
"%  c #131C0B",
"&  c #151415",
"*  c #1F1A10",
"=  c #171618",
"-  c #1C1B1D",
";  c #230102",
":  c #290002",
">  c #280A0C",
",  c #370303",
"<  c #201A0E",
"1  c #271213",
"2  c #241D12",
"3  c #17230D",
"4  c #19250F",
"5  c #1B2B0F",
"6  c #1C2C12",
"7  c #262716",
"8  c #372B19",
"9  c #253716",
"0  c #263D15",
"q  c #242425",
"w  c #282627",
"e  c #262628",
"r  c #282728",
"t  c #363637",
"y  c #410303",
"u  c #530203",
"i  c #670103",
"p  c #4E3429",
"a  c #294116",
"s  c #30451E",
"d  c #385222",
"f  c #3A4232",
"g  c #564324",
"h  c #485F2B",
"j  c #6B532D",
"k  c #6C532D",
"l  c #446526",
"z  c #456927",
"x  c #446528",
"c  c #496E2A",
"v  c #4F762E",
"b  c #50792E",
"n  c #4E7330",
"m  c #517532",
"M  c #7C6133",
"N  c #474949",
"B  c #535354",
"V  c #5C5C5B",
"C  c #627253",
"Z  c #757878",
"A  c #9B0605",
"S  c #B20505",
"D  c #8F3B3B",
"F  c #CB0403",
"G  c #D50404",
"H  c #DE0101",
"J  c #E00202",
"K  c #ED0707",
"L  c #F40203",
"P  c #FC0101",
"I  c #F70809",
"U  c #F90D0D",
"Y  c #FA1313",
"T  c #F81818",
"R  c #D32F30",
"E  c #F72A2A",
"W  c #F73636",
"Q  c #F93333",
"!  c #836737",
"~  c #8C6C39",
"^  c #906F3C",
"/  c #92713C",
"(  c #A27E42",
")  c #9A5F60",
"_  c #A16463",
"`  c #DB4A4A",
"'  c #F54747",
"]  c #F84546",
"[  c #F65454",
"{  c #F65D5D",
"}  c #DB6062",
"|  c #F66665",
" . c #F77878",
".. c #5A8232",
"X. c #689A3B",
"o. c #71AF3B",
"O. c #79C53D",
"+. c #668D41",
"@. c #6FA442",
"#. c #6FA840",
"$. c #73AD43",
"%. c #76A44A",
"&. c #79B445",
"*. c #7EBE4B",
"=. c #7BC442",
"-. c #7ECA45",
";. c #AE8847",
":. c #BC934C",
">. c #82B848",
",. c #82BD4A",
"<. c #89B958",
"1. c #939777",
"2. c #90B467",
"3. c #C2974D",
"4. c #CC9F51",
"5. c #CDA152",
"6. c #D4A553",
"7. c #D8A754",
"8. c #DAA955",
"9. c #82CB45",
"0. c #83C34C",
"q. c #8AC649",
"w. c #84CB4B",
"e. c #8BCD4D",
"r. c #8DD146",
"t. c #85D14C",
"y. c #8BD24D",
"u. c #8DDB4D",
"i. c #91D34D",
"p. c #92DB4D",
"a. c #8BC457",
"s. c #86CC52",
"d. c #8CCD52",
"f. c #95CE5A",
"g. c #8CD352",
"h. c #8EDA54",
"j. c #8CD659",
"k. c #91D654",
"l. c #92DB55",
"z. c #92D35B",
"x. c #9AD45E",
"c. c #93DB59",
"v. c #97E059",
"b. c #97CB64",
"n. c #96D163",
"m. c #9BD767",
"M. c #98C474",
"N. c #9DD175",
"B. c #A3D96C",
"V. c #A2CB74",
"C. c #A8D473",
"Z. c #A6D879",
"A. c #E7DE59",
"S. c #EDDD6B",
"D. c #EEE76C",
"F. c #F4E965",
"G. c #EEE676",
"H. c #F3EA7B",
"J. c gray55",
"K. c #9C9C9B",
"L. c #9CB580",
"P. c #B4B4B3",
"I. c #F58888",
"U. c #EE989A",
"Y. c #F79293",
"T. c #F89392",
"R. c #F59D9C",
"E. c #F8AAA9",
"W. c #FAB0AF",
"Q. c #F9B3B3",
"!. c #B3D68F",
"~. c #B3D88A",
"^. c #BAD897",
"/. c #ADE080",
"(. c #BBE699",
"). c #C6D897",
"_. c #DADE96",
"`. c #C4E59E",
"'. c #ECE887",
"]. c #F6ED85",
"[. c #F0EA91",
"{. c #F8EC9B",
"}. c #F4F19E",
"|. c #C8D7A2",
" X c #C8E6A8",
".X c #D7E9AF",
"XX c #CDE5B7",
"oX c #D2EAB8",
"OX c #D2EABC",
"+X c #E8E9A9",
"@X c #F5F2A9",
"#X c #E9EDB5",
"$X c #F3EDB7",
"%X c #E9F2BC",
"&X c #F7F4B5",
"*X c #D0C1C1",
"=X c #D6D7D7",
"-X c #FAC4C4",
";X c #F7C9C9",
":X c #E0D6D6",
">X c #FCDBDB",
",X c #D8EAC3",
"<X c #DBF3C5",
"1X c #DDEDD2",
"2X c #E3EBC8",
"3X c #F0EAC1",
"4X c #EAF6CC",
"5X c #F7F4C8",
"6X c #E0EED6",
"7X c #E9F3DA",
"8X c #F9F9D7",
"9X c #DFE2E1",
"0X c #E2E2E2",
"qX c #ECECEC",
"wX c #F9E8E7",
"eX c #FDEDEC",
"rX c #F6FDE5",
"tX c #F5F5F5",
"yX c #FCF4F3",
"uX c #F7FCF7",
"iX c #FEFEFE",
/* pixels */
"l.p.p.c.z.y.y.y.y.l.h.h.h.l.g.g.g.g.h.l.l.l.l.y.9.e.y.j.l.u.l.B./.Z.n.j.y.h.l.l.l.l.e.y.g.g.B..X",
"l.l.l.c.h.y.g.g.y.l.g.-.u.l.g.g.g.g.h.l.l.l.l.g.g.g.y.j.l.l.m..X7X2X~.f.g.h.l.l.l.k.q.e.d.b.,X8X",
"l.h.t.u.h.d.g.g.g.h.h.y.l.l.g.g.d.g.h.l.l.l.l.h.g.g.g.g.l.B.oX7X5X[..X^.z.k.l.l.l.l.e.e.y.n.6X8X",
"c.l.9.c.Z.Z.n.y.y.h.c.l.l.l.g.e.e.g.h.l.l.l.l.h.g.t.w.g.l.Z.rX5X{.S.$XoXn.k.l.l.l.l.g.g.y.n. X+X",
"l.p.x. X7X7X~.f.k.h.h.k.k.k.g.e.e.k.l.l.l.l.l.l.h.9.O.g.l.Z.4X}.D.A.#XoXz.k.l.h.h.h.h.h.g.g.<.~.",
"g.m. X2X5X@X%X Xm.h.g.g.g.g.l.e.$.$.$.#.#.#.#.$.$.o.o.$.#.%.2.|.5X&X).V.c.h.g.g.g.g.l.l.l.u.g.b.",
"t.N.6X3X].F.5X<Xm.j.y.y.g.h.v.$.% @ @ X X @ @ @ @ @ @ @ @ @ % L.OXOXV.d.l.h.g.g.g.g.l.c.c.p.l.d.",
"y.N.,X+XG.F.&XOXm.h.g.y.g.0.@.b . - B B B p u u u p B B B = X m +.<.f.c.l.h.d.g.g.g.l.l.l.l.l.g.",
"y.f.2.|.5X5X).V.c.g.g.g.h.$.% .   V tXuXuXI.L L L U.uXuXqXN     4 >.k.k.l.k.y.t.y.g.l.l.l.l.h.g.",
"l.j.q.~.XX XV.a.h.h.k.d.X.v . - V K.iXiXiXI.P P P R.iXiXuXJ.V = # ..X.w.h.u.u.h.h.h.h.h.g.e.g.h.",
"l.c.l.a.<.>.a.g.y.l.c.*.% .   B tXiXiXiXiXI.P P P R.iXiXiXiXqXt   . 6 ,.j.h.m.m.m.m.g.g.9.=.y.l.",
"c.l.l.z.d.e.d.y.g.e.X.v X + i ) tXiXiX;XY.' P P P [ Y.>XiXiXeXD i O # b X.g./.<X4X`.k.y.e.e.g.l.",
"c.l.l.l.p.g.g.y.g.0.5     y L [ tXiXiXT.P P P P P P I E.iXiXeXW H :     9 Z.oX8X5X#X~.z.g.g.h.l.",
"l.l.l.l.h.g.g.g.k.0.3 - Z _ I E  . . .] P P P P P P P [  . . .T K _ Z & 7 XX8X&XH.@X7XC.g.g.g.l.",
"h.g.j.g.k.p.l.i.i.>.3 t qX-XY P P P P P P P P P P P P P P P P P T >X9Xq 7 XX5X'.A.'.7XZ.l.l.k.g.",
"g.g.g.g.h.l.l.g...h X t qXwXR.| I P P ] T.T.T.T.T.Y.Y.Q P P U  .R.eX=Xq # C 1.+X[._.|.m.l.l.k.g.",
"m.n.j.g.g.c.l.a.6     t qXiXiXW.I L L  .iXiXiXiXiXiXiX{ L P Y -XiXiX=Xe     f ,X2X^.<.k.l.l.k.g.",
"1X Xx.r.u.l.l.s.6 - J.P.tXiXiXW.I W R.;XiXiXiXiXiXiXiX-XR.E Y -XiXiXtXP.J.o 9 <.2.a.k.l.l.l.l.g.",
"$X+X`.Z.z.l.k.0.5 r 0XiXiXiXiXW.I { iXiXiXiXiXiXiXiXiXiXyX] U -XiXiXiXiX=X= 0 ,.0.d.k.e.y.l.l.h.",
"].].8X(.h.g.g.0.4 r 0XiXiXiXiXW.I { iXiXiXiXiXiXiXiXiXiXyX] U -XiXiXiXiX=X= a h.c.c.g.=.-.g.h.l.",
"F.G.8X(.h.y.y.*.3 r 0XiXiXiXyXE.I { iXiXiXiXiXiXiXiXiXiXyX] U Q.yXiXiXiX=X= a h.l.l.g.t.t.g.h.l.",
"&X+X).Z.k.y.g.*.4 r 0XiXiX;X' E P { iXiXiXiXiXiXiXiXiXiXyX] P Q [ >XiXiX=X= a h.l.l.g.9.9.y.h.l.",
"7XoXb.g.h.g.y.,.4 e :XeXeXE.I P P [ wXyXiXiXiXiXiXiXiXyX>X] P P T -XeXeX*X= a h.l.l.g.=.-.y.g.l.",
"<.a.j.h.h.h.p.0.6 > R Q Q E P P P Y Q I.iXiXiXiXiXiXiX .Q Y P P P E W Q R O 0 d.h.h.h.h.h.h.h.h.",
"0.9.g.g.k.l.l.s.6 : H P P L J H J H H } 0X0X0X0X0X0X:X` H H J J J L P P F + 0 w.g.g.l.l.l.h.t.9.",
"g.y.g.g.k.l.l.s.6 : J P P F , : : : : 1 r e r r r r w > : : : : y G P P G + 0 w.g.g.l.l.l.l.9.-.",
"g.g.g.g.h.l.l.s.6 ; S G G A o X * 2 2 #   o < < < o   $ < < * . O S G G S O 0 w.g.g.l.l.l.c.h.t.",
"g.g.g.g.h.l.i.0.6   + ; ; +   8 :.:.3.k   g 3.:.:.p   ! 3.:.;.7   + ; ; +   0 w.g.g.l.l.l.l.h.y.",
"l.l.l.l.h.g.e.,.d 9 .     X 2 j 6.8.8.M   j 8.8.7.g   / 8.8.5.g 2 .     . 9 x g.l.l.h.h.h.g.h.u.",
"l.l.l.l.h.g.y.d.s.&.3     8 :.4.8.8.8.M   j 8.7.7.g   ^ 8.8.6.4.;.2     6 0.g.l.l.l.g.g.g.g.j.p.",
"l.l.l.l.h.g.g.g.g.w.l 0   8 5.8.8.7.8./ 8 ! 8.8.7.M 8 ( 8.6.6.8.3.2 . 0 x y.l.l.l.l.g.g.y.g.j.l.",
"l.l.l.l.k.g.g.g.g.h.l.&.# 8 5.8.8.8.7.6.4.6.8.8.8.6.4.6.8.8.8.8.3.2 3 &.e.k.l.l.l.l.g.g.g.g.g.c.",
"p.h.h.l.k.g.g.g.g.l.l.&.# 2 ^ ;.7.8.8.8.8.8.8.8.8.8.8.8.8.8.7.;.~ $ 4 0.h.k.l.h.h.h.h.g.g.g.g.k.",
"d.g.g.g.k.l.l.l.l.h.g.$.#   . p 7.8.8.8.8.8.8.8.8.8.8.8.8.8.5.8 .   4 0.l.h.g.g.g.g.l.l.l.h.9.9.",
"m.y.g.w.t.l.l.l.l.h.g.*.x s . 7 ! ~ ~ ~ ~ ~ ~ ~ ~ ~ ~ ~ ~ ~ ! * . d n d.l.h.g.g.g.g.l.l.l.h.9.9.",
"!.y.g.-.9.l.l.l.l.h.g.g.g.@.X                                   % *.l.l.l.h.g.d.g.g.l.l.l.l.h.y.",
"^.e.g.t.t.c.l.l.l.h.g.g.g.*.v c c c c z z z z c c c c c z z z z b d.l.l.l.h.e.q.e.g.l.l.l.l.l.g.",
"Z.k.j.h.h.k.h.h.h.h.h.h.h.h.k.k.j.h.l.B.(.(.B.k.l.l.l.h.h.h.h.l.l.h.h.h.h.h.g.e.g.k.h.h.k.k.k.k.",
"k.c.c.l.k.y.g.g.g.l.l.l.l.l.y.g.g.g.x. XuXrX Xm.j.g.g.g.l.l.l.l.l.g.g.g.g.h.l.l.l.l.g.g.g.g.h.l.",
"c.c.l.l.k.y.g.g.g.l.l.l.l.l.y.g.y.f.XX4X&X}.&XOXn.g.g.g.l.l.l.l.l.g.g.g.g.h.l.l.l.l.g.g.g.g.h.l.",
"l.l.l.l.h.y.g.g.g.l.l.l.l.y.9.s.t.b.6X8X].F.{.7Xn.g.g.g.l.l.k.l.k.g.g.g.g.k.l.l.l.l.g.g.g.g.g.l.",
"l.l.l.l.k.y.g.g.g.k.l.l.l.t.O.s.y.n.OX%X'.D.}.,Xz.y.g.g.l.l.y.k.k.g.g.g.g.k.l.l.l.l.g.g.g.g.h.h.",
"-.=.y.g.h.l.l.l.k.h.g.g.g.h.y.h.l.k.b.^.4X5X|.M.k.l.h.h.h.g.g.g.h.l.l.l.k.e.e.g.h.h.l.l.l.l.h.9.",
"9.9.y.g.h.l.l.l.l.g.s.-.t.g.l.l.c.l.e.M.^.^.V.e.l.l.l.h.g.g.g.y.h.l.l.l.l.e.e.g.g.g.l.l.c.l.l.w.",
"g.g.g.g.h.l.c.c.h.g.w.O.9.g.c.l.l.l.h.0.&.&.0.c.l.l.l.l.g.g.g.y.h.l.l.l.l.h.g.g.g.g.l.c.l.l.B.N.",
"g.g.g.g.h.l.l.c.l.j.e.d.y.y.l.l.l.l.h.d.d.d.d.l.l.c.l.l.g.y.y.y.h.l.l.l.l.h.g.g.g.g.l.l.l.B.,X1X",
"g.g.g.g.h.l.h.l.x.~.`. XB.k.l.h.l.l.h.g.g.j.g.h.l.c.c.l.j.j.j.j.j.l.l.l.l.h.g.g.g.h.l.l.Z.XX4X$X",
"l.l.l.l.h.g.y.y.b.,XrXrX^.m.d.y.g.g.h.l.l.l.l.y.y.y.y.y.l.l.c.c.k.d.g.g.g.h.l.l.l.l.g.d.^.7X$X{."
};
