/* XPM */
static char * collectible_xpm[] = {
"48 48 168 2",
"  	c #93DC55",
". 	c #A3D96C",
"+ 	c #ADE080",
"@ 	c #A6D879",
"# 	c #D7E9AF",
"$ 	c #E9F3DA",
"% 	c #E3EBC8",
"& 	c #B3D88A",
"* 	c #D2EAB8",
"= 	c #F7F4C8",
"- 	c #F0EA91",
"; 	c #BAD897",
"> 	c #F6FDE5",
", 	c #F8EC9B",
"' 	c #EDDD6B",
") 	c #F3EDB7",
"! 	c #C8E6A8",
"~ 	c #EAF6CC",
"{ 	c #F4F19E",
"] 	c #EEE76C",
"^ 	c #E7DE59",
"/ 	c #E9EDB5",
"( 	c #F5F2A9",
"_ 	c #E9F2BC",
": 	c #73AD43",
"< 	c #6FA840",
"[ 	c #71AF3B",
"} 	c #76A44A",
"| 	c #90B467",
"1 	c #C8D7A2",
"2 	c #F7F4B5",
"3 	c #C6D897",
"4 	c #A2CB74",
"5 	c #9DD175",
"6 	c #E0EED6",
"7 	c #F0EAC1",
"8 	c #F6ED85",
"9 	c #F4E965",
"0 	c #DBF3C5",
"a 	c #131C0B",
"b 	c #0A1205",
"c 	c #0A0C06",
"d 	c #9CB580",
"e 	c #D2EABC",
"f 	c #D8EAC3",
"g 	c #E8E9A9",
"h 	c #EEE676",
"i 	c #6FA442",
"j 	c #50792E",
"k 	c #060B05",
"l 	c #1C1B1D",
"m 	c #FFFFFF",
"n 	c #4E3429",
"o 	c #FC0101",
"p 	c #171618",
"q 	c #517532",
"r 	c #668D41",
"s 	c #89B958",
"t 	c #020101",
"u 	c #F58888",
"v 	c #EE989A",
"w 	c #F7FCF7",
"x 	c #ECECEC",
"y 	c #19250F",
"z 	c #82B848",
"A 	c #CDE5B7",
"B 	c #689A3B",
"C 	c #4F762E",
"D 	c #F59D9C",
"E 	c #FEFEFE",
"F 	c #0D1509",
"G 	c #5A8232",
"H 	c #363637",
"I 	c #1C2C12",
"J 	c #1B0102",
"K 	c #9A5F60",
"L 	c #F7C9C9",
"M 	c #F79293",
"N 	c #F54747",
"O 	c #F65454",
"P 	c #FCDBDB",
"Q 	c #FDEDEC",
"R 	c #8F3B3B",
"S 	c #9B0303",
"T 	c #C4E59E",
"U 	c #1B2B0F",
"V 	c #F89392",
"W 	c #F8AAA9",
"X 	c #F73636",
"Y 	c #DE0101",
"Z 	c #000000",
"` 	c #F9F9D7",
" .	c #17230D",
"..	c #757878",
"+.	c #A16463",
"@.	c #F72A2A",
"#.	c #F77878",
"$.	c #F84546",
"%.	c #F81818",
"&.	c #ED0707",
"*.	c #F3EA7B",
"=.	c #A8D473",
"-.	c #FAC4C4",
";.	c #FB0909",
">.	c #ECE887",
",.	c #485F2B",
"'.	c #F66665",
").	c #F93333",
"!.	c #DADE96",
"~.	c #4F554C",
"{.	c #FAB0AF",
"].	c #F65D5D",
"^.	c #3A4232",
"/.	c #B4B4B3",
"(.	c #FCF4F3",
"_.	c #F9B3B3",
":.	c #E2D9D9",
"<.	c #F9E8E7",
"[.	c #D4C6C6",
"}.	c #D32F30",
"|.	c #9D9C9C",
"1.	c #DB6062",
"2.	c #DB4A4A",
"3.	c #E00202",
"4.	c #F40203",
"5.	c #CB0403",
"6.	c #807D7D",
"7.	c #D50404",
"8.	c #0E0709",
"9.	c #1F1A10",
"0.	c #241D12",
"a.	c #201A0E",
"b.	c #7D120B",
"c.	c #150404",
"d.	c #B20505",
"e.	c #372B19",
"f.	c #BC934C",
"g.	c #C2974D",
"h.	c #6C532D",
"i.	c #564324",
"j.	c #836737",
"k.	c #AE8847",
"l.	c #262716",
"m.	c #385222",
"n.	c #253716",
"o.	c #6B532D",
"p.	c #D4A553",
"q.	c #DAA955",
"r.	c #7C6133",
"s.	c #D8A754",
"t.	c #92713C",
"u.	c #CDA152",
"v.	c #446528",
"w.	c #79B445",
"x.	c #CC9F51",
"y.	c #906F3C",
"z.	c #446526",
"A.	c #263D15",
"B.	c #A27E42",
"C.	c #9D793C",
"D.	c #8C6C39",
"E.	c #1B150D",
"F.	c #30451E",
"G.	c #4E7330",
"H.	c #496E2A",
"I.	c #456927",
"J.	c #BBE699",
"K.	c #98C474",
"                                                              . + @                             ",
"                                                              # $ % &                           ",
"                                                          . * $ = - # ;                         ",
"        @ @                                               @ > = , ' ) *                         ",
"      ! $ $ &                                             @ ~ { ] ^ / *                         ",
"    ! % = ( _ !                 : : : < < < < : : [ [ : < } | 1 = 2 3 4                         ",
"  5 6 7 8 9 = 0               : a b b c c b b b b b b b b b a d e e 4                           ",
"  5 f g h 9 2 e             i j k l m m m n o o o n m m m p c q r s                             ",
"    | 1 = = 3 4           : a k t m m m m u o o o v w w x m t t y z                             ",
"      & A ! 4           B C k l m m m m m u o o o D E E w m m p F G B                           ",
"        s z             a k t m m m m m m u o o o D E E E E x H t k I                           ",
"                    B C c J o K m m m L M N o o o O M P E E Q R o S F j B   + 0 ~ T             ",
"                    U t t o o O m m m V o o o o o o o W E E Q X Y o t t Z @ * ` = / &           ",
"                     .l ..+.o @.#.#.#.$.o o o o o o o O #.#.#.%.&.+.m m Z A ` 2 *.( $ =.        ",
"                  z  .m m -.;.o o o o o o o o o o o o o o o o o %.P m m Z A = >.^ >.$ @         ",
"                G ,.m m m m D '.o o o $.V V V V V M M ).o o o #.D m m m m Z Z g - !.1           ",
"                ~.m m m m m m {.o o o #.E E E E E E E ].o o ;.-.m m m m m m ^.f % ; s           ",
"                ~.m m m m m m {.o X D L E E E E E E E -.D @.;.-.m m m /.m m Z s |               ",
"                U m m m m m m {.o ].E E E E E E E E E E (.$.o -.m m m m m m Z                   ",
"                y m m m m m m {.o ].E E E E E E E E E E (.$.o -.m m m m m m Z                   ",
"                 .m m m m m m W o ].E E E E E E E E E E (.$.o _.m m m m m m Z                   ",
"      @         y m m m m L N @.o ].E E E E E E E E E E (.$.o ).O P m m m m Z                   ",
"                y m :.m m W o o o O <.(.E E E E E E E (.P $.o o %.-.m m [.m Z                   ",
"                I o }.).).@.o o o ;.).u E E E E E E E #.).;.o o o @.X ).}.|.Z                   ",
"                I o o o o o o o o o o 1.m m m m m m m 2.Y Y 3.3.3.4.o o 5.o Z                   ",
"                I o o o o o o o o o o 6.m m m m m m m o o o o o o 7.o o 7.o Z                   ",
"                I o o o o o 8.c 9.0.0.F t 8.a.a.a.8.t b.a.a.9.k c.d.7.7.d.o Z                   ",
"                I t o o o o t e.f.f.g.h.t i.g.f.f.n t j.g.f.k.l.t o o o o t Z                   ",
"                m.n.k t t c 0.o.p.q.q.r.t o.q.q.s.i.t t.q.q.u.q.0.o o o o n.v.                  ",
"                  w. .t t q.f.x.q.q.q.r.t o.q.s.s.i.t y.q.q.p.x.k.0.o o I                       ",
"                    z.A.t q.u.q.q.s.q.t.e.j.q.q.s.r.e.B.q.p.p.q.g.0.o A.v.                      ",
"                      w.F q.u.q.q.q.s.p.x.p.q.q.q.p.x.p.q.q.q.q.g.0. .w.                        ",
"                      w.F C.y.q.s.q.q.q.q.q.q.q.q.q.q.q.q.q.s.q.D.E.y                           ",
"                      : F t k q.s.q.q.q.q.q.q.q.q.q.q.q.q.q.u.q.k t y                           ",
"                        v.F.k l.q.q.q.q.q.q.q.q.q.q.q.q.q.q.q.9.k m.G.                          ",
"                          i c t t t t t t t t t t t t t t t t t a                               ",
"                            C H.H.H.H.I.I.I.I.H.H.H.H.H.I.I.I.I.j                               ",
"                                      . J.J..                                                   ",
"                                      ! w > !                                                   ",
"                                    A ~ 2 { 2 e                                                 ",
"                                    6 ` 8 9 , $                                                 ",
"                                    e _ >.] { f                                                 ",
"                                      ; ~ = 1 K.                                                ",
"                                      K.; ; 4                                                   ",
"                                        w.w.                                                    ",
"                                                                                                ",
"                        .                                                               @       ",
"                                                                                                "};
