/* XPM */
static char * enemy_xpm[] = {
"48 48 644 2",
"  	c #93DC55",
". 	c #A6DA7A",
"+ 	c #D3EAB5",
"@ 	c #F4FEEB",
"# 	c #F4FEDD",
"$ 	c #B3E384",
"% 	c #D6EDBE",
"& 	c #F2F4D6",
"* 	c #FDF6C6",
"= 	c #FAF19D",
"- 	c #E3EFBA",
"; 	c #C9ECA4",
"> 	c #ACE27B",
", 	c #B2DD80",
"' 	c #AADC75",
") 	c #FDEE9B",
"! 	c #FAEB6F",
"~ 	c #FBF6CC",
"{ 	c #E2F7C7",
"] 	c #CAECA9",
"^ 	c #F5FEE6",
"/ 	c #B8E089",
"( 	c #F3FED7",
"_ 	c #F4F499",
": 	c #F5EC6E",
"< 	c #EDE358",
"[ 	c #F6F8BD",
"} 	c #E2F8CE",
"| 	c #9BD66C",
"1 	c #D5F1BB",
"2 	c #ECF5CC",
"3 	c #F6F2AB",
"4 	c #E2F2BC",
"5 	c #C6EC9E",
"6 	c #A5CA7D",
"7 	c #DEE9B5",
"8 	c #FAF6BD",
"9 	c #C0D892",
"0 	c #A5D47C",
"a 	c #9BD376",
"b 	c #FDF294",
"c 	c #F9EC65",
"d 	c #F8FBCC",
"e 	c #DAF3C1",
"f 	c #8AC553",
"g 	c #BEDB9A",
"h 	c #D6EDC3",
"i 	c #A1CE6F",
"j 	c #9DD870",
"k 	c #EDFDDB",
"l 	c #F4ED7B",
"m 	c #F5F7BC",
"n 	c #DCF4BA",
"o 	c #85BD4D",
"p 	c #A2CA75",
"q 	c #D4E4A7",
"r 	c #FBFAD5",
"s 	c #C3D595",
"t 	c #9ECA73",
"u 	c #B6D88B",
"v 	c #D5E7BB",
"w 	c #8FC55D",
"x 	c #8CBB5A",
"y 	c #EAFAD6",
"z 	c #CDF0AA",
"A 	c #AEE388",
"B 	c #FBFCDD",
"C 	c #E5F2B7",
"D 	c #B9E494",
"E 	c #DEF5C9",
"F 	c #FCF5B5",
"G 	c #F8F280",
"H 	c #F5F4A4",
"I 	c #A5DC73",
"J 	c #ABDC7C",
"K 	c #E5FED5",
"L 	c #EBF6E4",
"M 	c #F6EE89",
"N 	c #F1E65A",
"O 	c #F4EC84",
"P 	c #F9FEEB",
"Q 	c #EAF0AF",
"R 	c #C3E893",
"S 	c #BBDB92",
"T 	c #D8E4AF",
"U 	c #F9F3AD",
"V 	c #F7EE97",
"W 	c #E7EB9B",
"X 	c #C8E0AA",
"Y 	c #FDF9A8",
"Z 	c #FDEC7D",
"` 	c #ADD085",
" .	c #F5F089",
"..	c #F5FEF2",
"+.	c #7FBD4B",
"@.	c #7EBB49",
"#.	c #7DBC47",
"$.	c #242A0D",
"%.	c #5E3622",
"&.	c #7A482F",
"*.	c #593322",
"=.	c #382015",
"-.	c #2F4B18",
";.	c #AEDC83",
">.	c #D2D9A3",
",.	c #E5EAA2",
"'.	c #BBD69A",
").	c #72AA43",
"!.	c #2F3A21",
"~.	c #26231B",
"{.	c #49602C",
"].	c #3F5A1F",
"^.	c #935837",
"/.	c #A1613A",
"(.	c #AC643D",
"_.	c #A9663F",
":.	c #A25F3F",
"<.	c #935A3B",
"[.	c #55301D",
"}.	c #304B18",
"|.	c #3C5A20",
"1.	c #37571D",
"2.	c #4B673E",
"3.	c #628348",
"4.	c #E6F6CC",
"5.	c #E5F5D8",
"6.	c #C4E5A4",
"7.	c #87BF53",
"8.	c #6B9E43",
"9.	c #5D8434",
"0.	c #41271A",
"a.	c #643C2F",
"b.	c #925535",
"c.	c #A5613E",
"d.	c #A96340",
"e.	c #AC663D",
"f.	c #AA643F",
"g.	c #A8633D",
"h.	c #9A5A3C",
"i.	c #4C2B1C",
"j.	c #4D3629",
"k.	c #322420",
"l.	c #4A4038",
"m.	c #2B2A2B",
"n.	c #60893B",
"o.	c #85C24B",
"p.	c #93C462",
"q.	c #94BE6E",
"r.	c #51782B",
"s.	c #2D180F",
"t.	c #5D3629",
"u.	c #834C2E",
"v.	c #A9663E",
"w.	c #A66241",
"x.	c #A76241",
"y.	c #A86240",
"z.	c #A5623F",
"A.	c #8F5A3D",
"B.	c #301810",
"C.	c #3C261D",
"D.	c #5F473C",
"E.	c #6DA03F",
"F.	c #6C974B",
"G.	c #567E31",
"H.	c #542F1A",
"I.	c #2F190F",
"J.	c #2B0F04",
"K.	c #8C593E",
"L.	c #AB653E",
"M.	c #76452C",
"N.	c #AA6340",
"O.	c #AE653D",
"P.	c #9F6443",
"Q.	c #5C3B2B",
"R.	c #432C21",
"S.	c #633F29",
"T.	c #6A442E",
"U.	c #5C6531",
"V.	c #563C1C",
"W.	c #6D3A1E",
"X.	c #9F8E88",
"Y.	c #CABEBB",
"Z.	c #584843",
"`.	c #573422",
" +	c #A26140",
".+	c #A36241",
"++	c #865338",
"@+	c #5E3C29",
"#+	c #392C27",
"$+	c #4F3728",
"%+	c #7C4E36",
"&+	c #7D4C2E",
"*+	c #603D29",
"=+	c #7EBD48",
"-+	c #689E3B",
";+	c #955431",
">+	c #A38A7D",
",+	c #F0EDE9",
"'+	c #E9E8EA",
")+	c #CDC8C5",
"!+	c #4D362C",
"~+	c #9A5C3A",
"{+	c #71412A",
"]+	c #403430",
"^+	c #6E6E6D",
"/+	c #CDCCCB",
"(+	c #8F8582",
"_+	c #553321",
":+	c #824D33",
"<+	c #76472D",
"[+	c #716F3F",
"}+	c #76AA42",
"|+	c #734227",
"1+	c #533B32",
"2+	c #DDD5D3",
"3+	c #F3F1F3",
"4+	c #D5D2D1",
"5+	c #AEAAA7",
"6+	c #2E2725",
"7+	c #7F462B",
"8+	c #776156",
"9+	c #C7C2C0",
"0+	c #D9DADB",
"a+	c #E3E9E8",
"b+	c #B3B5B7",
"c+	c #7F7266",
"d+	c #7B4831",
"e+	c #7D492E",
"f+	c #6C422D",
"g+	c #84BE4D",
"h+	c #A4D778",
"i+	c #6C6136",
"j+	c #884D2D",
"k+	c #5F5650",
"l+	c #F0EAE8",
"m+	c #EBEEEE",
"n+	c #908D8C",
"o+	c #645C59",
"p+	c #403129",
"q+	c #834A2F",
"r+	c #6A6562",
"s+	c #8D8986",
"t+	c #978E87",
"u+	c #E2E2E3",
"v+	c #CDD1D3",
"w+	c #AEA19C",
"x+	c #6D402D",
"y+	c #7E4A35",
"z+	c #754732",
"A+	c #533F2B",
"B+	c #B5E48B",
"C+	c #777D73",
"D+	c #643C27",
"E+	c #7D492F",
"F+	c #625B58",
"G+	c #EAE9E7",
"H+	c #DDE5E5",
"I+	c #858382",
"J+	c #594D48",
"K+	c #2A1B14",
"L+	c #824830",
"M+	c #5F544F",
"N+	c #4F4643",
"O+	c #686665",
"P+	c #DFE3E3",
"Q+	c #CBCECF",
"R+	c #AEA29D",
"S+	c #7C4C31",
"T+	c #814D36",
"U+	c #804C34",
"V+	c #77513D",
"W+	c #619D32",
"X+	c #BDE5A3",
"Y+	c #6E7861",
"Z+	c #76442D",
"`+	c #79492F",
" @	c #864E32",
".@	c #5B524D",
"+@	c #D4D3D1",
"@@	c #CDD3D6",
"#@	c #C0C0BF",
"$@	c #A59285",
"%@	c #332118",
"&@	c #854D30",
"*@	c #714A38",
"=@	c #83817E",
"-@	c #B9BAB9",
";@	c #D5DADE",
">@	c #C7CBCD",
",@	c #A99B95",
"'@	c #7C4930",
")@	c #824D35",
"!@	c #804C33",
"~@	c #784932",
"{@	c #7A7D3F",
"]@	c #CEE3BF",
"^@	c #5C3824",
"/@	c #78482E",
"(@	c #864E33",
"_@	c #62371F",
":@	c #57443A",
"<@	c #BDB8B4",
"[@	c #C5C8C9",
"}@	c #C3C0BB",
"|@	c #7D6755",
"1@	c #4F2918",
"2@	c #8F5334",
"3@	c #673A22",
"4@	c #CECAC8",
"5@	c #DDDBDA",
"6@	c #CCD3D6",
"7@	c #C2C2BF",
"8@	c #867565",
"9@	c #894E32",
"0@	c #844E37",
"a@	c #7C4B2F",
"b@	c #824A2E",
"c@	c #7C4736",
"d@	c #684A36",
"e@	c #7A482E",
"f@	c #8C5030",
"g@	c #472B1E",
"h@	c #7E5B4A",
"i@	c #54311F",
"j@	c #6A5C53",
"k@	c #958476",
"l@	c #7E6653",
"m@	c #230A00",
"n@	c #2D170C",
"o@	c #7E482D",
"p@	c #85513B",
"q@	c #634333",
"r@	c #9EA09F",
"s@	c #909597",
"t@	c #765F54",
"u@	c #59301F",
"v@	c #844C33",
"w@	c #864E34",
"x@	c #814D34",
"y@	c #794B33",
"z@	c #764831",
"A@	c #2A1B0D",
"B@	c #82C34A",
"C@	c #77A741",
"D@	c #563320",
"E@	c #895034",
"F@	c #9D5A36",
"G@	c #61534D",
"H@	c #C8BDB5",
"I@	c #3E2B22",
"J@	c #543421",
"K@	c #51311E",
"L@	c #55331F",
"M@	c #6E3F26",
"N@	c #55311D",
"O@	c #8B5134",
"P@	c #814F2F",
"Q@	c #7E4D35",
"R@	c #855240",
"S@	c #8B5238",
"T@	c #79472D",
"U@	c #55483E",
"V@	c #71462D",
"W@	c #794732",
"X@	c #754932",
"Y@	c #73442D",
"Z@	c #714630",
"`@	c #6CA23E",
" #	c #8EAA48",
".#	c #3C2012",
"+#	c #723D22",
"@#	c #D0C3BE",
"##	c #D3D3D2",
"$#	c #312A27",
"%#	c #5F3D27",
"&#	c #6C412B",
"*#	c #734930",
"=#	c #7B4A31",
"-#	c #7A4B32",
";#	c #694030",
">#	c #623C2B",
",#	c #5E3B2B",
"'#	c #5F3E2E",
")#	c #664130",
"!#	c #796E68",
"~#	c #D1CAC5",
"{#	c #4C3F3A",
"]#	c #4F2E1D",
"^#	c #734530",
"/#	c #73442F",
"(#	c #73452F",
"_#	c #686833",
":#	c #7CB847",
"<#	c #412C17",
"[#	c #603924",
"}#	c #000000",
"|#	c #B3A69B",
"1#	c #947969",
"2#	c #9C6645",
"3#	c #975A3E",
"4#	c #8D513B",
"5#	c #7A462D",
"6#	c #905133",
"7#	c #7C472D",
"8#	c #643926",
"9#	c #95593E",
"0#	c #825039",
"a#	c #6F4731",
"b#	c #6C4330",
"c#	c #603C2A",
"d#	c #8D8F8D",
"e#	c #DBDEDF",
"f#	c #776F69",
"g#	c #2B170E",
"h#	c #764732",
"i#	c #724531",
"j#	c #73442E",
"k#	c #5C3523",
"l#	c #39461B",
"m#	c #8A4F33",
"n#	c #905437",
"o#	c #A2613D",
"p#	c #A5623E",
"q#	c #A1603D",
"r#	c #9F5F3C",
"s#	c #A4623E",
"t#	c #895336",
"u#	c #8F5336",
"v#	c #8F5436",
"w#	c #8D5336",
"x#	c #8C5337",
"y#	c #5B3724",
"z#	c #6E5E51",
"A#	c #C5AD9F",
"B#	c #85786F",
"C#	c #472C1A",
"D#	c #7C4E34",
"E#	c #71442D",
"F#	c #6E452E",
"G#	c #829F45",
"H#	c #57331F",
"I#	c #643923",
"J#	c #693C28",
"K#	c #6B3F28",
"L#	c #6D3F2B",
"M#	c #6A3E29",
"N#	c #865136",
"O#	c #895338",
"P#	c #8D5438",
"Q#	c #91563A",
"R#	c #975839",
"S#	c #9C5C3C",
"T#	c #A45F3A",
"U#	c #98593A",
"V#	c #9A5B3B",
"W#	c #975A3A",
"X#	c #512B15",
"Y#	c #43210E",
"Z#	c #7A4B33",
"`#	c #70482F",
" $	c #6A3E28",
".$	c #573323",
"+$	c #78A544",
"@$	c #5F9035",
"#$	c #334C1B",
"$$	c #1C110C",
"%$	c #4A2F24",
"&$	c #492F24",
"*$	c #2D1B14",
"=$	c #40281E",
"-$	c #25150D",
";$	c #26160D",
">$	c #170A05",
",$	c #180A05",
"'$	c #28150C",
")$	c #72452F",
"!$	c #7C4B33",
"~$	c #835036",
"{$	c #895236",
"]$	c #8F5235",
"^$	c #885033",
"/$	c #7B4A32",
"($	c #6F4430",
"_$	c #5C412C",
":$	c #4B3023",
"<$	c #3D5E20",
"[$	c #7CBB47",
"}$	c #598832",
"|$	c #161110",
"1$	c #2E1B12",
"2$	c #2F1C13",
"3$	c #342117",
"4$	c #3D251A",
"5$	c #593828",
"6$	c #60402E",
"7$	c #4E3124",
"8$	c #392117",
"9$	c #332017",
"0$	c #4D372F",
"a$	c #506E2D",
"b$	c #7CBA47",
"c$	c #7DBC4C",
"d$	c #81C14A",
"e$	c #90CB51",
"f$	c #382D20",
"g$	c #362A1D",
"h$	c #34291C",
"i$	c #32231A",
"j$	c #2C1E17",
"k$	c #2D221A",
"l$	c #2F241D",
"m$	c #231A14",
"n$	c #0A0707",
"o$	c #3A2E28",
"p$	c #312B28",
"q$	c #4E6437",
"r$	c #588234",
"s$	c #61913A",
"t$	c #5A321E",
"u$	c #975737",
"v$	c #925536",
"w$	c #533A20",
"x$	c #7A5A36",
"y$	c #714C31",
"z$	c #281E15",
"A$	c #4F402F",
"B$	c #5E4A3A",
"C$	c #624B39",
"D$	c #614B3A",
"E$	c #63503C",
"F$	c #251D17",
"G$	c #827363",
"H$	c #79B147",
"I$	c #734F3D",
"J$	c #895438",
"K$	c #91573C",
"L$	c #93563C",
"M$	c #93573A",
"N$	c #915A3C",
"O$	c #86583A",
"P$	c #6B513C",
"Q$	c #71604D",
"R$	c #5E4F3E",
"S$	c #433425",
"T$	c #4C3D2C",
"U$	c #150E08",
"V$	c #5B4C3C",
"W$	c #937F69",
"X$	c #8DC359",
"Y$	c #2A1E14",
"Z$	c #2B1C12",
"`$	c #1E0F09",
" %	c #684130",
".%	c #825035",
"+%	c #845135",
"@%	c #825037",
"#%	c #66412F",
"$%	c #715F49",
"%%	c #967F69",
"&%	c #907762",
"*%	c #261E16",
"=%	c #261D15",
"-%	c #6C5A46",
";%	c #856E5C",
">%	c #75AF43",
",%	c #504032",
"'%	c #6E553D",
")%	c #5E4630",
"!%	c #25140C",
"~%	c #492C1D",
"{%	c #794932",
"]%	c #7C4B34",
"^%	c #43281C",
"/%	c #190A06",
"(%	c #56463B",
"_%	c #7C6555",
":%	c #574637",
"<%	c #32261E",
"[%	c #3D3226",
"}%	c #1D130D",
"|%	c #6DA43D",
"1%	c #37471F",
"2%	c #49372A",
"3%	c #604732",
"4%	c #674B37",
"5%	c #120A06",
"6%	c #4D3022",
"7%	c #5D3827",
"8%	c #20120B",
"9%	c #6B6C5D",
"0%	c #211710",
"a%	c #1E140F",
"b%	c #1A1310",
"c%	c #060201",
"d%	c #4B3120",
"e%	c #593B28",
"f%	c #5C3621",
"g%	c #613A28",
"h%	c #4C432D",
"i%	c #75B042",
"j%	c #070B03",
"k%	c #241810",
"l%	c #060302",
"m%	c #150A06",
"n%	c #030202",
"o%	c #262C1C",
"p%	c #B7D68F",
"q%	c #93BA6D",
"r%	c #362721",
"s%	c #3A2A24",
"t%	c #1D110B",
"u%	c #190C06",
"v%	c #8B5135",
"w%	c #9F5F3D",
"x%	c #A56241",
"y%	c #4F3726",
"z%	c #90BA5A",
"A%	c #75AD44",
"B%	c #4B7329",
"C%	c #0D0604",
"D%	c #2B211D",
"E%	c #5B8732",
"F%	c #4B5E31",
"G%	c #3C281F",
"H%	c #61402D",
"I%	c #4C2A19",
"J%	c #9A5B3F",
"K%	c #A05E42",
"L%	c #734129",
"M%	c #251007",
"N%	c #6BA23C",
"O%	c #405A25",
"P%	c #5F9135",
"Q%	c #49542E",
"R%	c #1E120C",
"S%	c #321C11",
"T%	c #1F0E08",
"U%	c #3F2512",
"V%	c #684831",
"W%	c #77AD44",
"X%	c #7BB84A",
"Y%	c #2B1810",
"Z%	c #392011",
"`%	c #776A51",
"                                                                . .                             ",
"                                                              + @ # $                           ",
"                                                            % & * = - ;                         ",
"        > ,                                               ' @ * ) ! ~ {                         ",
"      ] ^ ^ /                                             ' ( _ : < [ }                         ",
"  | 1 2 ~ 3 4 5                                             6 7 ~ 8 9 0                         ",
"  a @ ~ b c d e |                                           f g h % i                           ",
"  j k 3 l < m n                                               f o o                             ",
"    p q r ~ s t                                                                                 ",
"      u v + p                                                                                   ",
"      w x o                                                                                     ",
"                                                                            $ } y z             ",
"                                                                          A + B ~ C D           ",
"                                                                          E B F G H @ I         ",
"                    J K L z                                               E r M N O P I         ",
"                  , + B ~ Q R                                             S T U V W X           ",
"                  1 B Y Z b @ >                                           f ` # B + x           ",
"                  h r  .N O ..>   +.@.    #.$.%.&.*.=.-.                      x x w             ",
"                  ;.>.F 3 ,.'.  ).!.~.{.].^./.(._.:.<.[.}.|.1.2.3.                              ",
"                    t 4.5.6.7.  8.  9.0.a.b.c.d.e.f.g.h.i.j.k.l.m.n.                            ",
"                    o.p.q.p.        r.s.t.u.v.w.x.y.z.A.B.C.D.E.  F.                            ",
"                                  G.H.I.J.K.L.M.N.O.P.Q.R.S.T.U.                                ",
"                                  V.W.X.Y.Z.`. +.+++@+#+$+%+&+*+=+                              ",
"                                -+;+>+,+'+)+!+~+{+]+^+/+(+_+:+<+[+                              ",
"                              }+|+1+2+3+4+5+6+7+8+9+0+a+b+c+d+e+f+g+                            ",
"                            h+i+j+k+l+m+n+o+p+q+r+s+t+u+v+w+x+y+z+A+                            ",
"                          B+C+D+E+F+G+H+I+J+K+L+M+N+O+P+Q+R+S+T+U+V+W+                          ",
"                        X+Y+Z+`+ @.@+@@@#@$@%@&@*@=@-@;@>@,@'@)@!@~@{@                          ",
"                        ]@^@/@(@_@:@<@[@}@|@1@2@3@4@5@6@7@8@9@0@a@b@c@                          ",
"                        d@e@f@g@h@i@j@k@l@m@n@o@p@q@r@s@t@u@v@w@x@y@z@A@B@                      ",
"                      C@D@E@F@G@H@I@J@K@L@M@N@O@P@!@Q@R@S@T@U@V@W@X@Y@Z@`@                      ",
"                       #.#E@+#@###$#%#&#*#=#-#z+;#>#,#'#)#!#~#{#]#^#/#(#_#                      ",
"                      :#<#[#}#|#1#2#3#4#5#6#7#8#9#0#a#b#c#d#e#f#g#h#i#j#k#                      ",
"                        l#`+m#n#o#p#q#r#s#p#q#t#u#v#w#x#y#z#A#B#C#D#E#F#G#                      ",
"I                         }#H#I#J#K#L#M#N#O#P#Q#R#S#T#U#V#W#X#Y#Z#`# $.$+$                      ",
"                          @$#$$$%$&$*$=$-$;$>$,$'$)$!$~${$]$^$/$($_$:$<$                        ",
"                              [$}$}#|$}#}#}#}#}#1$2$3$4$5$6$7$8$9$0$a$                          ",
"                            b$[$c$d$e$f$g$h$i$j$k$l$m$n$o$}#p$q$r$                              ",
"                          s$t$u$v$w$x$y$z$A$B$C$D$E$F$G$H$                                      ",
"                          I$J$K$L$M$N$O$P$Q$R$S$T$U$V$W$X$                                      ",
"                          Y$Z$`$ %.%+%@%#%$%%%&%*%=%-%;%>%                                      ",
"                          ,%'%)%!%~%{%]%^%/%(%_%:%<%[%[%}%|%                                    ",
"                          1%2%3%4%5%6%7%8%9%0%a%b%c%d%e%f%g%h%                                  ",
"                            i%j%k%l%m%n%o%p%q%r%s%t%u%v%w%x%y%z%                                ",
"                              A%B%C%}#D%E%o   F%G%H%I%J%K%L%M%N%                                ",
"                                    O%P%        Q%R%S%T%T%U%V%W%                                ",
"                                                  X%Y%c%}#Z%`%                                  ",
"                                                                                                "};
