/* XPM */
static char * enemy_xpm[] = {
"48 48 351 2",
"  	c #93DC55",
". 	c #93DD4D",
"+ 	c #93DC5A",
"@ 	c #8EDC53",
"# 	c #8EDD59",
"$ 	c #AD7353",
"% 	c #A36B4B",
"& 	c #AB694A",
"* 	c #A46543",
"= 	c #A46B52",
"- 	c #A47159",
"; 	c #AF9078",
"> 	c #C8AB9B",
", 	c #A2DA66",
"' 	c #A6DA7A",
") 	c #9BDA62",
"! 	c #A9DC68",
"~ 	c #D4E4A7",
"{ 	c #8ED452",
"] 	c #7CCB3F",
"^ 	c #8DDC4C",
"/ 	c #292526",
"( 	c #231C1B",
"_ 	c #322623",
": 	c #A86C54",
"< 	c #9A735A",
"[ 	c #AB6944",
"} 	c #AB6543",
"| 	c #A25F44",
"1 	c #945C42",
"2 	c #8B553C",
"3 	c #845A44",
"4 	c #846553",
"5 	c #D3EAB5",
"6 	c #F4FEEB",
"7 	c #F4FEDD",
"8 	c #B3E384",
"9 	c #9BD75C",
"0 	c #92D554",
"a 	c #8CCD4D",
"b 	c #9BD66C",
"c 	c #E5FED5",
"d 	c #FAFBE1",
"e 	c #85D44A",
"f 	c #9AD95C",
"g 	c #8BD44C",
"h 	c #1A1616",
"i 	c #372927",
"j 	c #9B684C",
"k 	c #A66945",
"l 	c #AC653D",
"m 	c #AA683E",
"n 	c #B1653C",
"o 	c #945A3B",
"p 	c #8C5234",
"q 	c #854F39",
"r 	c #7E5A46",
"s 	c #8B6955",
"t 	c #FAF19D",
"u 	c #64575A",
"v 	c #38393B",
"w 	c #484645",
"x 	c #EDFDE4",
"y 	c #FBF6CC",
"z 	c #81CE44",
"A 	c #ACE27B",
"B 	c #B2DD80",
"C 	c #281A15",
"D 	c #27150D",
"E 	c #644232",
"F 	c #B16443",
"G 	c #A25E3C",
"H 	c #9B5B3C",
"I 	c #925335",
"J 	c #83533B",
"K 	c #654C3A",
"L 	c #422C25",
"M 	c #140E0E",
"N 	c #D5F1BB",
"O 	c #EBEFAA",
"P 	c #CAECA9",
"Q 	c #F5FEE6",
"R 	c #B8E089",
"S 	c #8B654B",
"T 	c #46291A",
"U 	c #33180E",
"V 	c #8C5645",
"W 	c #A4623E",
"X 	c #774B39",
"Y 	c #39251B",
"Z 	c #260C09",
"` 	c #776558",
" .	c #47433F",
"..	c #3A2D2A",
"+.	c #87BF53",
"@.	c #BDD590",
"#.	c #ECF5CC",
"$.	c #F6F2AB",
"%.	c #E2F2BC",
"&.	c #C6EC9E",
"*.	c #3B1F15",
"=.	c #633B2D",
"-.	c #9B6242",
";.	c #7D5443",
">.	c #4C352B",
",.	c #654E43",
"'.	c #BAA79A",
").	c #9ECD6C",
"!.	c #9BD376",
"~.	c #FDF294",
"{.	c #F9EC65",
"].	c #F8FBCC",
"^.	c #DAF3C1",
"/.	c #A3654A",
"(.	c #441B0F",
"_.	c #543A2B",
":.	c #6B4D3B",
"<.	c #93D55B",
"[.	c #9DD870",
"}.	c #EDFDDB",
"|.	c #F4ED7B",
"1.	c #EDE358",
"2.	c #F5F7BC",
"3.	c #DCF4BA",
"4.	c #9BD664",
"5.	c #482E24",
"6.	c #583828",
"7.	c #8B5D43",
"8.	c #633C25",
"9.	c #6D4629",
"0.	c #6C442D",
"a.	c #745E4C",
"b.	c #97D763",
"c.	c #A2CA75",
"d.	c #FBFAD5",
"e.	c #C3D595",
"f.	c #9ECA73",
"g.	c #B6A6A3",
"h.	c #44322A",
"i.	c #6C4432",
"j.	c #523C32",
"k.	c #664937",
"l.	c #754A33",
"m.	c #7B4B2E",
"n.	c #734531",
"o.	c #B6D88B",
"p.	c #D5E7BB",
"q.	c #8DCC52",
"r.	c #A67557",
"s.	c #D5BDB5",
"t.	c #F2EDEE",
"u.	c #ACA8A8",
"v.	c #553F38",
"w.	c #9C5D42",
"x.	c #966144",
"y.	c #5D5755",
"z.	c #B79F96",
"A.	c #A27E73",
"B.	c #855441",
"C.	c #845135",
"D.	c #824D2E",
"E.	c #734A2E",
"F.	c #64442B",
"G.	c #937966",
"H.	c #8FC55D",
"I.	c #8CBB5A",
"J.	c #85BD4D",
"K.	c #93CF5B",
"L.	c #F4F2EB",
"M.	c #EEEDF2",
"N.	c #E7E7E8",
"O.	c #E3E4E3",
"P.	c #CABCB7",
"Q.	c #77574B",
"R.	c #7A452C",
"S.	c #542F23",
"T.	c #979796",
"U.	c #D8D9D9",
"V.	c #E8DBD6",
"W.	c #936C59",
"X.	c #824D34",
"Y.	c #73442D",
"Z.	c #745442",
"`.	c #94DB61",
" +	c #7ECB42",
".+	c #AC816C",
"++	c #F6E9E6",
"@+	c #F4F2F3",
"#+	c #B7B1AC",
"$+	c #C3C4C3",
"%+	c #B19B8D",
"&+	c #92563B",
"*+	c #874A2C",
"=+	c #7C4B33",
"-+	c #E1DCDB",
";+	c #EDF1F0",
">+	c #E4EAE9",
",+	c #D8DDE2",
"'+	c #DBCDC8",
")+	c #B59886",
"!+	c #896D59",
"~+	c #E2F8CE",
"{+	c #EAFAD6",
"]+	c #CDF0AA",
"^+	c #9C654B",
"/+	c #C3AEA8",
"(+	c #9D938C",
"_+	c #995736",
":+	c #8C634D",
"<+	c #E3D2C5",
"[+	c #CACCCC",
"}+	c #C9B8A7",
"|+	c #FBFCDD",
"1+	c #E5F2B7",
"2+	c #B9E494",
"3+	c #AB6449",
"4+	c #7B7775",
"5+	c #656158",
"6+	c #A78975",
"7+	c #9D7C6B",
"8+	c #8A8783",
"9+	c #AFA196",
"0+	c #C7CDD1",
"a+	c #854936",
"b+	c #F8F280",
"c+	c #F5F4A4",
"d+	c #A5DC73",
"e+	c #92D44D",
"f+	c #5E534D",
"g+	c #978674",
"h+	c #8D4E34",
"i+	c #9C8C85",
"j+	c #CBC0BD",
"k+	c #7A4633",
"l+	c #F1E65A",
"m+	c #F4EC84",
"n+	c #F9FEEB",
"o+	c #DBE5E6",
"p+	c #D5DADB",
"q+	c #84736B",
"r+	c #AA7D68",
"s+	c #A6948A",
"t+	c #D2D7DA",
"u+	c #C5C8C9",
"v+	c #6D4B34",
"w+	c #8A7359",
"x+	c #E7EB9B",
"y+	c #C8E0AA",
"z+	c #CCD5D8",
"A+	c #BCB9B6",
"B+	c #96694A",
"C+	c #986853",
"D+	c #534D49",
"E+	c #E6FFC6",
"F+	c #A0D760",
"G+	c #DCDAD5",
"H+	c #FAF7C5",
"I+	c #EFF3B3",
"J+	c #D1EAA7",
"K+	c #AEE081",
"L+	c #AA9588",
"M+	c #C4C2BC",
"N+	c #AB8C73",
"O+	c #AB5E3F",
"P+	c #F8EF88",
"Q+	c #BEE99D",
"R+	c #F1EA64",
"S+	c #EAE26F",
"T+	c #BAAEA6",
"U+	c #F9F3AD",
"V+	c #F2F0B0",
"W+	c #DED7CE",
"X+	c #8C5A3C",
"Y+	c #9C5A37",
"Z+	c #83522E",
"`+	c #E9F5DC",
" @	c #DEF5C9",
".@	c #9D603D",
"+@	c #5D493B",
"@@	c #5B412C",
"#@	c #6E584C",
"$@	c #533425",
"%@	c #6D3E29",
"&@	c #663D30",
"*@	c #5B3D30",
"=@	c #5B3C2C",
"-@	c #5B4739",
";@	c #90CF52",
">@	c #8DD446",
",@	c #A75F49",
"'@	c #7B4D3A",
")@	c #4E3326",
"!@	c #A18273",
"~@	c #875938",
"{@	c #5C4435",
"]@	c #7A523A",
"^@	c #7C5437",
"/@	c #8DE04F",
"(@	c #825C4C",
"_@	c #574539",
":@	c #544134",
"<@	c #4B3B33",
"[@	c #54362A",
"}@	c #3B2C24",
"|@	c #6A5443",
"1@	c #453A34",
"2@	c #362824",
"3@	c #413025",
"4@	c #8DB75E",
"5@	c #493B2C",
"6@	c #65523D",
"7@	c #5E4B37",
"8@	c #655243",
"9@	c #7E6A6D",
"0@	c #84D246",
"a@	c #7A654C",
"b@	c #786449",
"c@	c #6E5942",
"d@	c #877361",
"e@	c #81CB3E",
"f@	c #8B745D",
"g@	c #826C53",
"h@	c #735B43",
"i@	c #8D7960",
"j@	c #97826B",
"k@	c #C1E9A6",
"l@	c #72553C",
"m@	c #AEDC83",
"n@	c #73604C",
"o@	c #3D312B",
"p@	c #6D513C",
"q@	c #EFF081",
"r@	c #C3DAA0",
"s@	c #A3D374",
"t@	c #BEDB9A",
"u@	c #BBDB92",
"v@	c #85C24B",
"w@	c #9E5B48",
"x@	c #A3DC6A",
"y@	c #C7EAA9",
"z@	c #ABDC7C",
"A@	c #CAE9B3",
"B@	c #FAF9BA",
"C@	c #99DA54",
"D@	c #A9D46F",
"E@	c #DCEEC8",
"F@	c #BCD88E",
"G@	c #A2D76B",
"H@	c #C4E5A4",
"I@	c #FCF5B5",
"J@	c #FDEE9B",
"  . .   +             @ #                 $ % $ & * = - ; >   , ' ' ) +                     ! ~ ",
"+   + +   . +       { ] ^ / ( _       : < % [ } } } | 1 2 3 4 5 6 7 8 9 +         0 a   + b c d ",
"  # e ^   f + +   + # g ( ( h ( i j = k l m n l m } } * o p q r s t u v v w       0 0     9 x y ",
"+   z + A B )       + / (     C D E = [ n l F l m l l l G H I J K L C M M h /             ) N O ",
"  . 9 P Q Q R 9       +       S T U V & } [ } } l l } l W H 1 X Y Z i `  .v / ..        @ + +.@.",
"# b N #.y $.%.&.)             = 1 *.=.& l m } } } } } } W -.;.*.D >.,.'.      w         + ^ { ).",
"^ !.6 y ~.{.].^.b +         /.[ [ X (.1 [ l } } } n n l -.3 Y U _.E E :.      + +     + + . 0 <.",
"  [.}.$.|.1.2.3.4.+     + - l l k j 5.6.% l [ & } n l [ 7.T C _.8.9.0.E a.                      ",
"  b.c.~ d.y e.f.+       + % n } - > g.h.i.% [ } } } k 7.T D j.k.l.m.m.n.:.                      ",
"  + a o.p.5 c.q.        j l n r.s.t.t.u.v.l.w.[ * x.i.U M y.z.A.B.C.D.E.F.G.            @ {     ",
"  + . H.I.J.K.      + + k n /.> L.M.N.O.P.Q.D.W R.S.h.y.T.U.V.s.W.C.X.m.Y.Z.`.) 4.) + # g  +    ",
"+     + 0 0 +       + r.l l .+++@+M.N.#+$+%+&+*+=+%+-+M.;+>+,+'+)+J X.m.R.0.!+~+{+]+    0       ",
"+     . .   +   + 0 ^+k n * /+@+@+t.#+(+T.%+H _+:+<+u.T.U.>+,+[+}+:+X.X.R.Y.Q.|+y 1+2+)         ",
"          + +     + 3+n l j <+@+;+N.4+u 5+6+o I 7+#+8+8+9+N.U.0+P.W.q a+l.n.X )+b+c+6 d+        ",
"  + +     .   e+e+- 3+l l r.V.@+>+O.y.( f+g+&+h+.+i+w  .4+O.U.[+j+7+C.q =+=+k+4 l+m+n+d+        ",
"  + + +         = /.k } * .+V.>+o+p+4+h q+< &+h+r+s+( ( T.>+t+u+P.< C.=+q X.k+v+w+x+y+4.        ",
"4.) + + # #   - 3+} k } } r+'+p+t+z+A+(+)+B+o p C+P.w D+t+,+z+u+P.s X.X.X.X.=+l.;.5 I.0         ",
"x E+F+. .   % ^+[ } * } l = }+[+0+u+u+}+r.| _+I J s.G+G+O.t+0+u+'.7.p q X.=+m.k+k+s             ",
"H+I+J+K++   ^+k k } } l l /.L+$+u+u+M+N+/.O+_+p =+i+-+-+U.z+u+M+g+2 I q X.m.m.*+a+;.+ g {       ",
"P+|.|+Q++ ^+/.[ l } /.H _+w.W.%+}+> N+B+* W o p q Q.g.G+t+0+M+z.:+&+h+h+X.X.=+=+k+l.:+ +e       ",
"R+S+d.Q++ x.k } n } :+)+s =+1 ^+: & k } } G H I p =+3 L+/+T+L+x.&+2 X.C.X.X.=+l.E.Y.;.N+@       ",
"U+V+e.' B+-.} } n * 7+W+s+F.=+X+o o o Y+H H _+p Z+D.X.X.J V B.I p J r E.=+k+l.l.Y.Y.l.!+^       ",
"`+ @I.g C..@} [ F ^+/+N.g.+@@@F.F.F.9.9.Y.E.l.l.l.Y.n.n.n.n.X =+0.G.}+,.0.Y.Y.Y.Y.Y.n.r e       ",
"I.+.+ + C..@} } } ^+V.>+A+#@$@8.%@n.l.=+X.=+k+n.&@=.6.$@_._.*@=@-@$+-+q+=@0.n.n.n.Y.Y.J 7+      ",
";@>@+ + S o W * W - <+}+N+B+1 | ,@3+3+3+F 3+3+/.w.2 '@l.=@$@$@)@q+;+,+(+=@F.n.n.n.n.Y.X.!@@ e g ",
"    + +   ~@o .@W ^+= * l l l [ [ } l n n l } } } } } k -.1 2 Y.z.L.G+T+{@F.l.=+n.i.Y.=+!@+ z e ",
"          K ]@p I H H W W W W W W W W W W W * * } } } } } } k /.r.; > '.k.9.^@=+Y.0.0.]@  + @ /@",
"            =@Y.m.X.p &+&+o &+&+&+o o o o H H H H G W l l } W * * -.:+(@X =+^@Y.%@%@n.r   +   ^ ",
"            _@_.=.E i.Y.n.n.l.l.n.l.=+=+=+=+=+q p I &+_+_+H H G G H o p q =+l.F.8.%@X W.    + . ",
"              :@h.<@_.[@[@[@[@_.[@=@=@=@=@&@E i.Y.n.=+=+X.C.2 p I I p X.=+n.F.@@6.E (@      + . ",
"                  ..i }@i }@i }@h.L L L h.h.h.h.$@$@6.=@E i.i.l.l.l.n.i.=.=@_.>.j.|@        `.  ",
".                       ..1@_ ( _ i i i i i i 2@2@}@}@}@3@h.>.$@_._.>.h.h.h.>.v.`           + + ",
"                        0 <.I.4@1@5@5@5@h.h.3@}@}@}@}@}@}@}@..i }@}@....i 1@D+                0 ",
"9   +           C+C+x.B+7.C+{ ]@6@6@7@7@7@{@_.j.:@:@_@8@a.` q+,.1@1@f+9@              +     0@g ",
"d+  + @ g +   :+x.G G Y+H -.x.X+~@a@a@b@c@|@6@K K |@c@a@d@g+%+                            # z g ",
"Q+. + 0@e@+ 4 3 o Y+Y+_+_+_+o o ~@^@!+f@g@a@a.h@c@h@b@g@i@j@g+                                  ",
"k@. # @ e++ Z.X l.X B.V 2 2 2 X+X+]@l@f@j@i@!+g@b@b@a@g@f@j@g+                g 0           +   ",
"m@  +     + _@F.=@=@E i.X C.C.C.C.'@i.h@i@j@7+i@g@g@g@w+f@G.L+              0 { 0             + ",
"q.+ +       5@c@l@k.@@6.F.l.=+X.X.'@i.@@n@G.!@7+f@!+!+w+f@f@|@8@                                ",
"+ +         o@|@h@l@l@k.$@=@i.=+=+n.E )@5@8@` f@!+4 a@n@n@,.*@_.8@                              ",
"0 0         _@+@|@p@l@l@:._._.i.n.i.=@:@:@5@_.-@+@+@{@E v+v+]@J =+4 '.                          ",
"0 0 0         |@_@+@K :.p@k.)@$@{@*@>.8@q@3@3@}@o@>._.0.J X+H .@G 1 s                           ",
"e  +              <@_@{@k.-@j.h.<@j.h.r@d |+Y _ 2@L E J o H H W } * 3 i@  g e+0               e ",
"{ g                 1@<@j.j._@h.o@h...s@t@u@..2@}@)@v+7.H H w.G G H J (@  0 0           +     g ",
"            + +   # @ ] <@>.j.h.2@_ + { v@J.q.i Y 5.i.2 o w.w@w.o p =+B.              +     x@' ",
"              +   + . +     o@( (       <.<.+   o@}@_.=+&+&+&+o p Z+v+Z.                  4.c x ",
"              + ) 2+&.y@x@                +       1@L $@i.'@J C.m.E.K                   z@A@].B@",
"            . C@D@E@n+Q F@G@                        . _.j.>._.=@$@{@d@                9 H@n+I@J@"};
