/* XPM */
static char *c408fdcae9ff4b97b6fc0249f9cef439mDLOSBLa3ObTHxfj[] = {
/* columns rows colors chars-per-pixel */
"48 48 201 2 ",
"   c #010101",
".  c #080401",
"X  c #060A03",
"o  c #0F0A01",
"O  c #070708",
"+  c #080709",
"@  c #0C0C0D",
"#  c #110C02",
"$  c #191404",
"%  c #1A1405",
"&  c #131D0B",
"*  c #131313",
"=  c #171B13",
"-  c #1C1C1C",
";  c #221503",
":  c #231D03",
">  c #2B1A04",
",  c #321E06",
"<  c #18240E",
"1  c #1B2611",
"2  c #1D2B12",
"3  c #1E3011",
"4  c #2E2505",
"5  c #2B240E",
"6  c #342305",
"7  c #3D2C06",
"8  c #372508",
"9  c #2A2918",
"0  c #342B10",
"q  c #223315",
"w  c #263A16",
"e  c #283D16",
"r  c #29371C",
"t  c #232323",
"y  c #282A25",
"u  c #2D2D2D",
"i  c #383C26",
"p  c #333333",
"a  c #373B32",
"s  c #3C3C3C",
"d  c #422A07",
"f  c #472C08",
"g  c #4A3407",
"h  c #4A3C07",
"j  c #4C3408",
"k  c #553809",
"l  c #593F09",
"z  c #663D09",
"x  c #433C31",
"c  c #2D431A",
"v  c #334C1E",
"b  c #334B21",
"n  c #3B492D",
"m  c #3E4438",
"M  c #57420A",
"N  c #5D440A",
"B  c #5E4809",
"V  c #62460A",
"C  c #6D410A",
"Z  c #67490B",
"A  c #74460B",
"S  c #72490B",
"D  c #6A550A",
"F  c #76560C",
"G  c #7C530C",
"H  c #7E650F",
"J  c #484738",
"K  c #584F3E",
"L  c #4A6F2B",
"P  c #4B712B",
"I  c #4D6F30",
"U  c #557E33",
"Y  c #454545",
"T  c #4A4946",
"R  c #4C4C4C",
"E  c #564E43",
"W  c #4F524B",
"Q  c #555454",
"!  c #585758",
"~  c #5C5B5C",
"^  c #5A6D45",
"/  c #6A704F",
"(  c #605F60",
")  c #636363",
"_  c #6C6C6C",
"`  c #706F6F",
"'  c #706F70",
"]  c #727272",
"[  c #7D7D7D",
"{  c #85520D",
"}  c #8A540D",
"|  c #855E0D",
" . c #8E5D0E",
".. c #915F0E",
"X. c #88670D",
"o. c #94620E",
"O. c #98670F",
"+. c #956A0F",
"@. c #98680F",
"#. c #97790F",
"$. c #9C6F10",
"%. c #9E7010",
"&. c #A17210",
"*. c #866D27",
"=. c #5B8932",
"-. c #65943D",
";. c #6CA13D",
":. c #779A57",
">. c #71A945",
",. c #7BBA49",
"<. c #7DC844",
"1. c #7EC449",
"2. c #A58510",
"3. c #BE9917",
"4. c #C59F12",
"5. c #C7A112",
"6. c #CBA413",
"7. c #DFB315",
"8. c #E3B718",
"9. c #E2B61B",
"0. c #C39F3C",
"q. c #D7AD2F",
"w. c #E5B821",
"e. c #EFC132",
"r. c #83B356",
"t. c #9E9B77",
"y. c #9EB479",
"u. c #E9BD46",
"i. c #EBBE48",
"p. c #84C54D",
"a. c #85CD4C",
"s. c #89CC4A",
"d. c #87D24A",
"f. c #8CDA4F",
"g. c #93DE4D",
"h. c #86C351",
"j. c #8DC256",
"k. c #87CD51",
"l. c #8ACC52",
"z. c #90C75E",
"x. c #8DD453",
"c. c #8EDA54",
"v. c #91D454",
"b. c #93DC55",
"n. c #95D759",
"m. c #94DC5A",
"M. c #93E155",
"N. c #93E059",
"B. c #9ACB67",
"V. c #9BD764",
"C. c #9EDB6B",
"Z. c #9BC875",
"A. c #A1DC67",
"S. c #A3CA77",
"D. c #A6DD74",
"F. c #A9E275",
"G. c #D7D15B",
"H. c #EDC049",
"J. c #FACA44",
"K. c #DFD87C",
"L. c #F5EA68",
"P. c #F7EC7B",
"I. c #848383",
"U. c #888788",
"Y. c #8C8C8C",
"T. c #949494",
"R. c #989697",
"E. c #999798",
"W. c #9B9B9B",
"Q. c #A09F9F",
"!. c #A3A2A3",
"~. c #A8A7A8",
"^. c #ADABAC",
"/. c #B0AEAF",
"(. c #B0AFB0",
"). c #B3B2B2",
"_. c #B9B7B8",
"`. c #BCBABB",
"'. c #ABDE84",
"]. c #B6D788",
"[. c #ACCF93",
"{. c #B2E185",
"}. c #BEE392",
"|. c #D5D79E",
" X c #EADC90",
".X c #FDF18F",
"XX c #CCDBBB",
"oX c #C9E9A9",
"OX c #D6E6A8",
"+X c #D2EFB3",
"@X c #DCF5BB",
"#X c #F6F3AD",
"$X c #EBEEB2",
"%X c #C1BFC0",
"&X c #DAF0CB",
"*X c #E4F5CB",
"=X c #F7F5C2",
"-X c #FBF7CC",
";X c #E9F7D8",
":X c #F7F9DB",
">X c #EEFCE5",
/* pixels */
"b.g.g.m.m.b.b.b.b.b.c.c.c.b.b.b.N.>.< & & & & & & & & q ,.M.b.D.{.'.C.m.b.b.b.b.b.b.b.b.b.m.D.OX",
"b.b.b.m.b.b.b.b.b.b.x.<.d.x.x.x.b.-..   + + O O O O O = ,.c.B.oX;X*X].v.b.b.b.b.b.v.s.b.m.C.*X:X",
"b.c.a.f.b.m.m.m.b.m.b.=.e c c c c 2   t I.I.] _ _ _ _ _ n e i J T J n i -.b.b.b.b.b.v.b.b.A.;X-X",
"m.b.d.m.F.{.A.b.b.b.m.L               p ).).E.R.R.R.R.U.-               U m.b.b.b.b.b.b.b.C.oX$X",
"b.g.n.oX>X:X}.V.b.b.m.P   s I.] _ Y   p ).).R.R.R.R.R.U.-   ~ I.` ) y   U m.b.b.b.b.b.b.c.b.j.].",
"b.D.+X;X-X#X@XoXV.b.M.P   ! `.^.E.)   p ).).R.T.T.T.T.U.- O U.`.!.R.s   U b.b.b.b.b.b.b.m.g.v.B.",
"f.'.>X-X.XL.=X*XC.m.M.P   ! `.^.R.)   * Y Y s a s s s p @ O I.`.!.T.s   U M.b.m.m.b.b.m.m.g.b.v.",
"b.D.;X#XP.L.#X@XC.m.M.P   ! `.^.R.)                       + U.`.!.T.s   U M.b.b.b.b.b.b.b.b.b.b.",
"b.V.S.OX-Xt./ ^ I P P w   ! `.U.Y u       % *.*.H D #       s ! [ R.s   c P P P P L -.b.b.b.b.b.",
"b.n.s.].XXm               ! %X'           0 H.J.8.5.:           ) R.s               b b.c.x.b.b.",
"b.m.b.z.r.r   s ! R Y t   u ) K j g d ,   0 i.J.8.4.:   , d g j J R -   u ! Q Y u   b c.f.<.c.b.",
"m.b.b.m.v.c   I.%X~.R.Y       7 %.O.} z   0 i.J.8.4.: . C } @.$.6       ) `.~.R.~   b b.b.c.b.b.",
"m.b.f.;.=.2   R ` ( ! y   % d Z %.O.} z   0 i.J.8.4.: . C } @.$.V 7 %   ) `.~.R.~   n V.b.b.b.b.",
"b.b.x.e                   g %.%.%.O.} z   0 i.J.8.4.: . C } @.%.%.$.7   ) %X^.E.~   W D.b.b.b.b.",
"b.b.x.w   u s p p p p =   g %.%.%.O.} z   0 i.J.8.4.: . C } @.%.%.%.l > E [ ] ) s   a :.>.b.b.b.",
"b.b.x.w + U._.W.T.T.R.Y   g %.%.%.O.} z   0 i.J.8.4.: . C } @.%.%.%...{ d             O v x.b.b.",
"D.C.l.w + Y.`.!.T.[ _ x ; N %.%.%.O.} z   0 i.J.8.4.: . C } @.%.%.%...} d   = p u y -   c x.b.b.",
";X@XB.w + Y.`.!.R.s   f { ..%.%.%.O.} z   0 i.J.8.4.: . C } @.%.%.%...} d   R ).~.T.)   c x.b.b.",
"=X|.y.r O _ T.[ ] x ; k } o.%.%.%.O.} z   0 i.J.8.4.: . C } @.%.%.%...} k ; E T.T.R.)   c x.b.b.",
"K.i = O   + @ + + N +. .} o.%.%.%.O.} z   0 i.J.8.4.: . C } @.%.%.%...}  .+.M + s R._   c c.b.b.",
"G.5   - - - = O   V &.o.} o.%.%.%.O.} z   0 i.J.8.4.: . C } @.%.%.%...} o.&.l   u [ !   e ,.h.b.",
"|.9 @ I.~.Y.I.y   V &.o.} o.%.%.%.O.} z   0 i.J.8.4.: . C } @.%.%.%...} o.&.l   O @ +   X & b l.",
"XXy @ E.`.W.T.u   V &.o.} o.%.%.%.O.} z   0 i.J.8.4.: . C } @.%.%.%...} o.&.l   + = = * @   q k.",
"r.1 @ R.`.W.T.u   V &.o.} o.%.%.%.O.} z   0 i.J.8.4.: . C } @.%.%.%...} o.&.l   s W.R.I.)   q k.",
",.< @ Y.^.T.I.y   V &.o.} o.$.$.%.O.} z   0 i.J.8.4.: . C } @.%.%.%...} o.&.l   Y `.).E.] O 3 1.",
"p.1   - t - - +   V &.o.} o.$.%.%.O.} z   0 i.J.8.4.: . C } @.%.%.%...} o.&.l   Y `./.E.] O 3 <.",
"p.1   O O O O     V &.o.} o.%.%.%.O.} z   0 u.J.8.4.: . C } @.%.%.%...} o.&.l   Y /.~.Y._ O q a.",
"p.1 + ] U.] _ t   V &.o.} o.%.%.%.O.} z   4 q.w.7.4.: . C } @.%.%.%...} o.&.l   * u u t -   q a.",
"p.1 @ E.`.!.T.u   V &.o.} o.%.$.$.O.} z   4 6.7.7.4.: . C } O.$.$.%...} o.&.l               q s.",
"p.1 @ R.`.W.T.u   V &...} o.&.F 6 j } z   4 6.7.7.4.: . C { g 6 G &...} o.&.l   u [ ] ) R   q s.",
"p.1 @ R.`.W.Y.u   V &.o.} o.%.N   > { z   4 6.7.7.4.: . C { ;   Z %...} o.&.l   Y `.).E.] O q s.",
"p.1 O s T s p *   V &.o.} V 7 N X.D 6 >   0 q.e.8.4.:   > 8 F X.M 7 C } o.&.l   Y `.^.R.] O q l.",
"p.1               V &.o.} f   M 8.#.      0 i.J.8.4.:     . 2.8.h   j } o.&.l   Y `.(.R.] O q l.",
"h.1 O Q ) ! R -   V &.o.} S k N D N f 6   0 i.J.8.4.:   8 f B D N k S } o.&.l   t ! Q Y p   2 1.",
"B.1 @ E.`.Q.T.u   V &.o.} o.&.N   > } z   0 i.J.8.4.: . C { ;   Z &...} o.&.l               3 1.",
"[.1 @ R.`.W.Y.u   V &.o.} o.%.G j l } z   0 i.J.8.4.: . C } l j | %...} o.&.l   t ! Q Y p   q a.",
"[.1 @ E.`.!.T.u   V &.o.} o.%.%.&.O.} z   0 i.J.8.4.: . C } @.%.%.%...} o.&.l   Y `.(.E.] O q l.",
"Z.1 + ! ] ~ ! -   V &.o.} o.%.%.%.O.} z   0 i.J.8.4.: . C } @.%.%.%...} o.&.l   Y `.^.R.] O q l.",
"r.1               V &.o.{ o.%.%.%.O.} z   0 i.J.8.4.: . C } @.%.%.%...} o.&.l   Y `.).E.] O q l.",
"h.1   p s p p @   V &.o.} o.%.%.%.O.} z   0 i.J.8.4.: . C } @.%.%.%...} o.&.l   u [ ] ) R   q l.",
"p.1 @ T.).E.Y.u   V &.o.} o.%.%.%.O.} z   0 i.J.8.4.: . C } @.%.%.%...} o.&.l               q k.",
"p.1 @ R.`.W.T.u   V &.o.} o.%.%.%.O.} z   0 i.J.8.4.: . C } @.%.%.%...} o.&.l   * p u y -   q a.",
",.< @ R.`.W.Y.u   V &.o.} o.%.%.%.O.} z   0 i.J.8.4.: . C } @.%.%.%...} o.&.l   Y ).~.T._ O q 1.",
"1.< @ R.`.W.Y.u   V &.o.} o.$.$.%.O.} z   0 i.J.8.4.: . C } @.%.%.%...} o.&.l   Y `./.R.] O q p.",
"p.1 @ E.`.W.T.u   V &.o.} o.&.&.&.O.} z   0 H.J.8.5.: . C } @.&.&.%.o.} o.&.l   Y `.(.E.] O r Z.",
"p.1 @ [ W.I.[ t   k X.G A G | | | G A k   5 0.q.3.2.% . k A { | | | G A G X.g   s W.T.[ ~ O a &X",
"p.1   * = * @ O   . # o o o # # # # o .   . % % % #     . o # # # # o o o # .   O * * @ @   a $X",
"p.1                                                                                         i  X"
};
