/* XPM */
static char *_18a5c7276eb4ee09b7edba1c150d152c67eAh7CCdq4hFRN[] = {
/* columns rows colors chars-per-pixel */
"48 48 195 2 ",
"   c #010101",
".  c #080602",
"X  c #0B0903",
"o  c #0C0C0C",
"O  c #060904",
"+  c #120D03",
"@  c #1A1404",
"#  c #141D0D",
"$  c #1F1909",
"%  c #191506",
"&  c #151414",
"*  c #1C1C1C",
"=  c #181717",
"-  c #0E1509",
";  c #2C1B04",
":  c #251D09",
">  c #221703",
",  c #311F05",
"<  c #19230F",
"1  c #17260D",
"2  c #1C2B12",
"3  c #1D2414",
"4  c #2C230C",
"5  c #27200C",
"6  c #342105",
"7  c #3A2405",
"8  c #31270D",
"9  c #34290D",
"0  c #3A2B09",
"q  c #232D16",
"w  c #362C10",
"e  c #382D11",
"r  c #273B16",
"t  c #283B17",
"y  c #293C1A",
"u  c #243418",
"i  c #3E3212",
"p  c #242424",
"a  c #2C2B2B",
"s  c #302F2F",
"d  c #2E3923",
"f  c #323B27",
"g  c #343334",
"h  c #3C3C3C",
"j  c #442A07",
"k  c #4A2D07",
"l  c #462B07",
"z  c #4E3007",
"x  c #4F3208",
"c  c #463707",
"v  c #533308",
"b  c #563D09",
"n  c #5C3A09",
"m  c #413514",
"M  c #623C09",
"N  c #423E38",
"B  c #2E461A",
"V  c #314A1D",
"C  c #374C27",
"Z  c #3D4137",
"A  c #514118",
"S  c #594208",
"D  c #774D0C",
"F  c #7A530C",
"G  c #664A10",
"H  c #454537",
"J  c #435633",
"K  c #765E21",
"L  c #496D2A",
"P  c #476E29",
"I  c #4F782C",
"U  c #50762E",
"Y  c #4F7630",
"T  c #507630",
"R  c #786022",
"E  c #403F40",
"W  c #424242",
"Q  c #4C4C4C",
"!  c #504F4F",
"~  c #595246",
"^  c #504F50",
"/  c #545353",
"(  c #5C5B5B",
")  c #605742",
"_  c #546542",
"`  c #646363",
"'  c #6C6C6C",
"]  c #70726F",
"[  c #727272",
"{  c #7D7C7C",
"}  c #676D4E",
"|  c #8D5B0E",
" . c #85580D",
".. c #915E0E",
"X. c #95630F",
"o. c #98670F",
"O. c #99690F",
"+. c #99760F",
"@. c #9A6A10",
"#. c #886D29",
"$. c #9C7E2F",
"%. c #5B8934",
"&. c #5E873B",
"*. c #638E3F",
"=. c #69993C",
"-. c #719F4B",
";. c #73AB45",
":. c #7BB94B",
">. c #BC9512",
",. c #AC8B34",
"<. c #B18F35",
"1. c #B79438",
"2. c #B99538",
"3. c #DDB215",
"4. c #DFB418",
"5. c #E2B61D",
"6. c #C49E3B",
"7. c #DFB324",
"8. c #CCA43C",
"9. c #C7A13C",
"0. c #D3AB3D",
"q. c #DCB13D",
"w. c #E3B720",
"e. c #E5B822",
"r. c #EABD2C",
"t. c #E6B92B",
"y. c #E8BB38",
"u. c #EEC032",
"i. c #F1C237",
"p. c #F5C53D",
"a. c #989573",
"s. c #D5AB40",
"d. c #D9AF42",
"f. c #DEB342",
"g. c #E5B942",
"h. c #EBBC42",
"j. c #E1B641",
"k. c #F0BF44",
"l. c #81C74C",
"z. c #84D04B",
"x. c #8DDA4C",
"c. c #8FD54D",
"v. c #93DE4D",
"b. c #89CA52",
"n. c #8DD353",
"m. c #8FDA53",
"M. c #8FD758",
"N. c #92D756",
"B. c #93DC56",
"V. c #91D15B",
"C. c #94DC5A",
"Z. c #99D958",
"A. c #90CB5B",
"S. c #9CDD62",
"D. c #98D666",
"F. c #9AD474",
"G. c #A2DC6B",
"H. c #9CE064",
"J. c #ABE17B",
"K. c #EFC146",
"L. c #F3C344",
"P. c #FACA46",
"I. c #F5C549",
"U. c #F8C749",
"Y. c #FECD4D",
"T. c #F7C847",
"R. c #EDE35C",
"E. c #F8EC70",
"W. c #848383",
"Q. c #8C8B8C",
"!. c #888788",
"~. c #949494",
"^. c #989697",
"/. c #9C9C9C",
"(. c #A1A1A1",
"). c #ACABAB",
"_. c #A8A7A8",
"`. c #B0AFAF",
"'. c #B5B3B4",
"]. c #BBB9BA",
"[. c #B9B7B8",
"{. c #B7D78D",
"}. c #B6E285",
"|. c #C4EB9A",
" X c #FFF393",
".X c #D3ECB9",
"XX c #D9F3B9",
"oX c #CCE9A3",
"OX c #F5F2AA",
"+X c #EDF5BB",
"@X c #FAF7CB",
"#X c #EEF9D7",
"$X c #F7FCD6",
"%X c #F2FFE7",
"&X c #F2FEED",
/* pixels */
"B.v.v.B.C.B.B.B.B.B.B.B.B.B.B.B.B.;.# # # # # # # # # q :.m.B.S.G.S.C.C.B.B.B.B.B.B.B.B.B.B.B.B.",
"B.B.B.B.B.v.B.B.B.B.B.B.B.B.B.B.B.;.                  - :.C.D..X&X#X}.Z.B.B.B.B.B.B.B.B.B.B.B.B.",
"B.B.B.B.B.C.B.B.B.B.B.%.r t t t t 2   a Q.Q.[ [ [ [ [ ] C y d Z H H f d =.B.B.B.B.B.B.B.B.B.B.B.",
"C.B.B.H.J.J.S.B.B.B.B.U               g '.'.~.~.~.~.~.Q.p               &.B.B.B.B.B.B.B.B.B.B.B.",
"B.B.C.|.%X%X}.C.B.B.B.T   h { [ ` Q   g '.'.~.~.~.~.~.Q.p   ` { ' ` a   &.B.B.B.B.B.B.B.B.B.B.B.",
"B.D.XX#X@XOXXX|.C.B.B.Y   ( ].).~.'   g '.'.~.~.~.~.~.Q.p   ~.].(.~.h   %.B.B.B.B.B.B.B.B.B.B.B.",
"B.F.&X@X XE.@XXXC.B.B.I   ( ].).~.'   & h h a a a a a a o   ~.].(.~.h   %.B.B.B.B.B.B.C.B.B.B.B.",
"B.F.#XOXE.R.+XXXS.B.B.I   ( ].).~.'                         ~.].(.~.h   %.B.B.B.B.B.B.B.B.B.B.B.",
"B.D.G.oX$Xa.} _ L P L r   ( ].Q.h g #.,.,.,.1.2.2.<.<.2.1.A E ! { ~.h   B L L L P L *.B.B.B.B.B.",
"B.C.B.{..XZ               ( ].[   . f.Y.Y.Y.Y.Y.Y.Y.Y.Y.Y.#.    ` ~.h               C B.B.B.B.B.",
"B.B.B.B.A.u   h / W W *   g ` ~ K $.U.Y.Y.Y.Y.Y.Y.Y.Y.Y.Y.s.R G ) / p   a / Q W a   C B.B.B.B.B.",
"C.B.B.C.C.y   !.].(.~.W       9 U.Y.Y.Y.Y.Y.Y.Y.Y.Y.Y.Y.Y.Y.Y.Y.$.      ` ]._.~.`   C B.B.B.B.B.",
"C.B.m.;.=.2   / [ ` ( a       4 P.Y.Y.Y.Y.Y.Y.Y.Y.Y.Y.Y.Y.Y.Y.Y.8.  .   ` ]._.~.`   J C.B.B.B.B.",
"B.B.m.r                   X   i Y.Y.Y.Y.Y.Y.Y.Y.Y.Y.Y.Y.Y.Y.Y.Y.d.+ .   ` ]._.~.`   _ C.B.B.B.B.",
"B.B.N.r   g W g g g g =   k 7 e Y.Y.Y.Y.Y.Y.Y.Y.Y.Y.Y.Y.Y.Y.Y.Y.s.% + , ~ { ' ` W   Z -.;.B.B.B.",
"B.C.M.r   ~.[./.~.~.~.W   v k w Y.Y.Y.Y.Y.P.p.p.r.r.L.P.Y.Y.Y.Y.s.X ; | b           . O V B.B.B.",
"B.B.N.r   ~.]./.~.W.[ N > n k e Y.Y.Y.Y.Y.i.4.4.4.4.4.r.Y.Y.Y.Y.d.X ; X.b   & a p p =   V B.B.B.",
"B.B.N.t   ~.]./.~.h   z @.| z 8 P.Y.Y.Y.Y.i.4.4.4.4.4.e.Y.Y.Y.Y.f.% ; X.G   / ].`.~.'   V B.B.B.",
"Z.G.{.f   { /.!.{ N @ v O...k : I.Y.Y.P.r.5.4.4.4.4.4.4.e.r.Y.Y.K.e 7 X.F @ ~ /./.~.'   B B.B.B.",
"Z.5 X             n X.X.O...k 5 I.P.L.i.5.4.4.4.4.4.4.4.4.4.L.P.g.: j ..@.X.b   g ~.'   B B.B.B.",
"N.<   = * = = O   n X.X.X.X.z 5 I.e.4.4.4.4.4.4.4.4.4.4.4.4.5.5.q.$ k | X.X.b   a { (   y l.l.B.",
"C.3 O Q.`.~.Q.p   n X.X.X.X.v 4 I.e.4.4.4.4.4.4.4.4.4.4.4.4.4.5.h.4 k ..X.X.b     o O   O # y N.",
"C.3 O ^.]./.~.p   n X.X.X.X.v 4 U.w.4.4.4.4.4.4.4.4.4.4.4.4.4.5.h.w k X.o.X.b   O o o o o   2 M.",
"B.< O ^.]./.~.p   n X.X.X.X.v 4 U.5.4.4.4.4.4.4.4.4.4.4.4.4.4.5.g.4 k X.X.X.b   g ).(.!.'   2 M.",
"B.< O ~.'.~.~.p   n X.X.X.X.z 8 P.5.4.4.4.4.3.3.4.4.4.4.3.4.3.4.g.4 j | X.X.b   h ].`.~.[   1 z.",
"B.<   = * = = O   n X.X.X...k 8 U.5.4.4.4.4.3.3.4.4.4.4.4.3.3.5.y.5 j | O.X.b   h ].`.~.[   1 z.",
"n.#               n X.X.X...7 8 U.5.4.4.4.4.3.3.4.4.4.4.4.4.4.5.h.9 j | O.X.b   h ].).~.'   2 x.",
"n.# O [ !.[ ' *   M X.X.O...7 i P.5.4.4.4.4.3.4.4.4.4.4.4.4.4.5.K.i k | O.X.b   & s a p *   2 x.",
"n.# O ^.]./.~.p   n X.X.O.X.6 A P.5.4.4.4.4.4.3.4.4.4.4.4.4.4.5.I.m k  .@.X.b               2 x.",
"n.# O ^.]./.~.p   n X.X.X.D 6 5 K.4.4.4.4.4.4.4.3.4.4.4.4.4.4.5.g.4 7 > O...b   a { [ ` Q   2 x.",
"n.# O ^.]./.~.p   n X.X. .; 6 5 h.4.4.4.4.4.4.4.4.4.4.4.4.4.4.w.j.5 j 6 O...b   h ].`.~.[   2 N.",
"c.#   g N g g o   M O...F +.> 4 T.4.4.4.4.4.4.4.3.3.4.4.4.4.4.w.f.$ k >.G ..b   h ].`.~.[   2 N.",
"c.#               M o.| c +.  8 P.4.4.4.4.4.4.4.4.4.4.4.4.4.4.5.0.% 7 >.j ..b   h ].`.~.[   2 M.",
"V.# O ^ ` / Q =   M X.| S +.+ 9 P.4.4.4.4.4.4.4.4.4.3.4.4.4.4.e.q.% n +. ...b   * ( / W g   2 B.",
"V.# O ^.]./.~.p   n X.X.D 7 , 4 P.5.4.4.4.4.4.4.3.3.3.3.4.4.4.w.f.% 7 @ O...b               2 B.",
"D.# O ^.]./.~.p   M X.X.| n ; 8 U.5.4.4.4.4.4.4.3.3.4.3.4.4.4.w.0.X z F O.X.b   = / Q W g   2 B.",
"D.# O ^.]./.~.p   n X.X.X...6 5 h.w.4.4.4.4.4.4.4.4.4.4.4.3.4.5.8.X v | @.X.b   h ].`.~.[   2 B.",
"V.#   ( [ ( ( =   n X.X.O.| 7 : h.4.4.4.4.4.4.4.4.4.4.4.4.4.4.w.0.X v | @.X.b   h ].`.~.[   u B.",
"n.#               n X.X.@.| 6 : h.4.4.3.3.4.4.4.4.4.4.4.4.3.4.r.s.. v | O.X.b   h ].`.~.[   2 B.",
"n.#   s h g a o   n X.X.O.| ; : y.4.3.4.4.4.4.4.4.4.4.4.4.4.4.r.s.X k | X.X.b   a W.{ ` Q   2 B.",
"n.# O ^.]./.~.p   n X.X.X...6 5 y.4.4.4.4.4.4.4.4.4.4.4.4.4.4.e.8.. k | O.X.b               2 B.",
"n.# O ^.]./.~.p   n X.X.X...7 9 L.5.4.4.4.4.4.4.4.4.4.4.4.4.4.r.9.  j | O.X.b   o p p * =   2 B.",
"l.# O ^.]./.~.p   n ..X.O.| 7 4 I.4.5.4.4.4.4.4.4.4.4.4.4.4.4.u.9.  j | @.X.b   h [.).~.'   2 B.",
"z.# O ^.]./.~.p   n ..X.X...j 4 I.5.4.4.4.4.4.4.4.4.4.4.4.4.4.r.6.  j | O.X.b   h ].`.~.[   u B.",
"n.# O ^.]./.~.p   n ..X.X...6 0 I.e.4.4.4.4.4.4.4.4.4.4.4.4.4.t.9.  j | O.X.b   h ].`.~.[   q B.",
"n.# O !._.!.!.p   n |  .| | 6 0 h.7.4.4.4.4.4.4.3.4.4.4.4.4.w.t.2.. 7 D | | x   g _./.!.`   u C.",
"n.#                             X   . X + X + @ @ > @ @ + + .   X                           q C.",
"n.#                                                                                         q C."
};
