/* XPM */
static char * exit_xpm[] = {
"48 48 174 2",
"  	c #93DC55",
". 	c #71A945",
"+ 	c #18240E",
"@ 	c #131D0B",
"# 	c #223315",
"$ 	c #7BBA49",
"% 	c #93E155",
"& 	c #A6DD74",
"* 	c #B2E185",
"= 	c #ABDE84",
"- 	c #83CE49",
"; 	c #65943D",
"> 	c #080401",
", 	c #010101",
"' 	c #080709",
") 	c #070708",
"! 	c #171B13",
"~ 	c #8EDA54",
"{ 	c #9ACB67",
"] 	c #C9E9A9",
"^ 	c #E9F7D8",
"/ 	c #E4F5CB",
"( 	c #B6D788",
"_ 	c #5B8932",
": 	c #283D16",
"< 	c #2D431A",
"[ 	c #1D2B12",
"} 	c #232323",
"| 	c #848383",
"1 	c #727272",
"2 	c #6C6C6C",
"3 	c #3B492D",
"4 	c #383C26",
"5 	c #484738",
"6 	c #4A4946",
"7 	c #A9E275",
"8 	c #4A6F2B",
"9 	c #333333",
"0 	c #B3B2B2",
"a 	c #999798",
"b 	c #989697",
"c 	c #888788",
"d 	c #1C1C1C",
"e 	c #557E33",
"f 	c #EEFCE5",
"g 	c #F7F9DB",
"h 	c #BEE392",
"i 	c #4B712B",
"j 	c #3C3C3C",
"k 	c #454545",
"l 	c #5C5B5C",
"m 	c #706F6F",
"n 	c #636363",
"o 	c #282A25",
"p 	c #D2EFB3",
"q 	c #FBF7CC",
"r 	c #F6F3AD",
"s 	c #DCF5BB",
"t 	c #585758",
"u 	c #BCBABB",
"v 	c #ADABAC",
"w 	c #949494",
"x 	c #A3A2A3",
"y 	c #FDF18F",
"z 	c #F5EA68",
"A 	c #F7F5C2",
"B 	c #9BDB66",
"C 	c #131313",
"D 	c #373B32",
"E 	c #0C0C0D",
"F 	c #F7EC7B",
"G 	c #A3CA77",
"H 	c #D6E6A8",
"I 	c #9E9B77",
"J 	c #6A704F",
"K 	c #5A6D45",
"L 	c #4D6F30",
"M 	c #263A16",
"N 	c #2D2D2D",
"O 	c #1A1405",
"P 	c #866D27",
"Q 	c #7E650F",
"R 	c #6A550A",
"S 	c #110C02",
"T 	c #7D7D7D",
"U 	c #CCDBBB",
"V 	c #3E4438",
"W 	c #C1BFC0",
"X 	c #706F70",
"Y 	c #342B10",
"Z 	c #EDC049",
"` 	c #FACA44",
" .	c #E3B718",
"..	c #C7A112",
"+.	c #231D03",
"@.	c #334B21",
"#.	c #92D857",
"$.	c #83B356",
"%.	c #29371C",
"&.	c #4C4C4C",
"*.	c #584F3E",
"=.	c #4C3408",
"-.	c #4A3407",
";.	c #422A07",
">.	c #321E06",
",.	c #EBBE48",
"'.	c #C59F12",
").	c #555454",
"!.	c #A8A7A8",
"~.	c #3D2C06",
"{.	c #9E7010",
"].	c #98670F",
"^.	c #8A540D",
"/.	c #663D09",
"(.	c #6D410A",
"_.	c #98680F",
":.	c #9C6F10",
"<.	c #342305",
"[.	c #6CA13D",
"}.	c #605F60",
"|.	c #67490B",
"1.	c #62460A",
"2.	c #4F524B",
"3.	c #593F09",
"4.	c #2B1A04",
"5.	c #564E43",
"6.	c #779A57",
"7.	c #B9B7B8",
"8.	c #9B9B9B",
"9.	c #915F0E",
"0.	c #85520D",
"a.	c #334C1E",
"b.	c #8C8C8C",
"c.	c #433C31",
"d.	c #221503",
"e.	c #5D440A",
"f.	c #472C08",
"g.	c #9EB479",
"h.	c #553809",
"i.	c #94620E",
"j.	c #956A0F",
"k.	c #8E5D0E",
"l.	c #57420A",
"m.	c #2B240E",
"n.	c #A17210",
"o.	c #86C351",
"p.	c #2A2918",
"q.	c #060A03",
"r.	c #1B2611",
"s.	c #1E3011",
"t.	c #B0AEAF",
"u.	c #E9BD46",
"v.	c #2E2505",
"w.	c #D7AD2F",
"x.	c #E5B821",
"y.	c #DFB315",
"z.	c #CBA413",
"A.	c #76560C",
"B.	c #7C530C",
"C.	c #88670D",
"D.	c #EFC132",
"E.	c #372508",
"F.	c #97790F",
"G.	c #A58510",
"H.	c #4A3C07",
"I.	c #B0AFB0",
"J.	c #72490B",
"K.	c #5E4809",
"L.	c #A09F9F",
"M.	c #855E0D",
"N.	c #74460B",
"O.	c #C39F3C",
"P.	c #BE9917",
"Q.	c #0F0A01",
"                                  . + @ @ @ @ @ @ @ @ # $ %   & * =                             ",
"                      -           ; > , ' ' ) ) ) ) ) ! $ ~ { ] ^ / (                           ",
"                      _ : < < < < [ , } | | 1 2 2 2 2 2 3 : 4 5 6 5 3 4 ;                       ",
"        7 *           8 , , , , , , , 9 0 0 a b b b b c d , , , , , , , e                       ",
"      ] f g h         i , j | 1 2 k , 9 0 0 b b b b b c d , l | m n o , e                       ",
"  & p ^ q r s ]       i , t u v a n , 9 0 0 b w w w w c d ) c u x b j , e                       ",
"  = f q y z A / B     i , t u v b n , C k k j D j j j 9 E ) | u x w j , e                       ",
"  & ^ r F z r s B     i , t u v b n , , , , , , , , , , , ' c u x w j , e                       ",
"    G H q I J K L i i M , t u c k N , , , O P P Q R S , , , j t T b j , < i i i i 8 ;           ",
"      ( U V , , , , , , , t W X , , , , , Y Z `  ...+., , , , , n b j , , , , , , , @.          ",
"      #.$.%., j t &.k } , N n *.=.-.;.>., Y ,.`  .'.+., >.;.-.=.5 &.d , N t ).k N , @.          ",
"          < , | W !.b k , , , ~.{.].^./., Y ,.`  .'.+.> (.^._.:.<., , , n u !.b l , @.          ",
"      [._ [ , &.m }.t o , O ;.|.{.].^./., Y ,.`  .'.+.> (.^._.:.1.~.O , n u !.b l , 3           ",
"      : , , , , , , , , , -.{.{.{.].^./., Y ,.`  .'.+.> (.^._.{.{.:.~., n W v a l , 2.          ",
"      M , N j 9 9 9 9 ! , -.{.{.{.].^./., Y ,.`  .'.+.> (.^._.{.{.{.3.4.5.T 1 n j , D 6..       ",
"      M ' c 7.8.w w b k , -.{.{.{.].^./., Y ,.`  .'.+.> (.^._.{.{.{.9.0.;., , , , , , ) a.      ",
"      M ' b.u x w T 2 c.d.e.{.{.{.].^./., Y ,.`  .'.+.> (.^._.{.{.{.9.^.;., ! 9 N o d , <       ",
"      M ' b.u x b j , f.0.9.{.{.{.].^./., Y ,.`  .'.+.> (.^._.{.{.{.9.^.;., &.0 !.w n , <       ",
"    g.%.) 2 w T 1 c.d.h.^.i.{.{.{.].^./., Y ,.`  .'.+.> (.^._.{.{.{.9.^.h.d.5.w w b n , <       ",
"  4 ! ) , ' E ' ' e.j.k.^.i.{.{.{.].^./., Y ,.`  .'.+.> (.^._.{.{.{.9.^.k.j.l.' j b 2 , <       ",
"  m., d d d ! ) , 1.n.i.^.i.{.{.{.].^./., Y ,.`  .'.+.> (.^._.{.{.{.9.^.i.n.3., N T t , : $ o.  ",
"  p.E | !.b.| o , 1.n.i.^.i.{.{.{.].^./., Y ,.`  .'.+.> (.^._.{.{.{.9.^.i.n.3., ) E ' , q.@ @.  ",
"  o E a u 8.w N , 1.n.i.^.i.{.{.{.].^./., Y ,.`  .'.+.> (.^._.{.{.{.9.^.i.n.3., ' ! ! C E , #   ",
"  r.E b u 8.w N , 1.n.i.^.i.{.{.{.].^./., Y ,.`  .'.+.> (.^._.{.{.{.9.^.i.n.3., j 8.b | n , #   ",
"  + E b.v w | o , 1.n.i.^.i.:.:.{.].^./., Y ,.`  .'.+.> (.^._.{.{.{.9.^.i.n.3., k u 0 a 1 ) s.  ",
"  r., d } d d ' , 1.n.i.^.i.:.{.{.].^./., Y ,.`  .'.+.> (.^._.{.{.{.9.^.i.n.3., k u t.a 1 ) s.  ",
"  r., ) ) ) ) , , 1.n.i.^.i.{.{.{.].^./., Y u.`  .'.+.> (.^._.{.{.{.9.^.i.n.3., k t.!.b.2 ) #   ",
"  r.' 1 c 1 2 } , 1.n.i.^.i.{.{.{.].^./., v.w.x.y.'.+.> (.^._.{.{.{.9.^.i.n.3., C N N } d , #   ",
"  r.E a u x w N , 1.n.i.^.i.{.:.:.].^./., v.z.y.y.'.+.> (.^.].:.:.{.9.^.i.n.3., , , , , , , #   ",
"  r.E b u 8.w N , 1.n.9.^.i.n.A.<.=.^./., v.z.y.y.'.+.> (.0.-.<.B.n.9.^.i.n.3., N T 1 n &., #   ",
"  r.E b u 8.b.N , 1.n.i.^.i.{.e., 4.0./., v.z.y.y.'.+.> (.0.d., |.{.9.^.i.n.3., k u 0 a 1 ) #   ",
"  r.) j 6 j 9 C , 1.n.i.^.1.~.e.C.R <.4., Y w.D. .'.+., 4.E.A.C.l.~.(.^.i.n.3., k u v b 1 ) #   ",
"  r., , , , , , , 1.n.i.^.f., l. .F., , , Y ,.`  .'.+., , > G. .H., =.^.i.n.3., k u I.b 1 ) #   ",
"  r.) ).n t &.d , 1.n.i.^.J.h.e.R e.f.<., Y ,.`  .'.+., E.f.K.R e.h.J.^.i.n.3., } t ).k 9 , [   ",
"  r.E a u L.w N , 1.n.i.^.i.n.e., 4.^./., Y ,.`  .'.+.> (.0.d., |.n.9.^.i.n.3., , , , , , , s.  ",
"  r.E b u 8.b.N , 1.n.i.^.i.{.B.=.3.^./., Y ,.`  .'.+.> (.^.3.=.M.{.9.^.i.n.3., } t ).k 9 , #   ",
"  r.E a u x w N , 1.n.i.^.i.{.{.n.].^./., Y ,.`  .'.+.> (.^._.{.{.{.9.^.i.n.3., k u I.a 1 ) #   ",
"  r.' t 1 l t d , 1.n.i.^.i.{.{.{.].^./., Y ,.`  .'.+.> (.^._.{.{.{.9.^.i.n.3., k u v b 1 ) #   ",
"  r., , , , , , , 1.n.i.0.i.{.{.{.].^./., Y ,.`  .'.+.> (.^._.{.{.{.9.^.i.n.3., k u 0 a 1 ) #   ",
"  r., 9 j 9 9 E , 1.n.i.^.i.{.{.{.].^./., Y ,.`  .'.+.> (.^._.{.{.{.9.^.i.n.3., N T 1 n &., #   ",
"  r.E w 0 a b.N , 1.n.i.^.i.{.{.{.].^./., Y ,.`  .'.+.> (.^._.{.{.{.9.^.i.n.3., , , , , , , #   ",
"  r.E b u 8.w N , 1.n.i.^.i.{.{.{.].^./., Y ,.`  .'.+.> (.^._.{.{.{.9.^.i.n.3., C 9 N o d , #   ",
"  + E b u 8.b.N , 1.n.i.^.i.{.{.{.].^./., Y ,.`  .'.+.> (.^._.{.{.{.9.^.i.n.3., k 0 !.w 2 ) #   ",
"  + E b u 8.b.N , 1.n.i.^.i.:.:.{.].^./., Y ,.`  .'.+.> (.^._.{.{.{.9.^.i.n.3., k u t.b 1 ) #   ",
"  r.E a u 8.w N , 1.n.i.^.i.n.n.n.].^./., Y Z `  ...+.> (.^._.n.n.{.i.^.i.n.3., k u I.a 1 ) %.  ",
"  r.E T 8.| T } , h.C.B.N.B.M.M.M.B.N.h., m.O.w.P.G.O > h.N.0.M.M.M.B.N.B.C.-., j 8.w T l ) D   ",
"  r., C ! C E ) , > S Q.Q.Q.S S S S Q.> , > O O O S , , > Q.S S S S Q.Q.Q.S > , ) C C E E , D   ",
"  r., , , , , , , , , , , , , , , , , , , , , , , , , , , , , , , , , , , , , , , , , , , , 4   "};
