/* XPM */
static char * floor2_xpm[] = {
"48 48 132 2",
"  	c #93DC55",
". 	c #A6DA7A",
"+ 	c #D3EAB5",
"@ 	c #F4FEEB",
"# 	c #F4FEDD",
"$ 	c #B3E384",
"% 	c #D6EDBE",
"& 	c #F2F4D6",
"* 	c #FDF6C6",
"= 	c #FAF19D",
"- 	c #E3EFBA",
"; 	c #C9ECA4",
"> 	c #ACE27B",
", 	c #B2DD80",
"' 	c #FDEE9B",
") 	c #FAEB6F",
"! 	c #FBF6CC",
"~ 	c #E2F7C7",
"{ 	c #CAECA9",
"] 	c #F5FEE6",
"^ 	c #B8E089",
"/ 	c #F3FED7",
"( 	c #F4F499",
"_ 	c #F5EC6E",
": 	c #EDE358",
"< 	c #F6F8BD",
"[ 	c #E2F8CE",
"} 	c #D5F1BB",
"| 	c #ECF5CC",
"1 	c #F6F2AB",
"2 	c #E2F2BC",
"3 	c #C6EC9E",
"4 	c #A5CA7D",
"5 	c #DEE9B5",
"6 	c #FAF6BD",
"7 	c #C0D892",
"8 	c #A5D47C",
"9 	c #99D56E",
"0 	c #FDF294",
"a 	c #F9EC65",
"b 	c #F8FBCC",
"c 	c #DAF3C1",
"d 	c #BEDB9A",
"e 	c #D6EDC3",
"f 	c #EDFDDB",
"g 	c #F4ED7B",
"h 	c #F5F7BC",
"i 	c #DCF4BA",
"j 	c #85BD4D",
"k 	c #D4E4A7",
"l 	c #FBFAD5",
"m 	c #C3D595",
"n 	c #B6D88B",
"o 	c #D5E7BB",
"p 	c #8CBB5A",
"q 	c #EAFAD6",
"r 	c #CDF0AA",
"s 	c #AEE388",
"t 	c #FBFCDD",
"u 	c #E5F2B7",
"v 	c #B9E494",
"w 	c #DEF5C9",
"x 	c #FCF5B5",
"y 	c #F8F280",
"z 	c #F5F4A4",
"A 	c #ABDC7C",
"B 	c #E5FED5",
"C 	c #EBF6E4",
"D 	c #F6EE89",
"E 	c #F1E65A",
"F 	c #F4EC84",
"G 	c #F9FEEB",
"H 	c #EAF0AF",
"I 	c #C3E893",
"J 	c #BBDB92",
"K 	c #D8E4AF",
"L 	c #F9F3AD",
"M 	c #F7EE97",
"N 	c #E7EB9B",
"O 	c #C8E0AA",
"P 	c #FDF9A8",
"Q 	c #FDEC7D",
"R 	c #ADD085",
"S 	c #F5F089",
"T 	c #F5FEF2",
"U 	c #AEDC83",
"V 	c #D2D9A3",
"W 	c #E5EAA2",
"X 	c #BBD69A",
"Y 	c #9ECA73",
"Z 	c #E6F6CC",
"` 	c #E5F5D8",
" .	c #C4E5A4",
"..	c #87BF53",
"+.	c #85C24B",
"@.	c #94BE6E",
"#.	c #B5E48B",
"$.	c #EFFFEB",
"%.	c #D3F0B5",
"&.	c #FAF7C5",
"*.	c #C1E9A6",
"=.	c #D2EFAD",
"-.	c #CAE9B3",
";.	c #FAFBE1",
">.	c #F8F2A0",
",.	c #F9E973",
"'.	c #DFF7D0",
").	c #BDE994",
"!.	c #E8EEC0",
"~.	c #F3EEA2",
"{.	c #F2E586",
"].	c #E2EDCE",
"^.	c #F8F9C7",
"/.	c #F4E454",
"(.	c #E9F7D5",
"_.	c #BCD88E",
":.	c #DAE9AA",
"<.	c #8DB75E",
"[.	c #BEE79B",
"}.	c #F9FDF6",
"|.	c #EFF9CC",
"1.	c #FAF9BA",
"2.	c #EFF3B3",
"3.	c #F9F6D0",
"4.	c #F8F48C",
"5.	c #E2F4D0",
"6.	c #EFF081",
"7.	c #EEE561",
"8.	c #F3ED9A",
"9.	c #C3DAA0",
"0.	c #CADCAD",
"a.	c #91BF72",
"                                                                . .                             ",
"                                                              + @ # $                           ",
"                                                            % & * = - ;                         ",
"        > ,                                                 @ * ' ) ! ~                         ",
"      { ] ] ^                                               / ( _ : < [                         ",
"    } | ! 1 2 3                                             4 5 ! 6 7 8                         ",
"  9 @ ! 0 a b c                                               d e %                             ",
"    f 1 g : h i                                                 j j                             ",
"      k l ! m                                                                                   ",
"      n o +                                                                                     ",
"        p j                                                                                     ",
"                                                                            $ [ q r             ",
"                                                                          s + t ! u v           ",
"                                                                          w t x y z @           ",
"                    A B C r                                               w l D E F G           ",
"                  , + t ! H I                                             J K L M N O           ",
"                  } t P Q 0 @ >                                             R # t + p           ",
"                  e l S E F T >                                               p p               ",
"                  U V x 1 W X                                                                   ",
"                    Y Z `  ...                                                                  ",
"                    +.  @.                                                                      ",
"                                                                                                ",
"                                                                                                ",
"                                                                                                ",
"                                                      r e {                                     ",
"                            .                       , q G | A                                   ",
"                          #.$./ %.                { ] &.= D / #.                                ",
"                        *.w l L H =.              -.;.>.,._ # #.                                ",
"                        '.t = Q = @               ).!.~.F {.].U                                 ",
"                        [ ^.) /.g @                   (.G | p                                   ",
"                          _.l ! :.4                     4                                       ",
"                            + o J                                                               ",
"                            p <.                                                                ",
"                                                                                                ",
"                                                                                                ",
"                                                                                                ",
"                                                                                                ",
"                                        [.).                                                    ",
"                                       .}.G {                                                   ",
"                                    c |.1.= 2.'.                                                ",
"                                    C 3.4.a ' T                                                 ",
"                                    5.h 6.7.8.q                                                 ",
"                                      9.;.t 0.a.                                                ",
"                                        d J 8                                                   ",
"                                        +.j                                                     ",
"                                                                                                ",
"                                                                                                ",
"                                                                                                "};
