/* XPM */
static char *a177448f6dc347e9bc8823f3a56a3244AXz0vXRIkGaIaCvi[] = {
/* columns rows colors chars-per-pixel */
"48 48 205 2 ",
"   c #7CCB3F",
".  c #7ECB42",
"X  c #81CB3E",
"o  c #85BD4D",
"O  c #87BF53",
"+  c #88BD53",
"@  c #8DB75E",
"#  c #8CBB5A",
"$  c #94BE6E",
"%  c #91BF72",
"&  c #81CE44",
"*  c #85C24B",
"=  c #86CA4C",
"-  c #8CCD4D",
";  c #84D246",
":  c #8DD446",
">  c #85D44A",
",  c #8BD44C",
"<  c #86D949",
"1  c #8DDC4C",
"2  c #92D44D",
"3  c #93DD4D",
"4  c #8AC553",
"5  c #8DCC52",
"6  c #8FC55D",
"7  c #8ECB59",
"8  c #90CF52",
"9  c #90C25D",
"0  c #93CF5B",
"q  c #9BCE5F",
"w  c #8ED452",
"e  c #8EDC53",
"r  c #8EDD59",
"t  c #92D554",
"y  c #93DC55",
"u  c #99DA54",
"i  c #93D55B",
"p  c #9BD75C",
"a  c #93DC5A",
"s  c #9AD95C",
"d  c #8DE04F",
"f  c #91E04F",
"g  c #93C462",
"h  c #9ECD6C",
"j  c #9BC26B",
"k  c #97D763",
"l  c #9BD664",
"z  c #94DB61",
"x  c #9BDA62",
"c  c #9BD66C",
"v  c #9DDC6B",
"b  c #9ECA73",
"n  c #9DD870",
"m  c #9BD376",
"M  c #A1CE6F",
"N  c #A0D760",
"B  c #A2DA66",
"V  c #A2D76B",
"C  c #A9D46F",
"Z  c #A3DC6A",
"A  c #A9DC68",
"S  c #A3C775",
"D  c #A2CA75",
"F  c #A5CA7D",
"G  c #A5DC73",
"H  c #AADC75",
"J  c #A5D47C",
"K  c #A6DA7A",
"L  c #ABDC7C",
"P  c #A3D374",
"I  c #ACE27B",
"U  c #A6E574",
"Y  c #EDE358",
"T  c #F1E65A",
"R  c #F4E454",
"E  c #EEE561",
"W  c #EAE26F",
"Q  c #F9EC65",
"!  c #F5EC6E",
"~  c #FAEB6F",
"^  c #F1EA64",
"/  c #F4ED7B",
"(  c #FDEC7D",
")  c #F9E973",
"_  c #ADD085",
"`  c #AEDC83",
"'  c #B2DD80",
"]  c #B6D88B",
"[  c #BCD88E",
"{  c #BDD590",
"}  c #BBDB92",
"|  c #BEDB9A",
" . c #BBD69A",
".. c #AEE081",
"X. c #AEE388",
"o. c #B3E384",
"O. c #B5E48B",
"+. c #B8E089",
"@. c #BDE994",
"#. c #BEE79B",
"$. c #BEE99D",
"%. c #B9E494",
"&. c #C3D595",
"*. c #C0D892",
"=. c #C6EC9E",
"-. c #C3E893",
";. c #F4EC84",
":. c #F6EE89",
">. c #F8EF88",
",. c #F2E586",
"<. c #EFF081",
"1. c #F8F280",
"2. c #F5F089",
"3. c #F8F48C",
"4. c #E7EB9B",
"5. c #F7EE97",
"6. c #FDEE9B",
"7. c #F3ED9A",
"8. c #FDF294",
"9. c #FAF19D",
"0. c #F4F499",
"q. c #C3DAA0",
"w. c #CADCAD",
"e. c #D2D9A3",
"r. c #C4E5A4",
"t. c #C9ECA4",
"y. c #C8E0AA",
"u. c #C7EAA9",
"i. c #CAECA9",
"p. c #C1E9A6",
"a. c #D4E4A7",
"s. c #D1EAA7",
"d. c #D8E4AF",
"f. c #D2EFAD",
"g. c #DAE9AA",
"h. c #CDF0AA",
"j. c #CAE9B3",
"k. c #D3EAB5",
"l. c #DEE9B5",
"z. c #D5E7BB",
"x. c #D6EDBE",
"c. c #D3F0B5",
"v. c #D5F1BB",
"b. c #DCF4BA",
"n. c #EBEFAA",
"m. c #E5EAA2",
"M. c #F3EEA2",
"N. c #EAF0AF",
"B. c #F8F2A0",
"V. c #F6F2AB",
"C. c #F9F3AD",
"Z. c #FDF9A8",
"A. c #F5F4A4",
"S. c #E3EFBA",
"D. c #E5F2B7",
"F. c #EFF3B3",
"G. c #E2F2BC",
"H. c #F2F0B0",
"J. c #FCF5B5",
"K. c #F5F7BC",
"L. c #FAF6BD",
"P. c #F6F8BD",
"I. c #FAF9BA",
"U. c #D6EDC3",
"Y. c #DCEEC8",
"T. c #DAF3C1",
"R. c #DEF5C9",
"E. c #D8F5C7",
"W. c #DFF7D0",
"Q. c #E8EEC0",
"!. c #E2EDCE",
"~. c #E2F7C7",
"^. c #E6FFC6",
"/. c #E6F6CC",
"(. c #ECF5CC",
"). c #E2F8CE",
"_. c #EFF9CC",
"`. c #FDF6C6",
"'. c #FAF7C5",
"]. c #F8F9C7",
"[. c #FAF7CD",
"{. c #FBF6CC",
"}. c #F8FBCC",
"|. c #E2F4D0",
" X c #E5FED5",
".X c #EAFAD6",
"XX c #E5F5D8",
"oX c #E9F5DC",
"OX c #EDFDDB",
"+X c #E9F7D5",
"@X c #F9F6D0",
"#X c #F3FED7",
"$X c #FBFAD5",
"%X c #F4FEDD",
"&X c #FBFCDD",
"*X c #F2F4D6",
"=X c #EDFDE4",
"-X c #EFFFEB",
";X c #EBF6E4",
":X c #F5FEE6",
">X c #FAFBE1",
",X c #F4FEEB",
"<X c #F9FEEB",
"1X c #F5FEF2",
"2X c #F9FDF6",
/* pixels */
"y 3 3 y a y y y y y y e r y y y y y y y y y y y : w y a a 1 y B K K x a y y y y y y y y y y A a.",
"a y a a y 3 a y y y w   1 y y y y y y y y y y y y a y a y y k k.,X%Xo.p a y y y y t - y a c  X>X",
"y r > 1 y s a a y a r , y y y y y y y y y y y t y y y a y Z x.*X`.9.S.t.a y y y y t t y y p =X{.",
"a y & a I ' x y y y a y y y y y y y y y y y y y y e e r y H ,X`.6.~ {.~.x y y y y y y y y x v.n.",
"y 3 p i.:X:X+.p y y y a y y y , , y y y y y y y y >   e y H #X0.! Y P.).a y y y y y y y e a O { ",
"r c v.(.{.V.G.=.x y y y y y y t t y y y y y y y y e 1 y a x F l.{.L.*.J y y y y y y y y a 1 w h ",
"1 m ,X{.8.Q }.T.c a y y y y y y t y y y y y y y y y y y t t 4 | U.x.M 5 y y y a a y y a a 3 t i ",
"y n OXV./ Y K.b.l a y y a y y y y y y y y y y y y y y y y y y 4 o o 0 a y y y y y y y y y y y y ",
"y k D a.$X{.&.b a y y y a y y y y y y y y y y y y y y y y y t t i t t 2 y y y y y y y y y y y y ",
"y a - ] z.k.D 5 y y y y y y y y y y y y y y y y y y y y y y y y y y t , y y y y y y y y e w y y ",
"y a 3 6 # o 0 y y y a a y y y y y y y y y y y y y y y y y y y y y y a a a a z x l x a r , . y y ",
"a y y a t t a y y y a a y y y y y y y y y y y y y y y y y y y y y y y y y y o.)..Xh.y y t y y y ",
"a y y 3 3 y a y a t a y y y a y y y y y y y y y y y y y y y y y y y y y y X.k.&X{.D.%.x y y y y ",
"y y y y y a a y y a z s p u k a y a y y y y y y y y y y y y y y y y y y a R.&XJ.1.A.,XG y y y y ",
"y a a y y 3 y 2 2 2 L  X;Xh.u y r a 3 t , t y y y y y y y y y ; & y y y a R.$X:.T ;.<XG y y y y ",
"y a a a y y y y t ' k.&X{.N.-.v r a y t w t y y y y y y y y y , , y y y a } d.C.5.4.y.l y y y y ",
"l x a a r r y a s v.&XZ.( 8.,XI a a y y y y y y y y y y y t t y y y y y y 4 _ %X&Xk.# t y y y y ",
"=X^.N 3 3 y y a a U.$X2.T ;.1XI a y y y y y y y y y y y y y & , y y y y y y i # # 6 y y y y y y ",
"'.F.s...a y y y y ` e.J.V.m. .x y y y y y y y y y y y y y y , e y y y y y t t 5 7 w a , w y y y ",
">./ &X$.a a y y y = b /.XXr.O t a y y y y y y y y y a y y y r y y y y y y y y y a y t . > y y y ",
"^ W $X$.a y y y e ; * g $ g y y a a y y y y y y , 2 y y y a a y y y y y y y y y y y y e e y y y ",
"C.H.&.K a y y y r < > - - 2 3 y a a y y y y y y 2 2 y r a y 3 y y y y y y y y y y t y > 1 y y y ",
"oXR.# , y a y y y y y y y y y a a y y y y y y y a a r r a a f y y y y y y y y y y t y & > y y y ",
"# O a a y y 3 y a y y a a a a a y y y y y y y y a a 3 3 u a y y y y y y y y y y y t y y y y y y ",
"8 : a a y y y a y y 3 y y y a y y y a y y y y y y y v h.U.i.x y y y y y y y y y y y t y y e > , ",
"y y a a y y y y y y y y y a K G Z y r y e y y y y v ' .X<X(.L v y r e 2 y y y y y y y y y a & > ",
"y y y y y y y y y y y a s O.-X#Xc.p a > . e y y y i.:X'.9.:.#XO.y r ; X y y y y y y y y y a e d ",
"y y y y y y 2 t y y a a p.R.$XC.N.f.v e , y y y a j.>XB.) ! %XO.y a 1 , a y y y y y y a y a y 1 ",
"y y y y y y 2 t a y a k W.&X9.( 9.,XG y y y y y a @.Q.M.;.,.!.` y a 3 y a y y y y y y y y y a 3 ",
"y y y y y y y y a y y a ).].~ R / ,XG y y y y y y = j +X<X(.# 0 3 a y y y y y y y y y y y y a 3 ",
"y y y y y y y y y y y y h [ $X{.g.F a y y y y y t t q b F S i y 3 a a y y y y y y y y y y y z y ",
"3 y y y y y y y y y y y 5 h k.z.} 4 t y y y y y y y y = = - t y y a a y y y y y y y y y y y a a ",
"y y y y y y y y y y y y t i # @ 9 a y y y y y y y y y y y y t y y y y y y y y y y y y y y y y t ",
"p y a y y y y y y y y y y t w i t y y y y y y y y y y y y y y y y y y y y y y y y y y a y y ; , ",
"G y a e , a y y y y y y y y y y y y y t y y y y y y y y y y y y y y y y y y y y y y y y y r & , ",
"$.3 a ; X a y y y y y y y y y y y y y t , t y y y y y y y y y y y y y y y y y y y y y y y y y y ",
"p.3 r e 2 a y y y y y y y y y y y y y y y y y y y y y y y y y y y y y y y y y , t y y y y y a y ",
"` y a y y a y y y y y y y a y y a y y H #.@.U y t y y y y y y y y y y y y y t w t y y y y y y a ",
"5 a a y y y y y y y y y y a 3 y a y x r.2X<Xi.c y y y y y y y y y y y y y y y y y y y y y y y y ",
"a a y y y y y y y y y y y y y a y s T._.I.9.F.W.a y y y y y y y y y y y y y y y y y y y y y y y ",
"t t y y y y y y y y y y y 2 , r 3 B ;X@X3.Q 6.1Xa y y y y y t t y y y y y y y y y y y y y y y y ",
"t t t y y y y y y y y y y ,   e y x |.K.<.E 7..Xy y y y y y , t y y y y y y y y y y y y y y y y ",
"> . y y y y y y y y y y y a 3 t a y g q.>X&Xw.% a y y y y y t t y y y y y , 2 t y y y y y y y > ",
"w , y y y y y y y y r ; e a y y a y , P | } J - y y y y y y y y y y y y y t t y y y y y a y y , ",
"y y y y y y a a y r e   1 y a y y y a w * o 5 a y y y y y y y y y y y y y y y y y y y a y y Z K ",
"y y y y y y y a y a 3 a y y y y y y y y i i a y y y y y y y y y y y y y y y y y y y y y y l  X=X",
"y y y y y y y a x %.=.u.Z y y y y y y y y a y y y a a a a a a a y y y y y y y y y y y y L j.}.I.",
"y y y y y y 3 u C Y.<X:X[ V y y y y y y y y y y y y 3 3 y y a a a y y y y y y y y y y p r.<XJ.6."
};
