/* XPM */
static char * perso_left_xpm[] = {
"48 48 221 2",
"  	c #93DC55",
". 	c #B5E388",
"+ 	c #CFF0B5",
"@ 	c #A8DA77",
"# 	c #DCF4C5",
"$ 	c #F9FDE5",
"% 	c #F8F8C6",
"& 	c #C9E696",
"* 	c #92A653",
"= 	c #8D9439",
"- 	c #8D8950",
"; 	c #929753",
"> 	c #E6F8D3",
", 	c #F8FBD9",
"' 	c #FCF6B9",
") 	c #F7EC89",
"! 	c #A9E278",
"~ 	c #C9E9A9",
"{ 	c #B0D77D",
"] 	c #B3906A",
"^ 	c #A9673A",
"/ 	c #926F4E",
"( 	c #B2704C",
"_ 	c #B1D389",
": 	c #F3E968",
"< 	c #D6F1B9",
"[ 	c #956C2F",
"} 	c #D1A38C",
"| 	c #FECDBB",
"1 	c #FBC8B5",
"2 	c #FB9B8B",
"3 	c #EB6B55",
"4 	c #8EA751",
"5 	c #EAF0AD",
"6 	c #F5EC78",
"7 	c #A38847",
"8 	c #CE916E",
"9 	c #CE4F70",
"0 	c #B02A51",
"a 	c #96312F",
"b 	c #904C4E",
"c 	c #8F6151",
"d 	c #D4E5A8",
"e 	c #B3D588",
"f 	c #EEFCE8",
"g 	c #E7F5C8",
"h 	c #99701B",
"i 	c #F9C7AA",
"j 	c #AD4C2A",
"k 	c #EF5165",
"l 	c #B24970",
"m 	c #962C63",
"n 	c #963164",
"o 	c #990956",
"p 	c #961555",
"q 	c #D4ECB6",
"r 	c #F2EF92",
"s 	c #FD726C",
"t 	c #970447",
"u 	c #8C0D4C",
"v 	c #D28BB1",
"w 	c #F5E5EE",
"x 	c #EAB2D0",
"y 	c #EC4EA1",
"z 	c #FD57AD",
"A 	c #CF4B8F",
"B 	c #903152",
"C 	c #D02F4F",
"D 	c #CA2D78",
"E 	c #B96E92",
"F 	c #F6CFC8",
"G 	c #FEFEFF",
"H 	c #FAABD3",
"I 	c #FB7ABA",
"J 	c #8C7C53",
"K 	c #8BBC54",
"L 	c #9A3739",
"M 	c #A4024C",
"N 	c #ED328A",
"O 	c #FA85BC",
"P 	c #FEF4FC",
"Q 	c #FC63AE",
"R 	c #FD64B1",
"S 	c #FC6CAE",
"T 	c #B11854",
"U 	c #FA4BA6",
"V 	c #74544C",
"W 	c #BB176F",
"X 	c #FF55B1",
"Y 	c #A91551",
"Z 	c #BAE597",
"` 	c #ABE282",
" .	c #FAE8F5",
"..	c #EE4996",
"+.	c #FBF2A8",
"@.	c #FD5CB2",
"#.	c #FDC8E7",
"$.	c #F8D6E9",
"%.	c #DFB1CB",
"&.	c #9B0453",
"*.	c #E36DA8",
"=.	c #F18DCF",
"-.	c #FB3797",
";.	c #F67AC1",
">.	c #F4D3EA",
",.	c #B75189",
"'.	c #AF6A6A",
").	c #FA0578",
"!.	c #F20172",
"~.	c #FE3FA1",
"{.	c #FDC5F4",
"].	c #C7569C",
"^.	c #98154B",
"/.	c #CBD19A",
"(.	c #A5C876",
"_.	c #B49987",
":.	c #FB1782",
"<.	c #D70164",
"[.	c #B80158",
"}.	c #F8026D",
"|.	c #E80267",
"1.	c #C70B5B",
"2.	c #FEBEF4",
"3.	c #8E9857",
"4.	c #E3016B",
"5.	c #A20252",
"6.	c #FE6767",
"7.	c #DE3E65",
"8.	c #FEBDF8",
"9.	c #87B34B",
"0.	c #D42D84",
"a.	c #753333",
"b.	c #F6918C",
"c.	c #FF7E80",
"d.	c #F86D72",
"e.	c #290D12",
"f.	c #F0BDB6",
"g.	c #8F726A",
"h.	c #160E0B",
"i.	c #D6ADAE",
"j.	c #FFA69B",
"k.	c #FA67B7",
"l.	c #F7ABE4",
"m.	c #A8296C",
"n.	c #A80357",
"o.	c #971B65",
"p.	c #93B855",
"q.	c #A94C55",
"r.	c #EEC1B0",
"s.	c #FEB9AB",
"t.	c #EE0B79",
"u.	c #975715",
"v.	c #FED2BC",
"w.	c #FFCDC1",
"x.	c #E8554D",
"y.	c #A54718",
"z.	c #940C3C",
"A.	c #E7479B",
"B.	c #EDB699",
"C.	c #EDA68E",
"D.	c #D66A4E",
"E.	c #CC4D32",
"F.	c #AF231C",
"G.	c #AC093A",
"H.	c #D7504D",
"I.	c #927751",
"J.	c #97540B",
"K.	c #B0312B",
"L.	c #CD0134",
"M.	c #CB0339",
"N.	c #C81736",
"O.	c #A65313",
"P.	c #955954",
"Q.	c #B71B26",
"R.	c #B1682E",
"S.	c #B2651B",
"T.	c #F61057",
"U.	c #E83767",
"V.	c #F78672",
"W.	c #9B4426",
"X.	c #CD0D6E",
"Y.	c #D50D51",
"Z.	c #E05B3F",
"`.	c #E98B31",
" +	c #CC2C36",
".+	c #F8295C",
"++	c #C95A35",
"@+	c #F0B852",
"#+	c #F9DB5F",
"$+	c #CD0844",
"%+	c #FCC96E",
"&+	c #CD6EAB",
"*+	c #D25AA5",
"=+	c #A4B862",
"-+	c #6B0F34",
";+	c #70A441",
">+	c #0C0305",
",+	c #567C33",
"'+	c #273918",
")+	c #020102",
"!+	c #5D592B",
"~+	c #D3AB57",
"{+	c #7F0046",
"]+	c #37200C",
"^+	c #231408",
"/+	c #924E17",
"(+	c #47270F",
"_+	c #3B5623",
":+	c #6D4713",
"<+	c #11160B",
"[+	c #643515",
"}+	c #D6D89E",
"|+	c #A41469",
"1+	c #2D461C",
"2+	c #BFE3A3",
"3+	c #69A33D",
"4+	c #1A2710",
"5+	c #7AB749",
"6+	c #4B712C",
"7+	c #65933A",
"8+	c #679841",
"                                                              . + + @                           ",
"                                                              # $ % &                           ",
"                            * = = - ;                       > , ' ) % +                         ",
"      ! ~ ~               { ] ^ / ^ ( _                   { , ' ) : ' #                         ",
"    { < $ , ~             [ } | 1 2 3 ^ 4                   < 5 ) 6 5 ~                         ",
"    > , ' ) % <       = 7 8 8 8 2 9 0 a b c c c c c -         d $ , e                           ",
"    f ' 6 : ' g       h ^ i ( j k l m n n m m m o p b           _ _                             ",
"    q 5 r ) 5 ~       h j s 0 t u v w w w w w x y z A B B b                                     ",
"      d $ $ _         h j C D 9 E F G G G G G w H I y D D l J K                                 ",
"        _ _           [ L M N O P G G G G G G G P O Q R S y p -                                 ",
"                      b T y U O P G G G G G G G P O Q R R Q y l V             . . @             ",
"                      B W X X O P G G G G G G G P O Q R R Q Q D Y J K       Z , $ q             ",
"                  `   B W X X I  .G G G G G G G  .O Q Q Q R S ..D u -     ~ g % +.5 < @         ",
"                  4 B A y X @.R O #.G G G G G #.O R @.@.z I $.$.%.p J     # , +.: +.$ {         ",
"                  - &.*.=.@.X U -.I H H H H H I -.U X @.;.H G G >.,.'.*   < % ) : r > @         ",
"                  ] &.x #.Q X U ).!.!.!.!.!.!.!.).~.X @.#.G G G P {.].^.    /., % d (.          ",
"                  _.&.%.#.:.:.:.).<.[.[.[.[.[.<.).).:.:.H G G  .{.{.].p       ~ d e             ",
"                  _.&.%.H !.}.}.|.1.T T T T T 1.|.!.}.!.H P P $.2.{.].^.        K               ",
"                  3.u =.=.}.}.4.5.C 6.6.6.6.6.7.M 4.}.!.=.{.2.2.2.8.].^.                        ",
"                  9.- ,.0.!.<.1.7.L a.2 '.a.b.c.7.1.<.!.=.8.2.2.2.8.].^.                        ",
"                      b Y 4.[.T d.a.e.f.g.h.i.j.6.C [.4.k.l.2.2.2.l.E B                         ",
"                        ; 5.t m.f.V e.f.g.h.i.j.6.6.7.n.<.-.2.8.l.o.J                           ",
"                        p.a a q.1 _.g.1 } g.r.s.2 s k M <.t.].].E J p.                          ",
"                        p.[ u.^ 1 v.w.r.1 w.| | 1 d.k M <.4.5.n.m p.                            ",
"                            [ ^ i v.s.^ 8 | w.v.1 s x.y.z.[.!.N A.Y p p ^./                     ",
"                            7 u.8 B.1 8 C.| w.s.2 D.E.F.G.M C H.9 M [.1.D l I.J I.I.I.3.        ",
"                          ~ ] J.y.8 1 i i i 1 2 3 j K.L.M.N.O.j L z.1.).U 0.&.&.&.o p P.        ",
"                        + , ] y.Q.j R.^ ^ ^ R.S.y.Q.M.T.U.s B.V.D.W.C }.).X.5.<.A.>.>.i.B *     ",
"                        # % D.Q.M.E.S.K.K.K.F.O.S.N.Y.<.H.3 j.2 V.H.C Y.<.[.M |...#.P %.u ;     ",
"                        ~ 5 H.L.}.Z.`.Q.Y.|.L. +`..+<.t a j 6.j.s.s ++y.^.&.n.4.:.@.$.%.u 3.    ",
"                          e 9 N.V.Z. +N -.-.M.Z.@+.+Y.a 8 B.s.1 s.s ++u.* P.o ;.k.:.-.0.&.;     ",
"                            q. +#+Z.M.U X U $+x.%+H.C ( B.v.v.| s.s ++u.  ; b &+*+<.<.1.b 4     ",
"                            j  +%+x.$+U z U $+H.%+R.( 1 | w.v.w.s.s ++h       B &.t t b         ",
"                        K b ^.G. +k ..X X z N 7.E.O.R.b.s.w.w.j.V.++8 =+      * ; ; ; 4         ",
"                        4 -+-+z.G.D A.A.A.y X N N.K.j 3 2 s.s.V.D.( =+                          ",
"                        ;+>+>+e.t &.&.&.5.n.y X U $+Q.O.D.6.6.++( d                             ",
"                      ,+'+)+!+^ a z.o &+v v D W D 0.U.C E.++++ +C l *                           ",
"                      '+)+)+I.~+u.a Y =.>.w l m.m.A.N 4.0 W.W.Y.<.{+J                           ",
"                      '+)+)+h.]+J.y.L p &+#.w  .$.m.&.5.t z.t M u e.,+                          ",
"                      '+)+)+)+^+/+O.W.t m.].&+%.w &+*+*+&+].&.^.a (+_+,+                        ",
"                      '+)+)+)+^+:+J.W.t o ^.^.,.l.l.l.l.l.=.t L u.u.(+<+                        ",
"                      '+)+)+)+>+h.[+W.t '.}+/.E |+|+|+|+|+0 W.J.J.J.(+<+                        ",
"                      ,+1+)+)+)+)+]+[+P.i., 2+3.P.P.P.P.-+-+J.J.J.u.(+<+                        ",
"                        3+<+)+)+)+)+4+K                 1+^+/+u.O.u.(+<+                        ",
"                          5+'+)+)+6+5+                    7+^+7 @+u.(+<+                        ",
"                            ,+1+1+3+                      5+_+,+7 :+_+_+                        ",
"                                                              _+>+>+,+                          ",
"                                                              5+8+7+5+                          "};
