/* XPM */
static char * perso_front_xpm[] = {
"48 48 222 2",
"  	c #93DC55",
". 	c #B5E388",
"+ 	c #D3EDB7",
"@ 	c #DCF1C2",
"# 	c #F8FDE4",
"$ 	c #F8F8C6",
"% 	c #C9E696",
"& 	c #909A54",
"* 	c #92A855",
"= 	c #E6F8D3",
"- 	c #F9FADA",
"; 	c #FCF5B9",
"> 	c #F7EC89",
", 	c #ABE179",
"' 	c #CAE8A9",
") 	c #928854",
"! 	c #8D0B51",
"~ 	c #922E51",
"{ 	c #F3E968",
"] 	c #D4F1B8",
"^ 	c #8E8952",
"/ 	c #8C454E",
"( 	c #B3476C",
"_ 	c #DF4994",
": 	c #DD4792",
"< 	c #D24689",
"[ 	c #8D4752",
"} 	c #A76C74",
"| 	c #F1EE94",
"1 	c #F5EC78",
"2 	c #E9EFAD",
"3 	c #92B354",
"4 	c #964F57",
"5 	c #A71B67",
"6 	c #D03D88",
"7 	c #FF65B0",
"8 	c #FB82B9",
"9 	c #FF8BC3",
"0 	c #FD75B7",
"a 	c #F858A3",
"b 	c #A81D66",
"c 	c #A72469",
"d 	c #C7A49A",
"e 	c #EDE8CD",
"f 	c #B0D58A",
"g 	c #F6E95E",
"h 	c #E7F5C8",
"i 	c #92BC55",
"j 	c #8D1651",
"k 	c #C6397D",
"l 	c #FE62AD",
"m 	c #FF6BB2",
"n 	c #FFDAEC",
"o 	c #FFFEFF",
"p 	c #FC9CCF",
"q 	c #FC5EAA",
"r 	c #ED579D",
"s 	c #951557",
"t 	c #9F736F",
"u 	c #F7CDE8",
"v 	c #FEF4FA",
"w 	c #FFB4D8",
"x 	c #8D5152",
"y 	c #FFA6D1",
"z 	c #FDE8F5",
"A 	c #991E63",
"B 	c #929554",
"C 	c #8E6651",
"D 	c #8B0C4F",
"E 	c #D177AD",
"F 	c #FBAAD5",
"G 	c #8E5C51",
"H 	c #9B2866",
"I 	c #D6AAC2",
"J 	c #FBF1F6",
"K 	c #A8467B",
"L 	c #BAE597",
"M 	c #F7EFEC",
"N 	c #C98BAD",
"O 	c #C8CEAC",
"P 	c #FBF2A8",
"Q 	c #A63474",
"R 	c #FBD9F3",
"S 	c #F54797",
"T 	c #F53E90",
"U 	c #EF4592",
"V 	c #F495BD",
"W 	c #DACAC1",
"X 	c #AB2A71",
"Y 	c #F5B9EA",
"Z 	c #EC1B74",
"` 	c #E2116B",
" .	c #FACBF4",
"..	c #E81972",
"+.	c #CE1165",
"@.	c #990A55",
"#.	c #AB0C5A",
"$.	c #EE3587",
"%.	c #99A069",
"&.	c #C0D899",
"*.	c #D4E8AC",
"=.	c #AD8786",
"-.	c #B96B90",
";.	c #E8A5D9",
">.	c #F285C3",
",.	c #E70D68",
"'.	c #B9175B",
").	c #B63059",
"!.	c #B92D59",
"~.	c #D30D63",
"{.	c #DA90C6",
"].	c #8BAD51",
"^.	c #E6C3B8",
"/.	c #EA126A",
"(.	c #BD365A",
"_.	c #FF746B",
":.	c #F56865",
"<.	c #E65E66",
"[.	c #F263AA",
"}.	c #EFAFE1",
"|.	c #87B952",
"1.	c #B29078",
"2.	c #CF2D70",
"3.	c #A8145A",
"4.	c #DC5758",
"5.	c #F69189",
"6.	c #FDAAA0",
"7.	c #552E22",
"8.	c #694A45",
"9.	c #FDB9AB",
"0.	c #D69885",
"a.	c #363014",
"b.	c #EF257A",
"c.	c #FC998C",
"d.	c #F9C7B6",
"e.	c #2B2421",
"f.	c #4C5133",
"g.	c #FFD3C3",
"h.	c #B9988C",
"i.	c #020202",
"j.	c #8E0551",
"k.	c #8D3B51",
"l.	c #F0C2AC",
"m.	c #EBBCA7",
"n.	c #F2897C",
"o.	c #EEB09C",
"p.	c #EB6C5B",
"q.	c #954833",
"r.	c #C86644",
"s.	c #FB7A6E",
"t.	c #D4A383",
"u.	c #935823",
"v.	c #B67754",
"w.	c #C7344A",
"x.	c #BE1261",
"y.	c #B3334A",
"z.	c #923836",
"A.	c #B33B3B",
"B.	c #8E5321",
"C.	c #A25C2B",
"D.	c #CC6E57",
"E.	c #AB5533",
"F.	c #90591F",
"G.	c #A53937",
"H.	c #9E6B35",
"I.	c #97622A",
"J.	c #8E5A22",
"K.	c #8E5A1F",
"L.	c #A66A39",
"M.	c #D66A94",
"N.	c #8B1648",
"O.	c #D09D7C",
"P.	c #CA8866",
"Q.	c #CC9876",
"R.	c #94174A",
"S.	c #BA8C52",
"T.	c #986832",
"U.	c #916F54",
"V.	c #8E3E2F",
"W.	c #EDC7D9",
"X.	c #F4569C",
"Y.	c #CF155B",
"Z.	c #C1673C",
"`.	c #B04F87",
" +	c #CE894C",
".+	c #EEBE63",
"++	c #BA2936",
"@+	c #CC255C",
"#+	c #EA4A8A",
"$+	c #B50E38",
"%+	c #E6905C",
"&+	c #E4B355",
"*+	c #AF762C",
"=+	c #D1AB55",
"-+	c #F7C968",
";+	c #C1303B",
">+	c #D49638",
",+	c #B3598C",
"'+	c #9D476A",
")+	c #92C355",
"!+	c #8A2549",
"~+	c #9F1E3D",
"{+	c #91C84D",
"]+	c #92D555",
"^+	c #A40B58",
"/+	c #8A064D",
"(+	c #7BB649",
"_+	c #730941",
":+	c #466A29",
"<+	c #120D07",
"[+	c #7C4C1B",
"}+	c #5C3B16",
"|+	c #0B0402",
"1+	c #28160A",
"2+	c #15230D",
"3+	c #3B601E",
"4+	c #6D6632",
"5+	c #8F7A3E",
"6+	c #65953B",
"7+	c #0A0B05",
"8+	c #14180C",
"9+	c #4D752E",
"                                                              . + +                             ",
"                                                              @ # $ %                           ",
"                                      & & & & & & & & *     = - ; > $ +                         ",
"      , ' '                         ) ! ! ! ! ! ! ! ! ~     - ; > { ; @                         ",
"      ] # - '                 ^ / / ( _ : : : : : : _ < [ [ } | > 1 2 '                         ",
"    = - ; > $ ]             3 4 5 5 6 7 8 9 9 9 9 9 0 a b 5 c d e - f                           ",
"    # ; 1 g ; h           i j k l l l m n o o o o o p q q l r s t f                             ",
"    + 2 | > 2 '         ^ 4 < r l l 9 u v o o o o o n w 7 l q : ( x i                           ",
"      ' # # f         i 4 b q l l l y o o o o o o o o z m l l 7 6 A B                           ",
"        f f         3 j < q l l l l y o o o o o o o o n m l l l q r s C                         ",
"                    3 D E w m l l l y o o o o o o o o z m l l l 9 F A G       . .               ",
"                    * H I v 8 m l l p v o o o o o o v n m l l 0 w J K C     L - # +             ",
"                  G K u J o v y l l m 0 z o o o o o y 0 7 l 0 n v o M N ~ O h $ P 2 ]           ",
"                  / Q R v o o w q S T U 8 V V V V V a T T a 0 v o o v N j W - P { P #           ",
"                  / X Y z o o F a Z ` ` ` ` ` ` ` ` ` ` ` T 0 z o v  .E j O $ > { | =           ",
"                  [ X Y  . . .0 Z ..+.@.@.@.@.@.@.@.@.#.` Z $.Y  . . .E D %.&.- $ *.            ",
"                  =.-.E ;.Y >.U ,.+.'.).).).).).).).).!.+.~.Z 0 p Y {.-.G ].  ' *.f             ",
"                  ] ^.j E F Z /.` @.(._.:._._._._.:._.<.s +./.,.[.}.A G         |.              ",
"                    1.! 2.$./.+.3.4.5.6.7.8.9.9.0.a.1.6.<.!.#.,.b.$.@.G                         ",
"                    ].[ '.~.~.#.s :.c.d.e.f.g.g.h.i.=.d._.(.j.+.~.+.k.^                         ",
"                      |.x j.! ! s :.c.d.e.f.g.g.h.i.=.d._.(.! ! ! j i                           ",
"                        G s < X s :.c.d.h.d g.g.l.=.m.9._.(.s < X j i                           ",
"                      3 [ s S 2.3.4.n.9.d.d.o.o.m.g.d.6.p.(.3.S k j B                           ",
"                    3 j ! @.` /.` q.r.s.d.t.u.u.v.d.c.p.u.w././.x.! D C                         ",
"                  ^ 4 < y.z.A.A.A.B.C.r.n.c.t.t.t.c.D.E.F.q.A.A.G.z.k ( C                       ",
"              i i k.3.r v.H.H.I.F.H.I.u.4.n.l.l.o.:.E.J.H.u.K.H.H.L.M.k D B i i                 ",
"            / j j D N.u.O.d.d.P.I.m.Q.B.R.~ I.I.q.s q.L.l.S.T.m.d.m.L.z.! j j j *               ",
"        3 U.=.N N k '.B.t.g.g.Q.u.5.P.B.N.R.y.y.y.! V.L.c.v.T.d.g.d.H.G.x.-.N N t ^             ",
"        ^ ! W.o v X.Y.B.O.g.g.Q.C.p.r.u.R.#.Z Z +.! q.L.p.Z.L.d.g.d.H.A.Z W.o o `.k.            ",
"        ^ s W.n 0 $.Y.B.t.g.g.c.p.C. +.+++@+a q #+$+%+&+C.r.s.d.g.d.H.A./.q y o `.k.            ",
"        ^ ! E 8 T X._ z.v.O.O.P.r.*+=+-+;+@+l 7 #+$+%+-+*+Z.D.Q.O.Q.q.( a S X.V X k.            ",
"        B j ~./.` >.{.s q.K.B.B.u.>+&+-+;+@+l l #+$+%+-+>+*+B.B.J.J.N.,+}.$.,.,.3./             ",
"          3 ~ @.@.5 '+3 )+].!+N.N.++++w.#+X.l l q X.w.++++~+N.N.U.{+i U.c @.@.@.)               ",
"            U.x x x U.  3 ) 3.#.#.@+@+@+a 7 l l l 7 2.@+@+'.#.#.4 & ]+* x x x x 3               ",
"                        G @.` ` ..a l l l l l l l l l l l $.` ` x.j i                           ",
"                        G j.^+^+^+b b b b b c c c b b b b 3.^+^+@.j i                           ",
"                        U.k./ !+! Q K K K Q D D s K K K Q A D k./ x                             ",
"                              U.s ;.R v o I ! /+K J o J  .,+!+                                  ",
"                              i ) `.`.,+,+K ! ! A ,+,+,+`.t *                                   ",
"                                (+!+N.N.N.N._+_+_+N.N.N.N.C (+                                  ",
"                              :+<+[+B.B.B.}+|+i.1+B.B.B.B.a.2+                                  ",
"                            3+4+5+u.F.F.u.}+i.i.1+K.F.F.F.T.5+:+6+                              ",
"                          (+7+4+&+J.[+[+[+}+8+8+a.[+[+[+[+S.=+<+:+                              ",
"                          (+7+|+<+|+|+|+|+a.|.  6+7+|+|+|+<+<+i.:+                              ",
"                            9+:+:+:+:+:+:+6+      :+:+:+:+:+:+:+6+                              ",
"                                                                                                ",
"                                                                                                ",
"                                                                                                "};
