/* XPM */
static char *f61d1873c46e4953b49156d9de08b0e0Cf3W9nzwsLFgLg7S[] = {
/* columns rows colors chars-per-pixel */
"48 48 242 2 ",
"   c #000000",
".  c #0D0605",
"X  c #130D0B",
"o  c #11180A",
"O  c #261608",
"+  c #351C10",
"@  c #1D2B11",
"#  c #38250E",
"$  c #2C2614",
"%  c #263816",
"&  c #312724",
"*  c #553916",
"=  c #400122",
"-  c #6F083E",
";  c #473B36",
":  c #72242E",
">  c #304A1C",
",  c #774A19",
"<  c #4E5324",
"1  c #77452E",
"2  c #51742F",
"3  c #7F094A",
"4  c #7A645C",
"5  c #B40B34",
"6  c #BE0C3C",
"7  c #B61537",
"8  c #8F2E36",
"9  c #8F3A32",
"0  c #A82E2F",
"q  c #C4393E",
"w  c #8D561E",
"e  c #8F591F",
"r  c #90581F",
"t  c #8E462A",
"y  c #954727",
"u  c #8E5521",
"i  c #965A24",
"p  c #93413C",
"a  c #A7512E",
"s  c #AD5C32",
"d  c #B65839",
"f  c #8E6825",
"g  c #8F712C",
"h  c #A76A35",
"j  c #C86E34",
"k  c #83084B",
"l  c #8B0C4E",
"z  c #920947",
"x  c #8C1948",
"c  c #951647",
"v  c #8D0650",
"b  c #8D0C51",
"n  c #930B53",
"m  c #9A0B55",
"M  c #8D1652",
"N  c #931353",
"B  c #9A1559",
"V  c #A30D59",
"C  c #B70D5E",
"Z  c #A71356",
"A  c #B8165D",
"S  c #90324F",
"D  c #B52C55",
"F  c #9A1B63",
"G  c #AA1D67",
"H  c #B81564",
"J  c #9A2566",
"K  c #9B3867",
"L  c #AE2B6B",
"P  c #A83879",
"I  c #CE1653",
"U  c #D12A57",
"Y  c #C33757",
"T  c #C30E62",
"R  c #DA0E67",
"E  c #C61163",
"W  c #D71468",
"Q  c #E50F6B",
"!  c #E4126C",
"~  c #EA1869",
"^  c #E91C74",
"/  c #D33274",
"(  c #E52F71",
")  c #E9257A",
"_  c #E9277B",
"`  c #8D4152",
"'  c #925254",
"]  c #B14F4C",
"[  c #8F6C52",
"{  c #946855",
"}  c #8E7853",
"|  c #927054",
" . c #B36C48",
".. c #AB7747",
"X. c #955260",
"o. c #A64468",
"O. c #AA4972",
"+. c #8F7269",
"@. c #B7656F",
"#. c #CC544A",
"$. c #E75159",
"%. c #C76646",
"&. c #D2684A",
"*. c #D57850",
"=. c #E7715E",
"-. c #D74D6A",
";. c #EC5F64",
":. c #E16C6F",
">. c #F56665",
",. c #FB7369",
"<. c #FE7C73",
"1. c #5A8A36",
"2. c #66953B",
"3. c #74AD44",
"4. c #7DCE45",
"5. c #9C8738",
"6. c #8EA73D",
"7. c #D7893D",
"8. c #8F8F4D",
"9. c #908B54",
"0. c #B7954A",
"q. c #B68358",
"w. c #8DB24D",
"e. c #92A554",
"r. c #91AA54",
"t. c #92B855",
"y. c #A6A06B",
"u. c #E28958",
"i. c #D1AC56",
"p. c #D2A05E",
"a. c #C89271",
"s. c #F38474",
"d. c #82CE44",
"f. c #83C44C",
"g. c #86C94B",
"h. c #93CE4C",
"j. c #85D34A",
"k. c #89D74A",
"l. c #8AD54C",
"z. c #91D34E",
"x. c #92DD4E",
"c. c #8CC955",
"v. c #93C555",
"b. c #92CB58",
"n. c #8ED552",
"m. c #8EDC53",
"M. c #8CDB57",
"N. c #92D554",
"B. c #93DC55",
"V. c #96D65A",
"C. c #93DC59",
"Z. c #99DA5C",
"A. c #8FE14F",
"S. c #93E155",
"D. c #98E35A",
"F. c #9ACA68",
"G. c #9CD966",
"H. c #A2DB69",
"J. c #A5C977",
"K. c #A8DB78",
"L. c #ABE179",
"P. c #F6E95E",
"I. c #F7D070",
"U. c #F2EA6A",
"Y. c #F7ED78",
"T. c #AE3E81",
"R. c #D03D85",
"E. c #EF2E83",
"W. c #F1398C",
"Q. c #B24D89",
"!. c #B97091",
"~. c #C54481",
"^. c #D6428B",
"/. c #DB4892",
"(. c #E9468A",
"). c #E44A96",
"_. c #F04E94",
"`. c #EB5198",
"'. c #D16B9C",
"]. c #F95BA7",
"[. c #C873AA",
"{. c #FF63AE",
"}. c #EC76AF",
"|. c #FE67B1",
" X c #FF71B6",
".X c #F677B8",
"XX c #ADAF89",
"oX c #FF8D83",
"OX c #FD978A",
"+X c #D6B38F",
"@X c #E6A68D",
"#X c #FEAB9E",
"$X c #E4B49A",
"%X c #CF8AB4",
"&X c #F98BBD",
"*X c #FDB6A9",
"=X c #F6BAA8",
"-X c #B4D38C",
";X c #AEE282",
":X c #B5E487",
">X c #BAE597",
",X c #BFE7A5",
"<X c #C8CC9C",
"1X c #C9E696",
"2X c #F6EC8A",
"3X c #F2EF94",
"4X c #C2DCA9",
"5X c #FAC5B5",
"6X c #FDCDBD",
"7X c #CAE8A8",
"8X c #D3EBB1",
"9X c #D5F1B9",
"0X c #FBF2A8",
"qX c #F3F2B3",
"wX c #DA91C4",
"eX c #F590C6",
"rX c #FF9CCB",
"tX c #D9ADC5",
"yX c #DCB3C9",
"uX c #F6A7D4",
"iX c #FEB9DA",
"pX c #F5B5E6",
"aX c #F3B9E9",
"sX c #F6BCED",
"dX c #FFD1C1",
"fX c #E6C9D8",
"gX c #FEC0DE",
"hX c #DAF6C6",
"jX c #EBEFC3",
"kX c #E7F4C7",
"lX c #F7F7C6",
"zX c #E7F7D3",
"xX c #F8FADA",
"cX c #F8D2EC",
"vX c #F9DCEA",
"bX c #F9C1F1",
"nX c #F9C9F2",
"mX c #F1EDEB",
"MX c #F8FCE4",
"NX c #FEE8F5",
"BX c #FFF7FD",
"VX c #FFFFFF",
/* pixels */
"B.x.x.C.C.B.B.B.B.B.m.j.m.B.B.B.B.B.B.B.B.B.B.B.m.B.B.C.C.A.B.:X9X8XL.C.S.B.B.B.B.B.z.B.C.G.1XjX",
"B.B.M.C.B.B.C.C.B.B.n.d.k.B.B.B.B.B.B.B.B.B.B.B.B.B.B.C.w.6.8.y.<XlX1XH.C.B.B.B.B.N.l.B.C.H.zXMX",
"C.M.4.k.B.Z.C.B.B.C.B.x.B.B.B.B.B.B.B.B.B.B.B.B.B.B.B.N.g i i i h I.jX9XG.B.B.B.B.B.B.B.x.H.zXlX",
"C.x.l.L.7X7XL.B.B.B.C.B.B.B.B.N.N.B.B.B.B.S.S.S.S.x.6.g &.s.=X=X$Xh +XhXG.C.B.B.B.B.B.B.B.G.-X1X",
"B.Z.K.9XMXxX7XK.C.B.B.C.B.B.B.l.n.B.B.B.t.9.9.9.9.8.g 9 #.:.#X@Xa.q.a.-XV.B.B.B.B.B.B.B.m.m.g.J.",
"m.K.zXxX0X2XlX9XG.B.B.B.B.B.B.B.B.B.N.B.| b n n N N N N N D >.d h 5Xa.f h.B.B.B.B.B.B.C.C.x.C.b.",
"x.;XMXqXY.P.qXkXG.C.B.B.B.B.B.B.S.9.S S O.).).}.fXfXfXfXfX%XZ x S s.%.f h.B.B.C.C.B.B.B.C.B.B.N.",
"B.K.8XqX3X2XqX7XG.C.B.B.C.B.B.N.e.X.G G ^.|.eXiXVXVXVXVXVXvXQ.P L -.d f h.B.B.B.B.B.B.B.B.B.B.B.",
"B.V.v.7XMXMX-Xv.B.B.B.B.C.B.B.t.M R.{.{.{. XNXVXVXVXVXVXVXVXVXrX`.N 8 f h.B.B.B.B.B.B.B.B.B.B.B.",
"B.C.z.J.-X-XF.N.B.B.B.C.B.B.} X.^.].{.{.{. XNXVXVXVXVXVXVXVXVXrX]./.L S v.B.B.B.C.B.B.B.m.j.m.B.",
"B.B.B.b.c.f.N.B.B.B.B.C.N.r.S H {.{.{.{.{. XNXVXVXVXVXVXVXVXVXrX{.|./ M v.C.G.;X:XK.C.B.n.d.m.B.",
"C.B.B.B.x.B.C.B.B.B.C.C.r.M T ) ].{.{.{.{. XNXVXVXVXVXVXVXVXVXrX{.{./ x v.Z.>XxXMX8XG.B.B.B.B.B.",
"C.B.B.B.B.C.C.B.B.C.C.S.e.l '.uXgXeX{.{.{.|.rXgXVXVXVXVXVXNXuX.X{.{.`.~.' XXzXlX0XqX9XK.B.B.B.B.",
"B.B.B.C.B.B.C.B.N.B.G.J.y.J yXVXVXiX X{.{.{.].&XvXvXvXvXvXiX].].{.{. X}.N !.xX0XU.0XMXK.B.B.B.B.",
"C.C.C.B.B.x.B.x.h.V.-XO.O.pXNXVXVXBXvX X{.].) ^ ) ) ) ) ) ) ^ _.|.{.iXvXF !.lX2XU.3XzXK.B.B.B.B.",
"B.B.C.C.C.B.B.B.V.7XkXo.P sXcXNXVXVXNX_.W.W.^ W C C C C C T ! E.W.W.uXmXJ X.<XxXlX8XJ.V.B.B.B.B.",
">X:XZ.x.m.C.B.C.Z.hXxXo.P sXsXnXBXBXvX) ! ! ! T N N N N N Z W ! ! Q &XvXJ [ J.7X8X-Xc.B.B.B.B.B.",
"MXkXK.Z.x.B.C.C.B.9XlXo.P sXbXbXnXnXpX) ! ! V D >.>.>.>.>.-.m E ! Q .XaXF [ N.f.w.c.B.B.B.B.B.B.",
"0X3XkX:XC.B.B.B.B.F.-Xo.P sXbXbXsXbXuX) W H D :.OX] ] OX] S D A E ! /.[.{ e.B.N.C.C.C.d.j.B.B.B.",
"Y.Y.xX>XB.B.B.B.B.d.F.X.P pXsXbXbXsXuX) C B >.OX5X& ; 6X; + ,.D m R C S v.B.B.B.C.B.B.k.l.B.B.B.",
"U.2XjX>XC.B.B.C.m.d.d.w.} J wXnXnX.X) V Y ;.>.OX5X& ; 6X; & =XO.v m { t.N.B.B.B.B.B.B.m.m.B.B.B.",
"xXjXJ.V.B.B.B.B.m.x.k.m.w.' !.%X%X/.R n Y ,.oX#X6X4 +.6X+.4 6X@.8 8 8.S.B.B.B.B.B.B.B.d.j.B.B.B.",
"4X>Xb.N.B.B.B.B.C.B.B.B.B.B.' b b T W n Y <.5XdXdXdXdX6X6X6XdXq.w e 6.B.B.B.B.B.B.B.B.l.l.B.B.B.",
"w.g.C.S.B.B.S.B.S.r.` ` ` ` ~.).W C B 9 #.<.5XdXdXdX$X..$XdXdXq.f w.h.B.B.B.B.B.B.B.B.B.B.m.m.m.",
"N.x.C.v.e.e.e.e.e.| G V m v -.(.U Z c 9 d =.#X5XdXdX$X..$X5X$X..f N.B.B.B.B.B.B.B.B.B.B.B.m.d.j.",
"B.B.B.| b b l b l L ].) E b 9 i r 0 5 5 0 i =.OXdXdX6X6XdX$Xi r g n.k.k.B.B.B.B.B.B.B.B.B.C.l.k.",
"B.v.' !.tXtX'.T n G E.^ I 9 #.=.@X:.$.I I 0 d  .q.q.q.q.q. .0 y g N.d.d.B.B.B.B.B.B.B.B.B.C.B.A.",
"B.t.M %XVXNX&X! m V W W Y s =.oX*Xs.;.W I 6 i i y y y y i a 6 0 f N.x.B.C.B.B.B.B.B.B.C.B.B.B.x.",
"B.t.M %XBX&X_.! m b n t s >.#X*X<.j y l C ~ 7.j 5 W I 5 j *.Q I 0 b.B.B.C.B.B.B.B.B.B.B.B.B.C.x.",
"B.t.M ~.}.W.`.}.F S 9.f s ,.*X6X#X@Xa.p D ~ p.*.5 ) (.( #.#.s.Y 0 b.C.B.B.B.B.B.B.B.B.B.B.B.C.B.",
"B.v.S A R R `.uXK [ B.g s ,.#XdXdXdX5X..] ( I.u.5 _.{.{.I q I.#.0 b.C.B.B.B.B.B.B.B.B.B.B.B.C.B.",
"x.B.b.{ n n N J e.N.B.g s ,.*XdXdXdX6X5Xa.i I.u.5 _.{.{.I q I.#.0 N.B.B.B.B.B.B.B.B.B.B.B.B.B.C.",
"B.B.S.e.[ | [ } v.B.B.w.5.%.s.#X6XdX6X#X*.i &.$./ ].{.{.(.-.*.D c [ r.B.B.B.B.B.B.B.B.C.B.B.m.n.",
"Z.B.C.B.B.B.B.B.B.B.B.S.w.f &.<.5X6X*X,.%.y 7 / {.].].].].(.5 z 3 k } S.B.B.B.B.B.B.B.C.B.m.d.j.",
";XB.C.l.j.B.B.B.B.B.B.B.N.h.5.s <.<.,.s 0 7 (.].{.L B B B B z = . . 2 D.B.B.B.B.B.B.B.B.B.m.l.m.",
">XB.C.k.d.B.B.B.B.B.B.B.v.9.] ] &.&.&.d Y / R.^.^.!.!.Q.F l 8 1 <   > 2.n.B.B.B.B.B.B.B.B.B.B.B.",
">XB.C.B.B.C.B.B.B.B.B.S.e.l T U u u y W W.].G N B fXNXpXP x u i.i.X   o f.B.B.l.N.B.B.B.B.B.C.C.",
"G.C.C.B.B.B.B.B.B.B.B.S.3.X - m x x x m V L yXfXfXcXtXP ` t i * $     o f.B.B.B.B.B.B.B.B.B.B.B.",
"n.C.C.B.B.B.B.B.B.B.B.3.2 + : x l J Q.Q.Q.Q.cXvXyXwX!.l t e u +       o f.B.B.B.B.B.B.B.B.B.B.B.",
"C.B.B.B.B.B.B.B.B.B.N.% O w e t l [.bXsXsXsXbX[.b b b b t e w +       o f.B.B.B.B.B.B.B.B.B.B.B.",
"B.B.B.B.B.B.B.B.B.B.N.% O w e u t o.T.P P P P !.e.e.[ l t , O .       o f.B.B.B.B.B.B.B.B.B.B.B.",
"m.l.B.B.B.B.B.B.B.B.B.% O w e e e : - S O.O.K +.D.S.r.S 1 *         o > g.B.N.B.B.B.B.B.B.B.B.m.",
"j.d.B.B.B.B.B.B.B.B.B.% O w e e r # o XXxXzX-Xt.N.B.B.n.%           2 B.B.z.z.B.B.B.B.B.B.B.B.l.",
"m.m.B.B.B.B.B.B.B.m.n.@ O w 0.0.# < 2.b.F.F.F.N.B.B.B.B.3.2     o 1.3.B.B.B.B.B.B.B.B.C.C.B.B.N.",
"B.B.B.B.B.B.C.C.B.B.k.> $ , 0.0.@ 1.D.n.g.g.N.C.B.B.B.B.S.3.@ @ > n.B.B.B.B.B.B.B.B.B.C.B.Z.:X,X",
"B.B.B.B.B.B.B.C.C.G.H.G.2.. . % f.n.B.B.C.C.C.B.B.C.C.C.B.B.l.c.c.B.B.B.B.B.B.B.B.B.B.B.Z.;XzXMX",
"B.B.B.B.B.B.x.B.G.7XzXzXJ.2 2 1.M.B.B.B.B.B.B.B.B.B.B.B.B.C.C.C.C.B.B.B.B.B.B.B.B.B.B.B.>XzXlX0X",
"B.B.B.B.B.B.B.G.1XkXMXlX7X;XZ.B.B.B.B.B.B.B.B.B.B.m.B.x.x.x.B.C.C.C.B.B.B.B.B.B.B.B.B.V.7XMX0X2X"
};
