/* XPM */
static char * perso_back_xpm[] = {
"48 48 192 2",
"  	c #93DC55",
". 	c #B7E588",
"+ 	c #C9EBAA",
"@ 	c #A8E278",
"# 	c #A7CB7A",
"$ 	c #DDF1C2",
"% 	c #F8FDE6",
"& 	c #F9F8C9",
"* 	c #BAE598",
"= 	c #93D855",
"- 	c #919654",
"; 	c #8DA856",
"> 	c #A7D975",
", 	c #EDFCD8",
"' 	c #FAF9D9",
") 	c #FBF4B6",
"! 	c #F6EC84",
"~ 	c #D8F3BA",
"{ 	c #907852",
"] 	c #8C0A50",
"^ 	c #8F3652",
"/ 	c #F4E65D",
"( 	c #E9F8CB",
"_ 	c #D3E9B6",
": 	c #C3E299",
"< 	c #8F9552",
"[ 	c #8C494F",
"} 	c #8E5052",
"| 	c #C28A9E",
"1 	c #D996C2",
"2 	c #D9ACC4",
"3 	c #D9A3BF",
"4 	c #D9A7C1",
"5 	c #C889AA",
"6 	c #905353",
"7 	c #974E5B",
"8 	c #B54F77",
"9 	c #F5F299",
"0 	c #EBE576",
"a 	c #E7EEAD",
"b 	c #9DD575",
"c 	c #8F6753",
"d 	c #9F1960",
"e 	c #D584BB",
"f 	c #F8C1F0",
"g 	c #FCE1F8",
"h 	c #FFFEFF",
"i 	c #FEF4FC",
"j 	c #F1D5E8",
"k 	c #A21E63",
"l 	c #CBC8AC",
"m 	c #F4EAE1",
"n 	c #F5FDF1",
"o 	c #C63779",
"p 	c #FF63AE",
"q 	c #FE75B8",
"r 	c #F9CBF3",
"s 	c #FEE9F7",
"t 	c #FB88C4",
"u 	c #9A6D6A",
"v 	c #B3D48C",
"w 	c #D9458F",
"x 	c #EC529D",
"y 	c #F9BAE9",
"z 	c #FBD6E7",
"A 	c #FC88B9",
"B 	c #AA4274",
"C 	c #C9DFA8",
"D 	c #FF67B0",
"E 	c #FE7EC0",
"F 	c #CF3E87",
"G 	c #91AE55",
"H 	c #E473A4",
"I 	c #FFB1D7",
"J 	c #FE93CA",
"K 	c #FFBDDD",
"L 	c #FFCCE4",
"M 	c #FD6CB2",
"N 	c #B1DE7F",
"O 	c #9F336D",
"P 	c #F9F2A5",
"Q 	c #9E2A6B",
"R 	c #DCD6C3",
"S 	c #F4EC74",
"T 	c #FA5BA6",
"U 	c #9BAC6B",
"V 	c #C1D59A",
"W 	c #BD8299",
"X 	c #B25A8A",
"Y 	c #EFA6DA",
"Z 	c #BA6A92",
"` 	c #CFF0BA",
" .	c #EA116B",
"..	c #F12A7F",
"+.	c #F22D81",
"@.	c #A3B072",
"#.	c #D22977",
"$.	c #ED2D80",
"%.	c #E8297A",
"&.	c #F74A98",
"*.	c #F43B8C",
"=.	c #8D4953",
"-.	c #B6165E",
";.	c #CB0E61",
">.	c #D41266",
",.	c #F499D2",
"'.	c #FBC4EA",
").	c #CA1465",
"!.	c #8D0C4F",
"~.	c #930D52",
"{.	c #E51A6C",
"].	c #EA1E76",
"^.	c #EB4993",
"/.	c #EE4B95",
"(.	c #F565A6",
"_.	c #B70E5D",
":.	c #B2286F",
"<.	c #B41A61",
"[.	c #AD135D",
"}.	c #A6175D",
"|.	c #9B0C54",
"1.	c #8F2542",
"2.	c #AA2757",
"3.	c #C33B5C",
"4.	c #CA425D",
"5.	c #AF3159",
"6.	c #95174D",
"7.	c #D90F65",
"8.	c #8D1649",
"9.	c #8F581F",
"0.	c #FD7067",
"a.	c #FF7169",
"b.	c #B05A3B",
"c.	c #92373A",
"d.	c #EF3584",
"e.	c #D44687",
"f.	c #EA4887",
"g.	c #E55B64",
"h.	c #EE6668",
"i.	c #A72765",
"j.	c #D44977",
"k.	c #F54795",
"l.	c #C8497A",
"m.	c #F3629D",
"n.	c #972952",
"o.	c #900F4E",
"p.	c #971859",
"q.	c #DD4A92",
"r.	c #EC6196",
"s.	c #8D2D51",
"t.	c #FFD0C0",
"u.	c #CB6E91",
"v.	c #D7256C",
"w.	c #DA1768",
"x.	c #E6146D",
"y.	c #E61D73",
"z.	c #8E2A3E",
"A.	c #FAC6BB",
"B.	c #BF3975",
"C.	c #F3B8B4",
"D.	c #A2746E",
"E.	c #938557",
"F.	c #F55297",
"G.	c #CB1C5D",
"H.	c #9B2662",
"I.	c #B2356F",
"J.	c #8E3F2F",
"K.	c #AC0C59",
"L.	c #905522",
"M.	c #B04785",
"N.	c #9C4167",
"O.	c #9D145A",
"P.	c #8E1753",
"Q.	c #CE6FA5",
"R.	c #7BB745",
"S.	c #851246",
"T.	c #760943",
"U.	c #446B2B",
"V.	c #000000",
"W.	c #5F3B15",
"X.	c #180F05",
"Y.	c #482C10",
"Z.	c #3E651E",
"`.	c #616B30",
" +	c #806C38",
".+	c #87622C",
"++	c #496E2A",
"@+	c #6EA640",
"#+	c #FFD870",
"$+	c #C79848",
"%+	c #304021",
"&+	c #608937",
"                                                              . + + @                           ",
"                                                            # $ % & *                           ",
"                                    = - - - - - - - - ;   > , ' ) ! & ~                         ",
"      @ + + >                       { ] ] ] ] ] ] ] ] ^   > % ) ! / & (                         ",
"    > _ % % :                 < [ } | 1 1 2 3 2 2 2 4 5 6 7 8 9 ! 0 a ~                         ",
"  b , ' ) ! & ~             = c d d e f g h h h h h i j k d d l m % #                           ",
"  b n ) ! / & $             ] o p p q f r h h h h h s t p p p ] u v                             ",
"    _ a 9 ! a +         { } w x p p p t y r s i i z A p p p p w B [                             ",
"      C % % v         = 7 d p p p p p D q E t A q D p p p p p p F d G                           ",
"      # v #         = ] w p p p p p p p p p p p D p p p p p p p p p ] }                         ",
"                    = ] H I p p p p p q J K L L L I J M p p p p t I ] }       N N >             ",
"                    = ] 2 h p p p p A i h h h i h i i L M p p p I h ] }     . % n ~             ",
"                  } O h h h h I p q g h h h h h h h h h L p p h h h h 2 ] l ( & P a (           ",
"                  } Q g i h h I D y s h h h i h h h h i h J p h h h g 1 ] R ' P S 9 % >         ",
"                  [ Q f s h h I q f i h h h h h h h h h h L p h h h f e ] R & ! / ! %           ",
"                  7 Q f r r r J t f s h h h h h h h h h h z T r r r f e ] U V & & a #           ",
"                  W X e Y y t q t f r i h h h h h h h h h s p J Y f e Z }   # _ _ *             ",
"                  ` R ] e y  ...M f f r s h h h h h h h h z +.p J f ] }                         ",
"                    @.] #.$. . .%.y f f f r g h h h h h i A ..&.*.$.] }                         ",
"                    ; =.-.;.;.;.>.x ,.y f f f f r r r '.t  .).;.;.;.} {                         ",
"                        =.!.] ] ~.{.].$.^././.(.T /././.>._.~.] ] ]                             ",
"                        } !.w :.] -.-.<.[.<.[.[.<.[.[.}.~.] ] w :.]                             ",
"                      = =.!.T o |.!.1.2.3.4.5.5.5.2.1.6.o o |.T o ] =                           ",
"                    = ] !.!. . .7.8.9.0.a.a.0.0.a.a.b.c.o d. . ._.] ] }                         ",
"                  { 7 w e.e.f.f.3.8.c.5.3.g.g.g.h.g.b.1.i.j.&.k.^.e.w l.}                       ",
"                  } d p m.m.m.l.n.!.8.|.~.~.[.|.] ] ] !.o.p.q.(.m.r.p q.] =                     ",
"            s.] ] ] i.p A t.t.u.6.v.{.w.>.w.x.x.w.w.w.w.y.}.z.A.t.t.r.l.] ] ] ] -               ",
"        = { W 5 5 B.#.p A C.B i.).x.x.x.w.].$.].%.y.x.x.x.).8.i.8 A.(.j._.u.5 5 D.E.            ",
"        - ] j h h m.+.p M u.p.w.{.x.{.v.%.F.p T T /.%.%.x.w.G.B.H.C.p f. .z h h X s.            ",
"        - ] j L p +.w.B.e.I.}.x.x.x.{.&.p p p p p T p T {.{.x.).p.u.o f. .T J h X s.            ",
"        - ] H (.*.T q.] 1.c._. .x.%./.p p p p p p p p p $.x.x.w.6.z.!.8 (.k.F.A I.s.            ",
"        - ] 7. . .t Y ] J.J.K.x.x.k.p p p p p p p p p p (...x.>.6.L.] M.f $. . .K.s.            ",
"          = n.|.|.d N.=   c _.].%.T p p p p p p p p p p p %.x.>.^   = E.Q O.|.|.E.              ",
"            c } } } c   G ^ >.k.T p p p p p p p p p p p p T k.y.n.-   G } } } } G               ",
"                        } ] x.&.p p p p p p p p p p p p p p p d._.]                             ",
"                        } ] |.O.O.d d d d d d d d d d d O.O.i.O.~.]                             ",
"                        c s.s.P.] Q Q O O H.] ] P.O O O Q p.] s.s.s.                            ",
"                              { ] f g h h 2 ] ] O h h i f Q.]                                   ",
"                              = < M.X X X B ] ] p.X X X M.D.-                                   ",
"                                R.8.8.8.8.S.T.T.T.8.8.8.8.c R.                                  ",
"                              U.V.9.9.9.9.W.V.V.X.9.9.9.9.Y.V.                                  ",
"                            Z.`. +9.9.9.9.W.V.V.X.9.9.9.9..+ +++@+                              ",
"                            V. +#+9.9.9.9.W.V.V.X.9.9.9.9.$+#+V.++                              ",
"                            V.V.V.V.V.V.V.%+    R.V.V.V.V.V.V.V.++                              ",
"                            ++++++++++++++&+      ++++++++++++++@+                              ",
"                                                                                                ",
"                                                                                                ",
"                                                                                                "};
