/* XPM */
static char *ff690a4ed5e44841f19c1b081f6f4691eFCLbZOpIQhUGV7X[] = {
/* columns rows colors chars-per-pixel */
"48 48 252 2 ",
"   c #020102",
".  c #0C0305",
"X  c #160E0B",
"o  c #11160B",
"O  c #231408",
"+  c #290D12",
"@  c #1A2710",
"#  c #37200C",
"$  c #273918",
"%  c #47270F",
"&  c #643515",
"*  c #6B0F34",
"=  c #753333",
"-  c #2D461C",
";  c #3B5623",
":  c #6D4713",
">  c #5D592B",
",  c #4B712C",
"<  c #567C33",
"1  c #7F0046",
"2  c #74544C",
"3  c #AF231C",
"4  c #940C3C",
"5  c #B71B26",
"6  c #AC093A",
"7  c #96312F",
"8  c #9A3739",
"9  c #B0312B",
"0  c #CD0134",
"q  c #CB0339",
"w  c #C81736",
"e  c #CC2C36",
"r  c #97540B",
"t  c #924E17",
"y  c #975715",
"u  c #A54718",
"i  c #A65313",
"p  c #99701B",
"a  c #B2651B",
"s  c #9B4426",
"d  c #AD4C2A",
"f  c #956C2F",
"g  c #B1682E",
"h  c #A9673A",
"j  c #CC4D32",
"k  c #C95A35",
"l  c #E05B3F",
"z  c #8C0D4C",
"x  c #970447",
"c  c #98154B",
"v  c #9B0453",
"b  c #990956",
"n  c #961555",
"m  c #A4024C",
"M  c #A20252",
"N  c #A80357",
"B  c #B80158",
"V  c #A91551",
"C  c #B11854",
"Z  c #903152",
"A  c #B02A51",
"S  c #971B65",
"D  c #A41469",
"F  c #BB176F",
"G  c #962C63",
"H  c #963164",
"J  c #A8296C",
"K  c #CD0844",
"L  c #C70B5B",
"P  c #D50D51",
"I  c #F61057",
"U  c #D02F4F",
"Y  c #F8295C",
"T  c #CD0D6E",
"R  c #D70164",
"E  c #E80267",
"W  c #E3016B",
"Q  c #F8026D",
"!  c #EE0B79",
"~  c #F20172",
"^  c #FA0578",
"/  c #DE3E65",
"(  c #CA2D78",
")  c #E83767",
"_  c #904C4E",
"`  c #955954",
"'  c #A94C55",
"]  c #926F4E",
"[  c #8F6151",
"{  c #8C7C53",
"}  c #927751",
"|  c #B2704C",
" . c #B24970",
".. c #8F726A",
"X. c #AF6A6A",
"o. c #D7504D",
"O. c #E8554D",
"+. c #D66A4E",
"@. c #EB6B55",
"#. c #CE4F70",
"$. c #EF5165",
"%. c #FE6767",
"&. c #FD726C",
"*. c #F86D72",
"=. c #65933A",
"-. c #69A33D",
";. c #679841",
":. c #70A441",
">. c #7AB749",
",. c #7DCE45",
"<. c #8D9439",
"1. c #E98B31",
"2. c #8D8950",
"3. c #8E9857",
"4. c #929753",
"5. c #A38847",
"6. c #87B34B",
"7. c #8EA751",
"8. c #92A653",
"9. c #8BBC54",
"0. c #93B855",
"q. c #B3906A",
"w. c #A4B862",
"e. c #D3AB57",
"r. c #F0B852",
"t. c #CE916E",
"y. c #F78672",
"u. c #84C34C",
"i. c #84CA48",
"p. c #92CD4E",
"a. c #85D34A",
"s. c #88D749",
"d. c #8AD54C",
"f. c #91D34E",
"g. c #92DD4E",
"h. c #8CCC53",
"j. c #8CC65A",
"k. c #93C355",
"l. c #93C859",
"z. c #8DD452",
"x. c #8EDC53",
"c. c #8FDE59",
"v. c #92D555",
"b. c #93DC55",
"n. c #99DA57",
"m. c #95D55C",
"M. c #93DC59",
"N. c #99DB5D",
"B. c #8EE04E",
"V. c #93E156",
"C. c #96E15A",
"Z. c #9ACA68",
"A. c #9BDC63",
"S. c #9BD966",
"D. c #9FCA70",
"F. c #A1DB6A",
"G. c #A5C876",
"H. c #A8DA77",
"J. c #B0D77D",
"K. c #9BE164",
"L. c #A9E278",
"P. c #F9DB5F",
"I. c #FCC96E",
"U. c #F3E968",
"Y. c #F5EC78",
"T. c #FB1782",
"R. c #D42D84",
"E. c #ED328A",
"W. c #FB3797",
"Q. c #FE3FA1",
"!. c #B75189",
"~. c #B96E92",
"^. c #CF4B8F",
"/. c #C7569C",
"(. c #EE4996",
"). c #E7479B",
"_. c #FF7E80",
"`. c #D25AA5",
"'. c #EC4EA1",
"]. c #FA4BA6",
"[. c #FD57AD",
"{. c #FF55B1",
"}. c #FD5CB2",
"|. c #CD6EAB",
" X c #E36DA8",
".X c #FC63AE",
"XX c #FC6CAE",
"oX c #FD64B1",
"OX c #FA67B7",
"+X c #FB7ABA",
"@X c #F67AC1",
"#X c #B49987",
"$X c #F6918C",
"%X c #FB9B8B",
"&X c #D1A38C",
"*X c #EDA68E",
"=X c #FFA69B",
"-X c #EDB699",
";X c #D28BB1",
":X c #FA85BC",
">X c #D6ADAE",
",X c #FEB9AB",
"<X c #F0BDB6",
"1X c #B1D389",
"2X c #B3D588",
"3X c #ABE282",
"4X c #B5E388",
"5X c #BAE597",
"6X c #BFE3A3",
"7X c #CBD19A",
"8X c #D6D89E",
"9X c #C9E696",
"0X c #F7EC89",
"qX c #F2EF92",
"wX c #F9C7AA",
"eX c #EEC1B0",
"rX c #FBC8B5",
"tX c #FECDBB",
"yX c #FED2BC",
"uX c #C9E9A9",
"iX c #D4E5A8",
"pX c #D4ECB6",
"aX c #CFF0B5",
"sX c #D6F1B9",
"dX c #EAF0AD",
"fX c #FBF2A8",
"gX c #FCF6B9",
"hX c #F18DCF",
"jX c #DFB1CB",
"kX c #FAABD3",
"lX c #EAB2D0",
"zX c #F7ABE4",
"xX c #FEBEF4",
"cX c #FEBDF8",
"vX c #FFCDC1",
"bX c #F6CFC8",
"nX c #DCF4C5",
"mX c #EBEFC3",
"MX c #E7F5C8",
"NX c #F8F8C6",
"BX c #E6F8D3",
"VX c #F8FBD9",
"CX c #FDC8E7",
"ZX c #F4D3EA",
"AX c #F8D6E9",
"SX c #FDC5F4",
"DX c #F5E5EE",
"FX c #EEFCE8",
"GX c #F9FDE5",
"HX c #FAE8F5",
"JX c #FEF4FC",
"KX c #FEFEFF",
/* pixels */
"b.g.g.M.M.b.b.b.b.b.x.a.z.b.b.b.b.b.b.b.b.b.b.b.x.b.b.M.b.g.b.4XaXaXH.M.b.b.b.b.b.b.f.b.M.A.9XmX",
"b.b.x.M.b.b.M.M.b.b.z.i.d.b.A.A.b.F.A.b.b.b.b.b.b.b.b.M.b.N.H.nXGXNX9XF.M.b.b.b.b.v.d.b.M.F.BXGX",
"M.x.,.s.b.N.M.b.b.M.b.g.b.C.8.<.<.2.4.m.b.b.b.b.b.b.b.b.b.H.BXVXgX0XNXaXA.b.b.b.b.b.b.b.g.F.BXNX",
"M.g.d.L.uXuXL.b.b.b.M.M.m.J.q.h ] h | 1Xv.b.b.b.b.d.a.x.b.J.VXgX0XU.gXnXA.M.b.b.b.b.b.b.b.S.1X8X",
"b.n.J.sXGXVXuXH.n.b.b.C.G.f &XtXrX%X@.h 7.C.b.b.b.s.a.x.b.H.sXdX0XY.dXuXN.b.b.b.b.b.b.b.x.x.i.J.",
"x.H.BXVXgX0XNXsXS.b.b.<.5.t.t.t.%X#.A 7 _ [ [ [ [ [ 2.b.M.m.Z.iXGXVX2Xl.b.b.b.b.b.b.b.M.M.g.M.l.",
"g.H.FXgXY.U.gXMXS.M.b.p h wX| d $. .G H H G G G b n _ k.k.k.h.G.1X1XZ.v.b.b.b.M.M.b.b.b.M.b.b.v.",
"b.H.pXdXqX0XdXuXA.b.b.p d &.A x z ;XDXDXDXDXDXlX'.[.^.Z Z _ M.h.u.u.l.M.b.b.b.b.b.b.b.b.b.b.b.b.",
"b.m.k.iXGXGX1Xj.b.b.b.p d U ( #.~.bXKXKXKXKXKXDXkX+X'.( (  .{ 9.b.m.v.d.b.b.b.b.b.b.b.b.b.b.b.b.",
"b.M.f.G.1X1XZ.v.b.b.b.f 8 m E.:XJXKXKXKXKXKXKXKXJX:X.XoXXX'.n 2.v.b.b.b.b.b.b.b.M.b.b.b.z.a.x.b.",
"b.M.b.l.j.u.v.b.b.b.v._ C '.].:XJXKXKXKXKXKXKXKXJX:X.XoXoX.X'. .2 v.b.b.M.M.S.4X4XH.M.b.z.i.x.b.",
"M.b.b.b.g.b.M.b.A.L.m.Z F {.{.:XJXKXKXKXKXKXKXKXJX:X.XoXoX.X.X( V { 9.b.b.N.5XVXGXpXA.b.b.b.b.b.",
"M.b.b.b.g.M.M.b.A.3Xm.Z F {.{.+XHXKXKXKXKXKXKXKXHX:X.X.X.XoXXX(.( z 2.V.N.uXMXNXfXdXsXH.b.b.b.b.",
"b.b.b.M.b.b.M.b.b.7.Z ^.'.{.}.oX:XCXKXKXKXKXKXCX:XoX}.}.[.+XAXAXjXn { V.N.nXVXfXU.fXGXJ.b.b.b.b.",
"M.M.M.b.b.g.b.g.f.2.v  XhX}.{.].W.+XkXkXkXkXkX+XW.].{.}.@XkXKXKXZX!.X.8.m.sXNX0XU.qXBXH.b.b.b.b.",
"b.b.M.M.M.b.b.b.N.q.v lXCX.X{.].^ ~ ~ ~ ~ ~ ~ ~ ^ Q.{.}.CXKXKXKXJXSX/.c k.Z.7XVXNXiXG.m.b.b.b.b.",
"5X4XN.g.x.c.b.M.A.#Xv jXCXT.T.T.^ R B B B B B R ^ ^ T.T.kXKXKXHXSXSX/.n k.h.F.uXiX2Xh.b.b.b.b.b.",
"GXMXH.n.g.b.M.M.C.#Xv jXkX~ Q Q E L C C C C C L E ~ Q ~ kXJXJXAXxXSX/.c k.b.v.u.9.h.b.b.b.b.b.b.",
"fXfXMX4XM.b.b.b.V.3.z hXhXQ Q W M U %.%.%.%.%./ m W Q ~ hXSXxXxXxXcX/.c k.M.b.v.m.m.M.i.a.b.b.b.",
"Y.Y.VX5Xb.b.b.b.B.6.2.!.R.~ R L / 8 = %XX.= $X_./ L R ~ hXcXxXxXxXcX/.c k.b.b.b.M.M.b.a.d.b.b.b.",
"U.0XmX5XM.b.b.b.x.a.i._ V W B C *.= + <X..X >X=X%.U B W OXzXxXxXxXzX~.Z k.b.b.b.b.b.b.x.x.b.b.b.",
"VXmXG.m.b.b.b.b.x.x.s.z.4.M x J <X2 + <X..X >X=X%.%./ N R W.xXcXzXS { v.b.b.b.b.b.b.b.i.a.b.b.b.",
"6X5Xl.v.b.b.b.b.M.b.b.C.0.7 7 ' rX#X..rX&X..eX,X%X&.$.m R ! /./.~.{ 0.V.b.b.b.b.b.b.b.d.d.b.b.b.",
"9.u.b.b.b.b.b.b.M.b.b.M.0.f y h rXyXvXeXrXvXtXtXrX*.$.m R W M N G 0.l.k.k.l.b.b.b.b.b.M.b.x.x.x.",
"v.g.M.M.b.b.b.M.b.b.g.b.b.p.f h wXyX,Xh t.tXvXyXrX&.O.u 4 B ~ E.).V n n c ] V.V.b.b.b.K.M.x.i.a.",
"b.b.b.b.b.b.b.b.b.b.b.b.b.L.5.y t.-XrXt.*XtXvX,X%X+.j 3 6 m U o.#.m B L (  .} { } } } 3.b.M.d.s.",
"b.b.b.b.b.b.b.b.b.b.b.M.F.uXq.r u t.rXwXwXwXrX%X@.d 9 0 q w i d 8 4 L ^ ].R.v v v b n ` F.b.b.B.",
"b.b.b.b.b.b.f.f.b.b.M.A.aXVXq.u 5 d g h h h g a u 5 q I ) &.-Xy.+.s U Q ^ T M R ).ZXZX>XZ 8.V.g.",
"b.b.b.b.b.b.b.v.M.b.M.A.nXNX+.5 q j a 9 9 9 3 i a w P R o.@.=X%Xy.o.U P R B m E (.CXJXjXz 4.V.g.",
"b.b.b.b.b.b.b.b.M.b.b.N.uXdXo.0 Q l 1.5 P E 0 e 1.Y R x 7 d %.=X,X&.k u c v N W T.}.AXjXz 3.M.b.",
"b.b.b.b.b.b.b.b.x.b.b.b.k.2X#.w y.l e E.W.W.q l r.Y P 7 t.-X,XrX,X&.k y 8.` b @XOXT.W.R.v 4.M.b.",
"g.b.b.b.b.b.b.b.b.b.b.b.z.Z.' e P.l q ].{.].K O.I.o.U | -XyXyXtX,X&.k y v.4._ |.`.R R L _ 7.b.M.",
"b.b.b.b.b.b.b.b.b.b.b.b.b.z.d e I.O.K ].[.].K o.I.g | rXtXvXyXvX,X&.k p p.b.l.Z v x x _ v.b.x.z.",
"N.b.M.b.b.b.b.b.b.b.b.b.9._ c 6 e $.(.{.{.[.E./ j i g $X,XvXvX=Xy.k t.w.v.b.b.8.4.4.4.7.b.x.i.a.",
"3Xb.M.d.a.b.b.b.b.b.b.b.7.* * 4 6 ( ).).).'.{.E.w 9 d @.%X,X,Xy.+.| w.C.b.b.b.b.V.V.V.b.b.x.d.x.",
"5Xb.M.s.a.b.b.b.b.b.b.C.:.. . + x v v v M N '.{.].K 5 i +.%.%.k | iXb.b.b.b.b.b.b.b.b.b.b.b.b.b.",
"5Xb.M.b.b.M.b.b.b.b.b.< $   > h 7 4 b |.;X;X( F ( R.) U j k k e U  .8.b.b.b.b.d.v.b.b.b.b.b.M.M.",
"S.M.M.b.b.b.b.b.b.b.v.$     } e.y 7 V hXZXDX .J J ).E.W A s s P R 1 { V.b.b.b.b.b.b.b.b.b.b.b.b.",
"v.M.M.b.b.b.b.b.b.b.v.$     X # r u 8 n |.CXDXHXAXJ v M x 4 x m z + < C.b.b.b.b.b.b.b.b.b.b.b.b.",
"M.b.b.b.b.b.b.b.b.b.v.$       O t i s x J /.|.jXDX|.`.`.|./.v c 7 % ; < h.b.b.b.b.b.b.b.b.b.b.b.",
"b.b.b.b.b.b.b.b.b.b.v.$       O : r s x b c c !.zXzXzXzXzXhXx 8 y y % o u.b.b.b.b.b.b.b.b.b.b.b.",
"x.d.b.b.b.b.b.b.b.b.b.$       . X & s x X.8X7X~.D D D D D A s r r r % o u.b.v.b.b.b.b.b.b.b.b.x.",
"a.i.b.b.b.b.b.b.b.b.b.< -         # & ` >XVX6X3.` ` ` ` * * r r r y % o u.f.f.b.b.b.b.b.b.b.b.d.",
"x.x.b.b.b.b.b.b.b.x.x.a.-.o         @ 9.D.D.Z.v.b.V.V.x.- O t y i y % o u.b.b.b.b.b.b.M.M.b.b.v.",
"b.b.b.b.b.b.M.M.b.c.x.a.a.>.$     , >.z.i.i.v.M.b.b.b.b.u.=.O 5.r.y % o u.b.b.b.b.b.b.M.b.N.4X6X",
"b.b.b.b.b.b.b.M.M.A.F.F.n.b.< - - -.V.b.M.M.M.b.b.M.M.b.b.>.; < 5.: ; ; h.b.b.b.b.b.b.b.N.3XBXGX",
"b.b.b.b.b.b.g.b.S.uXBXBX2Xn.b.b.b.b.b.b.b.b.b.b.b.b.b.b.b.M.N.; . . < C.b.b.b.b.b.b.b.b.5XBXNXfX",
"b.b.b.b.b.b.b.A.5XMXVXNXiXJ.v.b.b.b.b.b.b.b.b.b.b.B.g.g.g.g.b.>.;.=.>.b.b.b.b.b.b.b.b.n.uXGXfX0X"
};
