/* XPM */
static char * perso_right_xpm[] = {
"48 48 213 2",
"  	c #93DC55",
". 	c #B5E487",
"+ 	c #D5F1B9",
"@ 	c #D3EBB1",
"# 	c #8DB24D",
"$ 	c #8EA73D",
"% 	c #8F8F4D",
"& 	c #A6A06B",
"* 	c #C8CC9C",
"= 	c #F7F7C6",
"- 	c #C9E696",
"; 	c #8F712C",
"> 	c #965A24",
", 	c #A76A35",
"' 	c #F7D070",
") 	c #EBEFC3",
"! 	c #ABE179",
"~ 	c #CAE8A8",
"{ 	c #D2684A",
"] 	c #F38474",
"^ 	c #F6BAA8",
"/ 	c #E4B49A",
"( 	c #D6B38F",
"_ 	c #DAF6C6",
": 	c #F8FCE4",
"< 	c #F8FADA",
"[ 	c #92B855",
"} 	c #908B54",
"| 	c #8F3A32",
"1 	c #CC544A",
"2 	c #E16C6F",
"3 	c #FEAB9E",
"4 	c #E6A68D",
"5 	c #C89271",
"6 	c #B68358",
"7 	c #B4D38C",
"8 	c #E7F7D3",
"9 	c #FBF2A8",
"0 	c #F6EC8A",
"a 	c #927054",
"b 	c #8D0C51",
"c 	c #930B53",
"d 	c #931353",
"e 	c #B52C55",
"f 	c #F56665",
"g 	c #B65839",
"h 	c #FAC5B5",
"i 	c #8E6825",
"j 	c #AEE282",
"k 	c #F3F2B3",
"l 	c #F7ED78",
"m 	c #F6E95E",
"n 	c #E7F4C7",
"o 	c #90324F",
"p 	c #AA4972",
"q 	c #E44A96",
"r 	c #EC76AF",
"s 	c #E6C9D8",
"t 	c #CF8AB4",
"u 	c #A71356",
"v 	c #8C1948",
"w 	c #C76646",
"x 	c #F2EF94",
"y 	c #92A554",
"z 	c #955260",
"A 	c #AA1D67",
"B 	c #D6428B",
"C 	c #FE67B1",
"D 	c #F590C6",
"E 	c #FEB9DA",
"F 	c #FFFFFF",
"G 	c #F9DCEA",
"H 	c #B24D89",
"I 	c #A83879",
"J 	c #AE2B6B",
"K 	c #D74D6A",
"L 	c #8D1652",
"M 	c #D03D85",
"N 	c #FF63AE",
"O 	c #FF71B6",
"P 	c #FEE8F5",
"Q 	c #FF9CCB",
"R 	c #EB5198",
"S 	c #8F2E36",
"T 	c #8E7853",
"U 	c #F95BA7",
"V 	c #DB4892",
"W 	c #83C44C",
"X 	c #91AA54",
"Y 	c #B81564",
"Z 	c #D33274",
"` 	c #C30E62",
" .	c #E9257A",
"..	c #BAE597",
"+.	c #8B0C4E",
"@.	c #D16B9C",
"#.	c #F6A7D4",
"$.	c #FEC0DE",
"%.	c #F677B8",
"&.	c #C54481",
"*.	c #925254",
"=.	c #ADAF89",
"-.	c #9A2566",
";.	c #DCB3C9",
">.	c #F98BBD",
",.	c #B97091",
"'.	c #F2EA6A",
").	c #F5B5E6",
"!.	c #FFF7FD",
"~.	c #E91C74",
"{.	c #F04E94",
"].	c #9A1B63",
"^.	c #A64468",
"/.	c #F6BCED",
"(.	c #F8D2EC",
"_.	c #F1398C",
":.	c #D71468",
"<.	c #B70D5E",
"[.	c #E4126C",
"}.	c #EF2E83",
"|.	c #F1EDEB",
"1.	c #F9C9F2",
"2.	c #E50F6B",
"3.	c #8F6C52",
"4.	c #F9C1F1",
"5.	c #A30D59",
"6.	c #9A0B55",
"7.	c #C61163",
"8.	c #F3B9E9",
"9.	c #FD978A",
"0.	c #B14F4C",
"a.	c #B8165D",
"b.	c #C873AA",
"c.	c #946855",
"d.	c #9A1559",
"e.	c #312724",
"f.	c #473B36",
"g.	c #FDCDBD",
"h.	c #351C10",
"i.	c #FB7369",
"j.	c #DA0E67",
"k.	c #DA91C4",
"l.	c #C33757",
"m.	c #EC5F64",
"n.	c #8D0650",
"o.	c #FF8D83",
"p.	c #7A645C",
"q.	c #8F7269",
"r.	c #B7656F",
"s.	c #FE7C73",
"t.	c #FFD1C1",
"u.	c #8D561E",
"v.	c #8F591F",
"w.	c #8D4152",
"x.	c #AB7747",
"y.	c #E9468A",
"z.	c #D12A57",
"A.	c #951647",
"B.	c #E7715E",
"C.	c #90581F",
"D.	c #A82E2F",
"E.	c #B40B34",
"F.	c #D9ADC5",
"G.	c #CE1653",
"H.	c #E75159",
"I.	c #B36C48",
"J.	c #954727",
"K.	c #AD5C32",
"L.	c #FDB6A9",
"M.	c #BE0C3C",
"N.	c #A7512E",
"O.	c #8E462A",
"P.	c #C86E34",
"Q.	c #EA1869",
"R.	c #D7893D",
"S.	c #D57850",
"T.	c #93413C",
"U.	c #D2A05E",
"V.	c #E52F71",
"W.	c #9B3867",
"X.	c #E28958",
"Y.	c #C4393E",
"Z.	c #9C8738",
"`.	c #B61537",
" +	c #920947",
".+	c #7F094A",
"++	c #83084B",
"@+	c #400122",
"#+	c #0D0605",
"$+	c #51742F",
"%+	c #77452E",
"&+	c #4E5324",
"*+	c #000000",
"=+	c #304A1C",
"-+	c #66953B",
";+	c #8E5521",
">+	c #D1AC56",
",+	c #130D0B",
"'+	c #11180A",
")+	c #74AD44",
"!+	c #6F083E",
"~+	c #553916",
"{+	c #2C2614",
"]+	c #72242E",
"^+	c #263816",
"/+	c #261608",
"(+	c #AE3E81",
"_+	c #774A19",
":+	c #38250E",
"<+	c #1D2B11",
"[+	c #B7954A",
"}+	c #5A8A36",
"|+	c #A5C977",
"                                                              . + @                             ",
"                                                        # $ % & * = -                           ",
"                                                        ; > > > , ' ) +                         ",
"      ! ~ ~                                         $ ; { ] ^ ^ / , ( _                         ",
"      + : < ~                           [ } } } } % ; | 1 2 3 4 5 6 5 7                         ",
"    8 < 9 0 = +                         a b c c d d d d d e f g , h 5 i                         ",
"  j : k l m k n                   } o o p q q r s s s s s t u v o ] w i                         ",
"    @ k x 0 k ~                 y z A A B C D E F F F F F G H I J K g i                         ",
"      ~ : : 7                 [ L M N N N O P F F F F F F F F Q R d S i                         ",
"        7 7                 T z B U N N N O P F F F F F F F F Q U V J o                         ",
"          W               X o Y N N N N N O P F F F F F F F F Q N C Z L       j .               ",
"                        X L `  .U N N N N O P F F F F F F F F Q N N Z v     ..< : @             ",
"                        y +.@.#.$.D N N N C Q $.F F F F F P #.%.N N R &.*.=.8 = 9 k +           ",
"                        & -.;.F F E O N N N U >.G G G G G E U U N N O r d ,.< 9 '.9 :           ",
"                    7 p p ).P F F !.G O N U  .~. . . . . . .~.{.C N E G ].,.= 0 '.x 8           ",
"                  ~ n ^.I /.(.P F F P {._._.~.:.<.<.<.<.<.` [.}._._.#.|.-.z * < = @             ",
"                  _ < ^.I /./.1.!.!.G  .[.[.[.` d d d d d u :.[.[.2.>.G -.3.  ~ @ 7             ",
"                  + = ^.I /.4.4.1.1.). .[.[.5.e f f f f f K 6.7.[.2.%.8.].3.  W #               ",
"                    7 ^.I /.4.4./.4.#. .:.Y e 2 9.0.0.9.0.o e a.7.[.V b.c.y                     ",
"                      z I )./.4.4./.#. .<.d.f 9.h e.f.g.f.h.i.e 6.j.<.o                         ",
"                      # T -.k.1.1.%. .5.l.m.f 9.h e.f.g.f.e.^ p n.6.c.[                         ",
"                        # *.,.t t V j.c l.i.o.3 g.p.q.g.q.p.g.r.S S %                           ",
"                            *.b b ` :.c l.s.h t.t.t.t.g.g.g.t.6 u.v.$                           ",
"                  X w.w.w.w.&.q :.<.d.| 1 s.h t.t.t./ x./ t.t.6 i #                             ",
"        y y y y y a A 5.6.n.K y.z.u A.| g B.3 h t.t./ x./ h / x.i                               ",
"      a b b +.b +.J U  .7.b | > C.D.E.E.D.> B.9.t.t.g.g.t./ > C.;                               ",
"    *.,.F.F.@.` c A }.~.G.| 1 B.4 2 H.G.G.D.g I.6 6 6 6 6 I.D.J.;                               ",
"  [ L t F P >.[.6.5.:.:.l.K.B.o.L.] m.:.G.M.> > J.J.J.J.> N.M.D.i                               ",
"  [ L t !.>.{.[.6.b c O.K.f 3 L.s.P.J.+.<.Q.R.P.E.:.G.E.P.S.2.G.D.                              ",
"  [ L &.r _.R r ].o } i K.i.L.g.3 4 5 T.e Q.U.S.E. .y.V.1 1 ] l.D.                              ",
"    o a.j.j.R #.W.3.  ; K.i.3 t.t.t.h x.0.V.' X.E.{.N N G.Y.' 1 D.                              ",
"      c.c c d -.y     ; K.i.L.t.t.t.g.h 5 > ' X.E.{.N N G.Y.' 1 D.                              ",
"      y 3.a 3.T       # Z.w ] 3 g.t.g.3 S.> { H.Z U N N y.K S.e A.3.X                           ",
"                        # i { s.h g.L.i.w J.`.Z N U U U U y.E. +.+++T                           ",
"                            Z.K.s.s.i.K.D.`.y.U N J d.d.d.d. +@+#+#+$+                          ",
"                          } 0.0.{ { { g l.Z M B B ,.,.H ].+.S %+&+*+=+-+                        ",
"                        y +.` z.;+;+J.:._.U A d d.s P ).I v ;+>+>+,+*+'+W                       ",
"                        )+,+!+6.v v v 6.5.J ;.s s (.F.I w.O.> ~+{+*+*+'+W                       ",
"                      )+$+h.]+v +.-.H H H H (.G ;.k.,.+.O.v.;+h.*+*+*+'+W                       ",
"                      ^+/+u.v.O.+.b.4./././.4.b.b b b b O.v.u.h.*+*+*+'+W                       ",
"                      ^+/+u.v.;+O.^.(+I I I I ,.y y 3.+.O._+/+#+*+*+*+'+W                       ",
"                      ^+/+u.v.v.v.]+!+o p p W.q.    X o %+~+*+*+*+*+'+=+                        ",
"                      ^+/+u.v.v.C.:+'+=.< 8 7 [         ^+*+*+*+*+*+$+                          ",
"                      <+/+u.[+[+:+&+-+                  )+$+*+*+'+}+)+                          ",
"                      =+{+_+[+[+<+}+                      )+<+<+=+                              ",
"                        -+#+#+^+W                                                               ",
"                        |+$+$+}+                                                                ",
"                          j                                                                     "};
