/* XPM */
static char *_8480bc2a9f94a06e9da8e58842f66ebEezXFtegsk6FXtoM[] = {
/* columns rows colors chars-per-pixel */
"48 48 250 2 ",
"   c #020202",
".  c #0B0402",
"X  c #0A0B05",
"o  c #120D07",
"O  c #14180C",
"+  c #28160A",
"@  c #15230D",
"#  c #363014",
"$  c #2B2421",
"%  c #5C3B16",
"&  c #552E22",
"*  c #3B601E",
"=  c #7C4C1B",
"-  c #4C5133",
";  c #466928",
":  c #466A29",
">  c #4D752E",
",  c #6D6632",
"<  c #730941",
"1  c #694A45",
"2  c #9F1E3D",
"3  c #B50E38",
"4  c #8E3E2F",
"5  c #923836",
"6  c #BA2936",
"7  c #A53937",
"8  c #B33B3B",
"9  c #C1303B",
"0  c #8E5A1F",
"q  c #90591F",
"w  c #8E5321",
"e  c #8E5A22",
"r  c #935823",
"t  c #954833",
"y  c #A25C2B",
"u  c #AB5533",
"i  c #97622A",
"p  c #986832",
"a  c #9E6B35",
"s  c #8F7A3E",
"d  c #AF762C",
"f  c #A66A39",
"g  c #C1673C",
"h  c #8A064D",
"j  c #8B0C4F",
"k  c #8B1648",
"l  c #94174A",
"z  c #8E0551",
"x  c #8D0B51",
"c  c #990A55",
"v  c #9A0956",
"b  c #8D1651",
"n  c #951557",
"m  c #A40B58",
"M  c #AB0C5A",
"N  c #A8145A",
"B  c #B9175B",
"V  c #8A2549",
"C  c #922E51",
"Z  c #8D3B51",
"A  c #B3334A",
"S  c #B92D59",
"D  c #B63059",
"F  c #BD365A",
"G  c #991E63",
"H  c #A71B67",
"J  c #A81D66",
"K  c #BE1261",
"L  c #9B2866",
"P  c #A72469",
"I  c #AB2A71",
"U  c #A63474",
"Y  c #CF155B",
"T  c #C7344A",
"R  c #CC255C",
"E  c #D30D63",
"W  c #CE1165",
"Q  c #E70D68",
"!  c #E2116B",
"~  c #EA126A",
"^  c #E81972",
"/  c #EC1B74",
"(  c #CF2D70",
")  c #C6397D",
"_  c #EF257A",
"`  c #8C454E",
"'  c #8D4752",
"]  c #964F57",
"[  c #8D5152",
"{  c #8E5C51",
"}  c #8E6651",
"|  c #916F54",
" . c #B67754",
".. c #9D476A",
"X. c #B3476C",
"o. c #A8467B",
"O. c #9F736F",
"+. c #A76C74",
"@. c #DC5758",
"#. c #C86644",
"$. c #CC6E57",
"%. c #EB6C5B",
"&. c #E65E66",
"*. c #F56865",
"=. c #FF746B",
"-. c #FB7A6E",
";. c #65953B",
":. c #66973A",
">. c #7BB649",
",. c #7ECA46",
"<. c #D49638",
"1. c #8E8952",
"2. c #928854",
"3. c #929554",
"4. c #909A54",
"5. c #BA8C52",
"6. c #8BAD51",
"7. c #92A855",
"8. c #87B952",
"9. c #92B354",
"0. c #92BC55",
"q. c #B29078",
"w. c #99A069",
"e. c #CE894C",
"r. c #E6905C",
"t. c #D1AB55",
"y. c #E4B355",
"u. c #CA8866",
"i. c #CC9876",
"p. c #D09D7C",
"a. c #F2897C",
"s. c #EEBE63",
"d. c #84C949",
"f. c #91C84D",
"g. c #85D34A",
"h. c #8AD54C",
"j. c #89D84A",
"k. c #91D34E",
"l. c #92DD4E",
"z. c #8AC857",
"x. c #92C355",
"c. c #93C95A",
"v. c #8EDC53",
"b. c #8DDA54",
"n. c #92D555",
"m. c #93DC55",
"M. c #96D65A",
"N. c #93DC59",
"B. c #99DB5C",
"V. c #8EE04E",
"C. c #93E056",
"Z. c #93E158",
"A. c #9CCD68",
"S. c #9CD965",
"D. c #A2DB69",
"F. c #A8CF79",
"G. c #A9DB78",
"H. c #ABE179",
"J. c #F6E95E",
"K. c #F7C968",
"L. c #F3E968",
"P. c #F5EC78",
"I. c #D03D88",
"U. c #EE3587",
"Y. c #F53E90",
"T. c #B04F87",
"R. c #B3598C",
"E. c #B96B90",
"W. c #D24689",
"Q. c #DD4792",
"!. c #DF4994",
"~. c #EA4A8A",
"^. c #EF4592",
"/. c #F54797",
"(. c #ED579D",
"). c #F4569C",
"_. c #D66A94",
"`. c #F858A3",
"'. c #FC5EAA",
"]. c #D177AD",
"[. c #F263AA",
"{. c #FE62AD",
"}. c #FF65B0",
"|. c #FF6BB2",
" X c #FD75B7",
".X c #AD8786",
"XX c #B9988C",
"oX c #D69885",
"OX c #F69189",
"+X c #FC998C",
"@X c #D4A383",
"#X c #C7A49A",
"$X c #EEB09C",
"%X c #C98BAD",
"&X c #FB82B9",
"*X c #F495BD",
"=X c #FDAAA0",
"-X c #EBBCA7",
";X c #FDB9AB",
":X c #B3D689",
">X c #B0D58A",
",X c #AEE282",
"<X c #B5E388",
"1X c #BAE597",
"2X c #BFE7A5",
"3X c #C0D899",
"4X c #C9E696",
"5X c #F7EC89",
"6X c #F1EE94",
"7X c #C8CEAC",
"8X c #F0C2AC",
"9X c #E6C3B8",
"0X c #F9C7B6",
"qX c #CAE8A9",
"wX c #D4E8AC",
"eX c #D3EDB7",
"rX c #D4F1B8",
"tX c #E9EFAD",
"yX c #FBF2A8",
"uX c #FCF5B9",
"iX c #DA90C6",
"pX c #F285C3",
"aX c #FF8BC3",
"sX c #FC9CCF",
"dX c #D6AAC2",
"fX c #E8A5D9",
"gX c #FFA6D1",
"hX c #FBAAD5",
"jX c #FFB4D8",
"kX c #EFAFE1",
"lX c #F5B9EA",
"zX c #DACAC1",
"xX c #FFD3C3",
"cX c #EDC7D9",
"vX c #DCF1C2",
"bX c #EDE8CD",
"nX c #E7F5C8",
"mX c #F8F8C6",
"MX c #E6F8D3",
"NX c #F9FADA",
"BX c #F7CDE8",
"VX c #FFDAEC",
"CX c #FACBF4",
"ZX c #FBD9F3",
"AX c #F7EFEC",
"SX c #F8FDE4",
"DX c #FDE8F5",
"FX c #FBF1F6",
"GX c #FEF4FA",
"HX c #FFFEFF",
/* pixels */
"m.l.l.N.N.m.m.m.m.m.b.g.v.m.m.m.m.m.m.m.m.m.m.m.b.m.m.N.m.l.m.<XeXeXG.N.m.m.m.m.m.m.k.m.N.S.4XnX",
"m.m.b.N.m.m.N.N.m.m.b.d.j.m.m.m.m.m.m.C.C.C.C.m.C.C.C.N.m.B.G.vXSXmX4XD.N.m.m.m.m.n.h.m.N.D.MXSX",
"N.b.,.j.m.B.N.m.m.N.m.k.m.m.m.m.m.m.x.4.4.4.4.4.4.4.4.7.m.G.MXNXuX5XmXeXS.m.m.m.m.m.m.m.l.D.MXmX",
"N.l.h.H.qXqXH.m.m.m.N.m.m.m.m.n.n.m.2.x x x x x x x x C k.G.NXuX5XL.uXvXS.N.m.m.m.m.m.m.m.S.>X4X",
"m.B.G.rXSXNXqXG.N.m.m.N.m.m.m.1.` ` X.!.Q.Q.Q.Q.Q.Q.!.W.' ' +.6X5XP.tXqXB.m.m.m.m.m.m.m.v.v.d.F.",
"v.G.MXNXuX5XmXrXS.m.m.m.m.n.9.] H H I.}.&XaXaXaXaXaX X`.J H P #XbXNX>Xc.m.m.m.m.m.m.m.N.N.l.N.c.",
"l.G.SXuXP.J.uXnXS.N.m.m.m.0.b ) {.{.{.|.VXHXHXHXHXHXsX'.'.{.(.n O.>XA.n.m.m.m.N.N.m.m.m.N.m.m.n.",
"m.D.eXtX6X5XtXqXS.N.m.C.1.] W.(.{.{.aXBXGXHXHXHXHXHXVXjX}.{.'.Q.X.[ 0.N.m.m.m.m.m.m.m.m.m.m.m.m.",
"m.M.x.qXSXSX>Xc.m.m.n.0.] J '.{.{.{.gXHXHXHXHXHXHXHXHXDX|.{.{.}.I.G 3.f.m.m.m.m.m.m.m.m.m.m.m.m.",
"m.N.k.F.>X>XA.n.m.C.9.b W.'.{.{.{.{.gXHXHXHXHXHXHXHXHXVX|.{.{.{.'.(.n } m.m.m.m.N.m.m.m.b.g.b.m.",
"m.N.m.c.z.d.n.m.m.C.9.j ].jX|.{.{.{.gXHXHXHXHXHXHXHXHXDX|.{.{.{.aXhXG { N.N.S.<X<XG.N.m.h.d.b.m.",
"N.m.m.m.l.m.N.m.m.c.7.L dXGX&X|.{.{.sXGXHXHXHXHXHXHXGXVX|.{.{. XjXFXo.} x.M.1XNXSXeXS.m.m.m.m.m.",
"N.m.m.m.l.N.N.m.m.{ o.BXFXHXGXgX{.{.|. XDXHXHXHXHXHXgX X}.{. XVXGXHXAX%XC 7XnXmXyXtXrXD.m.m.m.m.",
"m.m.m.N.m.m.N.m.n.` U ZXGXHXHXjX'./.Y.^.&X*X*X*X*X*X`.Y.Y.`. XGXHXHXGX%Xb zXNXyXL.yXSXG.m.m.m.m.",
"N.N.N.m.m.l.m.k.k.` I lXDXHXHXhX`./ ! ! ! ! ! ! ! ! ! ! ! Y. XDXHXGXCX].b 7XmX5XL.6XMXG.m.m.m.m.",
"m.m.N.N.N.m.m.m.M.' I lXCXCXCX X/ ^ W c c c c c c c c M ! / U.lXCXCXCX].j w.3XNXmXwXF.M.m.m.m.m.",
"1X<XB.l.v.N.m.N.B..XE.].fXlXpX^.Q W B D D D D D D D D S W E /  XsXlXiXE.{ 6.F.qXwX>Xz.m.m.m.m.m.",
"SXnXG.B.l.m.N.N.N.rX9Xb ].hX/ ~ ! c F =.*.=.=.=.=.*.=.&.n W ~ Q [.kXG { m.m.n.d.8.z.m.m.m.m.m.m.",
"yX6XnX<XN.m.m.m.m.A.q.x ( U.~ W N @.OX=X& 1 ;X;XoX# q.=X&.S M Q _ U.c { m.N.m.n.n.n.N.d.g.m.m.m.",
"P.P.NX1Xm.m.m.m.v.d.6.' B E E M n *.+X0X$ - xXxXXX  .X0X=.F z W E W Z 1.m.m.m.m.N.m.m.j.h.m.m.m.",
"L.5XnX1XN.l.m.m.v.g.d.8.[ z x x n *.+X0X$ - xXxXXX  .X0X=.F x x x b 0.m.m.m.m.m.m.m.m.v.v.m.m.m.",
"NXnXF.M.m.m.m.m.v.v.v.v.{ n W.I n *.+X0XXX#XxXxX8X.X-X;X=.F n W.I b 0.C.m.m.m.m.m.m.m.d.g.m.m.m.",
"qX1Xc.n.m.m.m.m.N.m.n.9.' n /.( N @.a.;X0X0X$X$X-XxX0X=X%.F N /.) b 3.x.m.m.m.m.m.m.m.h.h.m.m.m.",
"8.d.m.m.m.m.m.m.N.C.9.b x c ! ~ ! t #.-.0X@Xr r  .0X+X%.r T ~ ~ K x j } m.m.m.m.m.m.m.m.m.v.v.v.",
"n.k.N.N.m.m.m.N.m.1.] W.A 5 8 8 8 w y #.a.+X@X@X@X+X$.u q t 8 8 7 5 ) X.} x.C.m.m.m.m.m.m.b.g.g.",
"m.m.m.m.m.m.x.0.0.Z N (. .a a i q a i r @.a.8X8X$X*.u e a r 0 a a f _.) j 3.0.0.n.m.m.m.m.N.h.j.",
"m.m.m.m.m.m.` b b j k r p.0X0Xu.i -Xi.w l C i i t n t f 8X5.p -X0X-Xf 5 x b b b 7.C.m.m.m.N.m.V.",
"m.m.m.m.9.| .X%X%X) B w @XxXxXi.r OXu.w k l A A A x 4 f +X .p 0XxX0Xa 7 K E.%X%XO.1.m.N.m.m.m.l.",
"m.m.m.C.1.x cXHXGX).Y w p.xXxXi.y %.#.r l M / / W x t f %.g f 0XxX0Xa 8 / cXHXHXT.Z n.m.m.m.N.l.",
"m.m.m.C.1.n cXVX XU.Y w @XxXxX+X%.y e.s.6 R `.'.~.3 r.y.y #.-.0XxX0Xa 8 ~ '.gXHXT.Z n.m.m.m.N.m.",
"m.m.m.C.1.x ].&XY.).!.5  .p.p.u.#.d t.K.9 R {.}.~.3 r.K.d g $.i.p.i.t X.`./.).*XI Z n.m.m.m.N.m.",
"l.m.m.C.3.b E ~ ! pXiXn t 0 w w r <.y.K.9 R {.{.~.3 r.K.<.d w w e e k R.kXU.Q Q N ` n.m.m.m.m.N.",
"m.m.m.m.c.9.C c c H ..9.x.6.V k k 6 6 T ~.).{.{.'.).T 6 6 2 k k | f.0.| P c c c 2.x.m.N.m.m.b.b.",
"B.m.N.m.m.m.| [ [ [ | m.9.2.N M M R R R `.}.{.{.{.}.( R R B M M ] 4.n.7.[ [ [ [ 9.C.m.N.m.v.d.g.",
",Xm.N.h.g.m.m.m.m.m.m.m.{ c ! ! ^ `.{.{.{.{.{.{.{.{.{.{.{.U.! ! K b 0.m.m.m.m.m.m.m.m.m.m.v.h.v.",
"1Xm.N.j.g.m.m.m.m.m.m.m.{ z m m m J J J J J P P P J J J J N m m c b 0.m.m.m.m.m.m.m.m.m.m.m.m.m.",
"1Xm.N.m.m.N.m.m.m.m.m.m.| Z ` V x U o.o.o.U j j n o.o.o.U G j Z ` [ x.m.m.m.m.h.n.m.m.m.m.m.m.N.",
"S.N.N.m.m.m.m.m.m.m.m.m.m.N.m.| n fXZXGXHXdXx h o.FXHXFXCXR.V x.m.m.m.m.m.m.m.m.m.m.m.m.m.m.m.m.",
"n.N.N.m.m.m.m.m.m.m.m.m.m.m.m.0.2.T.T.R.R.o.x x G R.R.R.T.O.7.n.m.m.m.m.m.m.m.m.m.m.m.m.m.m.m.m.",
"N.m.m.m.m.m.m.m.m.m.m.m.m.m.m.z.>.V k k k k < < < k k k k } >.m.m.m.m.m.m.m.m.m.m.m.m.m.m.m.m.m.",
"m.m.m.m.m.m.m.m.m.m.m.m.m.h.g.: o = w w w % .   + w w w w # @ d.m.m.m.m.m.m.m.m.m.m.m.m.m.m.m.m.",
"b.h.m.m.m.m.m.m.m.m.m.m.m.d.* , s r q q r %     + 0 q q q p s : ;.m.m.m.m.n.n.m.m.m.m.m.m.m.m.b.",
"g.d.m.m.m.m.m.m.m.m.m.m.C.>.X , y.e = = = % O O # = = = = 5.t.o : C.m.m.m.k.k.m.m.m.m.m.m.m.m.h.",
"b.b.m.m.m.m.m.m.m.v.b.,.v.>.X . o . . . . # 8.d.;.X . . . o o   : C.m.m.m.m.m.m.m.m.m.N.N.m.m.n.",
"m.m.m.m.m.m.N.N.m.v.b.g.l.g.> : : : : : : ;.n.B.,.: : : : : : : ;.m.m.m.m.m.m.m.m.m.m.N.m.B.<X2X",
"m.m.m.m.m.m.m.m.m.S.D.D.B.m.C.C.Z.m.C.N.B.B.N.m.m.B.N.N.m.m.C.m.m.m.m.m.m.m.m.m.m.m.m.m.B.,XMXSX",
"m.m.m.m.m.m.l.m.S.qXMXMX>XM.m.m.m.m.m.m.m.m.m.m.m.m.m.m.m.N.N.N.N.N.m.m.m.m.m.m.m.m.m.m.1XMXmXyX",
"m.m.m.m.m.m.m.S.4XnXSXmXwXH.M.m.m.m.m.m.m.m.m.m.m.v.l.l.l.l.m.N.N.N.N.m.m.m.m.m.m.m.m.B.qXSXyX5X"
};
