/* XPM */
static char * perso_back_xpm[] = {
"48 48 394 2",
"  	c #8ED552",
". 	c #8ED64A",
"+ 	c #8ED557",
"@ 	c #89D550",
"# 	c #89D656",
"$ 	c #88CD43",
"% 	c #89CD4F",
"& 	c #88D549",
"* 	c #9CD362",
"= 	c #A0D376",
"- 	c #A1D376",
"; 	c #96D35E",
"> 	c #A3D564",
", 	c #CDDCA1",
"' 	c #78C43D",
") 	c #92D060",
"! 	c #CCE3AF",
"~ 	c #ECF6E4",
"{ 	c #ECF6D6",
"] 	c #ADDB7F",
"^ 	c #96D059",
"/ 	c #8DCE51",
"( 	c #87C64A",
"_ 	c #96CF68",
": 	c #DDF5CE",
"< 	c #F2F3D9",
"[ 	c #80CD47",
"} 	c #95D259",
"| 	c #86CD49",
"1 	c #9ED566",
"2 	c #CFE5B8",
"3 	c #EAECCF",
"4 	c #F5EEC0",
"5 	c #F2E998",
"6 	c #DBE7B4",
"7 	c #C2E49E",
"8 	c #E5F5DC",
"9 	c #F3EEC5",
"0 	c #7DC742",
"a 	c #A6DA77",
"b 	c #ACD67B",
"c 	c #8FD552",
"d 	c #8AD550",
"e 	c #8AD656",
"f 	c #A5D571",
"g 	c #F5E696",
"h 	c #F2E46B",
"i 	c #DAEFC0",
"j 	c #CEE9B5",
"k 	c #E4E7A4",
"l 	c #C3E4A3",
"m 	c #EDF5DE",
"n 	c #B2D884",
"o 	c #8E5C51",
"p 	c #8D1651",
"q 	c #EBF6D0",
"r 	c #ECEC94",
"s 	c #EDE46A",
"t 	c #E5DC55",
"u 	c #EEF0B7",
"v 	c #DAF0C7",
"w 	c #82B850",
"x 	c #B7CE8B",
"y 	c #E4EDC5",
"z 	c #EEEAA5",
"A 	c #DAEAB6",
"B 	c #BFE499",
"C 	c #96D35F",
"D 	c #8DCF51",
"E 	c #A8467B",
"F 	c #FFFFFF",
"G 	c #863863",
"H 	c #A0C479",
"I 	c #D7E2AF",
"J 	c #F2EEB7",
"K 	c #BAD18D",
"L 	c #9FCD78",
"M 	c #99C668",
"N 	c #96CC72",
"O 	c #ECF5E3",
"P 	c #F5EA8F",
"Q 	c #F1E461",
"R 	c #F0F3C5",
"S 	c #D3EBBA",
"T 	c #FE62AD",
"U 	c #D87CA6",
"V 	c #86BF50",
"W 	c #B8D495",
"X 	c #D0E6BD",
"Y 	c #9CC76B",
"Z 	c #88C54F",
"` 	c #8ECE58",
" .	c #98D16C",
"..	c #E5F5D4",
"+.	c #ECE577",
"@.	c #EDEFB6",
"#.	c #D5ECB4",
"$.	c #96CF60",
"%.	c #BAABA9",
"&.	c #E4829F",
"*.	c #81B74A",
"=.	c #8EC858",
"-.	c #92D05F",
";.	c #9CC371",
">.	c #F3F2CE",
",.	c #BCCE90",
"'.	c #99C36F",
").	c #E7AFC3",
"!.	c #8ECF51",
"~.	c #8DCD4A",
"{.	c #B0D186",
"].	c #CEE0B5",
"^.	c #CCE2AF",
"/.	c #9DC471",
"(.	c #87CE49",
"_.	c #8ABF5A",
":.	c #87B557",
"<.	c #80B74A",
"[.	c #631A45",
"}.	c #FFDADD",
"|.	c #FFE1E2",
"1.	c #8FD557",
"2.	c #8FD45E",
"3.	c #96CF61",
"4.	c #7AC43F",
"5.	c #E9C0BE",
"6.	c #EBF2E3",
"7.	c #ADDC80",
"8.	c #DBF0C7",
"9.	c #E2F2CF",
"0.	c #C6E8A4",
"a.	c #EAA8B5",
"b.	c #E8819D",
"c.	c #A8DC83",
"d.	c #F3F4D6",
"e.	c #DDEAB1",
"f.	c #B3DC8F",
"g.	c #A9848B",
"h.	c #FFBFD4",
"i.	c #EBF1DE",
"j.	c #D7EDC3",
"k.	c #F4EDAF",
"l.	c #F0EA7B",
"m.	c #EDEC9F",
"n.	c #9FD56F",
"o.	c #FEF3F5",
"p.	c #C96189",
"q.	c #D7EEC3",
"r.	c #EEE684",
"s.	c #E9DF57",
"t.	c #ECE480",
"u.	c #F1F6E4",
"v.	c #A0D56F",
"w.	c #B5D48D",
"x.	c #D1DDA9",
"y.	c #F1EBA7",
"z.	c #EFE692",
"A.	c #E0E496",
"B.	c #C1D8A4",
"C.	c #672B4F",
"D.	c #F698B3",
"E.	c #EA6DA2",
"F.	c #EEF6F1",
"G.	c #A7C981",
"H.	c #E5F5DD",
"I.	c #DFF7C0",
"J.	c #9BD05D",
"K.	c #EA86A6",
"L.	c #EE3587",
"M.	c #F2EFBF",
"N.	c #E7EBAD",
"O.	c #CAE3A2",
"P.	c #A8D97D",
"Q.	c #A9D57F",
"R.	c #E2E1D2",
"S.	c #F66AA6",
"T.	c #89C456",
"U.	c #F0E783",
"V.	c #B8E198",
"W.	c #CCD7E2",
"X.	c #CCC7C5",
"Y.	c #F9CBE3",
"Z.	c #F56EA6",
"`.	c #928CAE",
" +	c #7AC440",
".+	c #81CD47",
"++	c #E9E361",
"@+	c #E2DA6B",
"#+	c #B8E298",
"$+	c #C57899",
"%+	c #EF60A2",
"&+	c #ECE4CF",
"*+	c #E7E7D8",
"=+	c #8FD652",
"-+	c #EAE8AA",
";+	c #BDCE90",
">+	c #8CD150",
",+	c #B86698",
"'+	c #832A6A",
")+	c #8C4F71",
"!+	c #EE829D",
"~+	c #9E4174",
"{+	c #E2EDD5",
"]+	c #C56799",
"^+	c #C874A8",
"/+	c #C669A5",
"(+	c #BB5992",
"_+	c #C15A92",
":+	c #B6558C",
"<+	c #923A6C",
"[+	c #A2527B",
"}+	c #75306B",
"|+	c #DD5B93",
"1+	c #F7F6F5",
"2+	c #83B950",
"3+	c #8FD64A",
"4+	c #EACAC4",
"5+	c #ECE4D3",
"6+	c #906C87",
"7+	c #ECF4EA",
"8+	c #D77466",
"9+	c #D3686A",
"0+	c #EA408B",
"a+	c #F2EBD9",
"b+	c #ED789F",
"c+	c #8BC84F",
"d+	c #CE75B0",
"e+	c #C06463",
"f+	c #D27878",
"g+	c #C96CA1",
"h+	c #D26D8F",
"i+	c #E57B6A",
"j+	c #F2EDE1",
"k+	c #B8769A",
"l+	c #C06B9C",
"m+	c #D08DAA",
"n+	c #F6C398",
"o+	c #F4BC98",
"p+	c #F2A789",
"q+	c #D68472",
"r+	c #D2756C",
"s+	c #98D568",
"t+	c #C2447C",
"u+	c #A87494",
"v+	c #524853",
"w+	c #FACED7",
"x+	c #AD6AA9",
"y+	c #E64688",
"z+	c #E9ECDC",
"A+	c #B0DD87",
"B+	c #E8F7E4",
"C+	c #ECF6D1",
"D+	c #CDE9AF",
"E+	c #F4BC93",
"F+	c #923D6C",
"G+	c #EFE785",
"H+	c #88D94C",
"I+	c #964C86",
"J+	c #EC759C",
"K+	c #F4F5E7",
"L+	c #F4F3CF",
"M+	c #F2ECA8",
"N+	c #E3E9AA",
"O+	c #EF91B0",
"P+	c #D63C82",
"Q+	c #522444",
"R+	c #AD948F",
"S+	c #F3B7B8",
"T+	c #B296AA",
"U+	c #F19CAC",
"V+	c #F4F4D6",
"W+	c #F3EA98",
"X+	c #F5E579",
"Y+	c #E5CBB6",
"Z+	c #523C37",
"`+	c #A9D67F",
" @	c #A34B80",
".@	c #79315A",
"+@	c #C494C0",
"@@	c #A04474",
"#@	c #A03B6F",
"$@	c #DBF1C8",
"%@	c #F1F2C1",
"&@	c #F3E46B",
"*@	c #D39F8A",
"=@	c #8FD74B",
"-@	c #E75EA9",
";@	c #E7D6D4",
">@	c #99C769",
",@	c #B6D28A",
"'@	c #CBACAE",
")@	c #8FD657",
"!@	c #9E4274",
"~@	c #D55D8F",
"{@	c #EF4C8E",
"]@	c #89C64F",
"^@	c #93908C",
"/@	c #F35B83",
"(@	c #ED688C",
"_@	c #B51E6A",
":@	c #E58075",
"<@	c #903B5F",
"[@	c #F7608C",
"}@	c #C62F74",
"|@	c #CD5F7E",
"1@	c #E8846C",
"2@	c #67295A",
"3@	c #80CB43",
"4@	c #ED4C8C",
"5@	c #FD96BF",
"6@	c #E4709F",
"7@	c #BCB3AB",
"8@	c #ED5FA7",
"9@	c #EF7899",
"0@	c #ED428B",
"a@	c #F0A3AE",
"b@	c #DE5D9F",
"c@	c #BBE2A1",
"d@	c #A2BEE4",
"e@	c #A8D57F",
"f@	c #040304",
"g@	c #E5EAE7",
"h@	c #B7BCC2",
"i@	c #A4B5D3",
"j@	c #A8BAD8",
"k@	c #DDE5E2",
"l@	c #EBE9E8",
"m@	c #8E5321",
"n@	c #AF4C56",
"o@	c #722044",
"p@	c #C65667",
"q@	c #4F123A",
"r@	c #8ECE4A",
"s@	c #AA2972",
"t@	c #9F4B44",
"u@	c #C17EA3",
"v@	c #BD7C9E",
"w@	c #81CE48",
"x@	c #B2798D",
"y@	c #BD77A2",
"z@	c #C180A1",
"A@	c #8ACE4F",
"B@	c #85CA48",
"C@	c #90D753",
"D@	c #91D954",
"E@	c #8FD653",
"F@	c #90D853",
"G@	c #8CDA57",
"H@	c #81CE44",
"I@	c #9ECD70",
"J@	c #A0CE78",
"K@	c #88C74A",
"L@	c #8FD152",
"M@	c #82BF4A",
"N@	c #84C44B",
"O@	c #85C84D",
"P@	c #8FD758",
"Q@	c #83C54B",
"R@	c #84C54C",
"S@	c #92DA54",
"T@	c #7FBE4D",
"U@	c #91D958",
"V@	c #8BD857",
"W@	c #8BD751",
"X@	c #6FB738",
"Y@	c #89D549",
"Z@	c #81BC48",
"`@	c #82C34B",
" #	c #7CBB47",
".#	c #81C14E",
"+#	c #8FD753",
"@#	c #9ED567",
"##	c #87CC46",
"$#	c #8ECF58",
"%#	c #85C74C",
"&#	c #81BF49",
"*#	c #87CB4E",
"=#	c #8DC35A",
"-#	c #DEF6CE",
";#	c #E6F5DD",
">#	c #B3DD8F",
",#	c #C0E599",
"'#	c #C1E3A4",
")#	c #A5D578",
"!#	c #C4E2AD",
"~#	c #F2F1B4",
"{#	c #94D351",
"]#	c #A4CE6B",
"^#	c #D5E7C2",
"/#	c #EEF6DF",
"(#	c #B6D18A",
"_#	c #9DD168",
":#	c #BEDE9F",
"<#	c #F5E796",
"  . .   +             @ #                       $ %   + + &   * = - ; +                     > , ",
"+   + +   . +       % ' &                         +   +     ) ! ~ { ] ^ +         / (   + _ : < ",
"  # [ &   } + +   + # |                       /       +   1 2 3 4 5 6 7 +         / /     ^ 8 9 ",
"+   0 + a b ;       +                       c     @ d e   f ~ 4 g h 9 i ;                 ; j k ",
"  . ^ l m m n ^       +       | |     c o o p o p o o d   f q r s t u v +               @ + w x ",
"# _ j y 9 z A B C             / D o E E p F F F F F p G E C H I 9 J K L                 + & % M ",
"& N O 9 P Q R S _ +             o p T T T F F F F F T T U E V W X 2 Y Z       + +     + + . / ` ",
"   ...z +.t @.#.$.+     +   E p %.p T T T T T T T T T T &.o o E *.*.=.+                         ",
"  -.;., >.9 ,.'.+       + c p p p ).T T T T T T T T T T T o p o p !./ ~.                        ",
"  + ( {.].^./.Z         o E T p p T T T T F F F F F T T T T o o p p !.(.                @ %     ",
"  + . _.:.<.=.      + E [.T T T T T T }.F F F F F F F |.T T T T T p p 1.+ + 2.; 3.; + # | 4.    ",
"+     + / / +       1.E F F T T T T 5.F F F F F F F F F T T T T T 6.F E     7.8.9.0.    /       ",
"+     . .   +   + / p p F F a.T T T F F F F F F F F F F b.T T T 6.6.F E o c.! d.9 e.f.;         ",
"          + +     + E p F F g.T T h.F F F F F F F F F F F T T T i.6.F F E j.d.k.l.m.O n.        ",
"  + +     .   ~.~.~.E p F F F T T o.F F F F F F F F F F F T T p.i.i.F F E q.>.r.s.t.u.v.        ",
"  + + +         / o E F F F F T T T F F F F F F F F F F F T T T i.6.F F E w.x.y.z.A.B.3.        ",
"3.; + + # #   + } o C.o F F F T T D.F F F F F F F F F F b.T T E.F.F F F E V G.{ d.! :./         ",
"H.I.J.. .     + + o E o F F F T T T T b.F F F F F F F 5.T T K.L.F F F F E   ` :.:._.            ",
"M.N.O.P.+         Q.p p R.F o T T T T T 5.F F F F F T T T S.L.L.F F F E o !.D Z T.% + | %       ",
"U.+.d.V.+ +       o E E W.X.Y.T T T T T T T T F T T T S.Z.L.L.L.F F `.E p o c   +   /  +.+      ",
"++@+>.#++       o p L.$+E L.L.L.L.T T T T T T %+L.L.L.L.L.L.L.L.L.E E &+*+E =+        @ @       ",
"y.-+;+- +     >+p p L.T ,+E L.L.L.L.L.L.L.L.L.L.L.L.L.L.L.L.L.L.'+E )+!+L.~+E     /   .+&       ",
"{+j.:.|   + c E p p L.L.]+,+E ^+/+(+_+_+:+L.L.L.L.L.:+<+[+[+:+}+E L.L.|+L.1+p p o /   0 .+      ",
":.2++ +     3+E 4+5+6+7+i.]+E p E 8+E E E E E E E E E E E 9+E o 0+L.&+a+E L.b+L.p D             ",
"c+$ + +     c E T L.L.L.U d+p c E e+o f+^+^+^+g+g+/+/+h+8+i+E c E L.T T T T L.E o c !.    @ .+| ",
"    + +   >+E j+k+l+L.L.m+E - v.E c n+o+p+8+8+q+f+r+r+8+q+E E s+c E L.t+u+m+v+w+p o c     + 0 .+",
"          E p 4+x+E y+z+p A+B+C+D+^ p p E+E+E+E+E+E+p+F+E G+o A+  e E L.L.E L.L.]+p c     + @ H+",
"          E I+J+L.E K+U p q.L+M+N+p p O+P+P+P+P+P+P+P+x+Q+R+o A+c 1.E S+L.T+T T p p c +   +   & ",
"        c E L.E U+L.L.L.E V+W+X+p Y+p p L.L.L.L.L.L.L.L.p Z+p `+c 1.E  @L.m+T .@+@p c       + . ",
"        c p L.6+/+@@p #@$@%@&@p E+E+*@p L.L.L.L.L.L.L.p p E+o+p =@1.c E p L.,+E L.-@p       + . ",
"        c p p ;@#@#@#@c >@,@p E+E+n+p p L.L.L.L.L.L.L.L.p n+E+'@p )@1.o E L.E E L.T p       2.  ",
".       c !@E ~@{@L.p =+]@p *@E+E+E ^@L.L.L.L.L.L.L.L.L.L.p E+E+p p 1.c E m+L.$+E F+c c     + + ",
"        c !@/@(@_@E E =+!.p E+E+i+L.L.L.L.L.L.L.L.L.L.L.L.E p n+:@p =+c c <@[@L.}@F+=+        !.",
"^   +   p p |@E E E =+=+c p 1@i+p L.L.L.L.L.L.L.L.L.L.L.L.2@E i+1@p =+c o E E E p.:+E 1.    3@(.",
"v.  + d E 4@F F F F p p c c p p p L.L.L.L.L.L.L.L.5@L.6@L.L.'+p p c o E 7@F F F L.8@8@o c # 0 (.",
"#+. + 3@E 9@L.L.0@a@L.p c c c p L.L.L.L.5@L.L.L.L.L.L.L.L.L.L.p c c c E L.L.L.L.L.b@T o c       ",
"c@. # @ p /+4@L.L.L.L.c c   c p L.L.L.L.L.L.L.L.L.L.L.L.L.d@d@p c   c E p L.L.L.T T p       +   ",
"e@  + c c E E L.L.L.E c   + c c f@f@f@f@f@f@f@f@f@f@f@f@f@f@f@  c c     E p L.L.p p           + ",
"Z + +   c   c E L.E c c c + 3+c )@a+g@h@g@i@j@f@i@k@7+K+j@f@l@c   c   c c E L.p o               ",
"+ +           p E c         c )@f@m@m@m@m@n@o@f@m@p@p@p@m@q@E =+c     c   c p p c   c           ",
"/ /                       r@(.f@f@m@m@m@T m@s@f@t@w+m@m@m@m@[.E =+c         c                   ",
"/ / /                     (.u@$+f@f@f@f@f@f@f@f@f@f@f@f@f@f@f@$+v@c c   c                       ",
"w@ +c c c       c     c   1.x@y@v@u@z@v@u@u@u@u@$+u@y@u@u@u@v@y@c c c c c (.r@D c c       c c w@",
"A@B@C@c D@E@C@c F@C@G@H@d +     +   (.I@W w.J@K@c c c c   c   c c c c c c L@M@N@O@F@E@F@P@F@c (.",
"  Q@R@=+S@C@T@U@O@V@W@X@Y@c 1.c c   1.A@Z@*.]@1.  c c c         c c     c `@R@N@`@ #E@.#+#D@@#- ",
"  c   c O@c c 1.C@1.##1.  c c       c   $#$#+ c c c                   c c +#%#&#*#c c F@c =#-#;#",
"c             + C >#,#'#@#                +       + + + + + + +         c c c c c       )#!#R ~#",
"          c . {#]#^#u./#(#_#                        . .     + + +       c c c         ^ :#u.k.<#"};
