/* XPM */
static char * score_xpm[] = {
"130 38 194 2",
"  	c None",
". 	c #8EDD59",
"+ 	c #9BD66C",
"@ 	c #D5F1BB",
"# 	c #ECF5CC",
"$ 	c #FBF6CC",
"% 	c #F6F2AB",
"& 	c #E2F2BC",
"* 	c #C6EC9E",
"= 	c #9BDA62",
"- 	c #93DC55",
"; 	c #92D554",
"> 	c #8EDC53",
", 	c #8DDC4C",
"' 	c #93DC5A",
") 	c #A5CA7D",
"! 	c #DEE9B5",
"~ 	c #FAF6BD",
"{ 	c #C0D892",
"] 	c #A5D47C",
"^ 	c #8ED452",
"/ 	c #9ECD6C",
"( 	c #8AC553",
"_ 	c #BEDB9A",
": 	c #D6EDC3",
"< 	c #D6EDBE",
"[ 	c #A1CE6F",
"} 	c #8DCC52",
"| 	c #93DD4D",
"1 	c #93D55B",
"2 	c #AADC75",
"3 	c #F4FEEB",
"4 	c #FDF6C6",
"5 	c #FDEE9B",
"6 	c #FAEB6F",
"7 	c #E2F7C7",
"8 	c #EBEFAA",
"9 	c #9BD376",
"0 	c #FDF294",
"a 	c #F9EC65",
"b 	c #F8FBCC",
"c 	c #DAF3C1",
"d 	c #9BD664",
"e 	c #85BD4D",
"f 	c #93CF5B",
"g 	c #8BD44C",
"h 	c #85D44A",
"i 	c #7CCB3F",
"j 	c #F3FED7",
"k 	c #F4F499",
"l 	c #F5EC6E",
"m 	c #EDE358",
"n 	c #F6F8BD",
"o 	c #E2F8CE",
"p 	c #87BF53",
"q 	c #BDD590",
"r 	c #9DD870",
"s 	c #EDFDDB",
"t 	c #F4ED7B",
"u 	c #F5F7BC",
"v 	c #DCF4BA",
"w 	c #92D44D",
"x 	c #97D763",
"y 	c #A2CA75",
"z 	c #D4E4A7",
"A 	c #FBFAD5",
"B 	c #C3D595",
"C 	c #9ECA73",
"D 	c #8CCD4D",
"E 	c #B6D88B",
"F 	c #D5E7BB",
"G 	c #D3EAB5",
"H 	c #94DB61",
"I 	c #7ECB42",
"J 	c #8FC55D",
"K 	c #8CBB5A",
"L 	c #B3E384",
"M 	c #EAFAD6",
"N 	c #CDF0AA",
"O 	c #AEE388",
"P 	c #FBFCDD",
"Q 	c #E5F2B7",
"R 	c #B9E494",
"S 	c #9AD95C",
"T 	c #9BD75C",
"U 	c #99DA54",
"V 	c #DEF5C9",
"W 	c #FCF5B5",
"X 	c #F8F280",
"Y 	c #F5F4A4",
"Z 	c #A5DC73",
"` 	c #ABDC7C",
" .	c #E5FED5",
"..	c #EBF6E4",
"+.	c #84D246",
"@.	c #81CE44",
"#.	c #F6EE89",
"$.	c #F1E65A",
"%.	c #F4EC84",
"&.	c #F9FEEB",
"*.	c #B2DD80",
"=.	c #EAF0AF",
"-.	c #C3E893",
";.	c #9DDC6B",
">.	c #BBDB92",
",.	c #D8E4AF",
"'.	c #F9F3AD",
").	c #F7EE97",
"!.	c #E7EB9B",
"~.	c #C8E0AA",
"{.	c #FDF9A8",
"].	c #FDEC7D",
"^.	c #ACE27B",
"/.	c #ADD085",
"(.	c #F4FEDD",
"_.	c #F5F089",
":.	c #F5FEF2",
"<.	c #EDFDE4",
"[.	c #E6FFC6",
"}.	c #A0D760",
"|.	c #AEDC83",
"1.	c #D2D9A3",
"2.	c #E5EAA2",
"3.	c #BBD69A",
"4.	c #8ECB59",
"5.	c #FAF7C5",
"6.	c #EFF3B3",
"7.	c #D1EAA7",
"8.	c #AEE081",
"9.	c #86CA4C",
"0.	c #E6F6CC",
"a.	c #E5F5D8",
"b.	c #C4E5A4",
"c.	c #F8EF88",
"d.	c #BEE99D",
"e.	c #85C24B",
"f.	c #93C462",
"g.	c #94BE6E",
"h.	c #F1EA64",
"i.	c #EAE26F",
"j.	c #86D949",
"k.	c #F2F0B0",
"l.	c #A6DA7A",
"m.	c #91E04F",
"n.	c #E9F5DC",
"o.	c #CAECA9",
"p.	c #90CF52",
"q.	c #8DD446",
"r.	c #A3DC6A",
"s.	c #B5E48B",
"t.	c #EFFFEB",
"u.	c #D3F0B5",
"v.	c #F5FEE6",
"w.	c #FAF19D",
"x.	c #81CB3E",
"y.	c #8DE04F",
"z.	c #C1E9A6",
"A.	c #D2EFAD",
"B.	c #CAE9B3",
"C.	c #FAFBE1",
"D.	c #F8F2A0",
"E.	c #F9E973",
"F.	c #DFF7D0",
"G.	c #BDE994",
"H.	c #E8EEC0",
"I.	c #F3EEA2",
"J.	c #F2E586",
"K.	c #E2EDCE",
"L.	c #F8F9C7",
"M.	c #F4E454",
"N.	c #9BC26B",
"O.	c #E9F7D5",
"P.	c #BCD88E",
"Q.	c #DAE9AA",
"R.	c #9BCE5F",
"S.	c #A3C775",
"T.	c #8DB75E",
"U.	c #90C25D",
"V.	c #BEE79B",
"W.	c #A6E574",
"X.	c #F9FDF6",
"Y.	c #EFF9CC",
"Z.	c #FAF9BA",
"`.	c #A2DA66",
" +	c #F9F6D0",
".+	c #F8F48C",
"++	c #E2F4D0",
"@+	c #EFF081",
"#+	c #EEE561",
"$+	c #F3ED9A",
"%+	c #C3DAA0",
"&+	c #CADCAD",
"*+	c #91BF72",
"=+	c #A3D374",
". + @ # $ % & * = - - - - - - ; ; - - - - - - - - > , - ' = ) ! $ ~ { ] - - - - - - - - ' , ^ / + ' - - - - - - ; - - - - - - - - - - - ; ; ( _ : < [ } - - - ' ' - - ' ' | ; 1 - - ' - - - - - - - - - - - - - - > > . - 2 3 4 5 6 $ 7 = - - - - - - - - = @ 8     ",
", 9 3 $ 0 a b c + ' - - - - - - ; - - - - - - - - - - - ; ; ( _ : < [ } - - - ' ' - - ' ' | ; 1 d ' - - ' - - - - - - - - - - - - - - - - - - ( e e f ' - - - - - - - - - - - - - - - ' - - - g g - - - - - - - - h i > - 2 j k l m n o ' - - - - - - - > ' p q     ",
"- r s % t m u v d ' - - ' - - - - - - - - - - - - - - - - - - ( e e f ' - - - - - - - - - - - - ' - - - ' - - - - - - - - - - - - - - - - - ; ; 1 ; ; w - - - - - - - - - - - - = - - - - - - ; ; - - - - - - - - > , - ' = ) ! $ ~ { ] - - - - - - - - ' , ^ /     ",
"- x y z A $ B C ' - - - ' - - - - - - - - - - - - - - - - - ; ; 1 ; ; w - - - - - - - - - - - - - - - - - - - - - - - - - - - - - - - - - - - - - - ; g - - - - - - - - > ^ - - + ' - - - - - - ; - - - - - - - - - - - ; ; ( _ : < [ } - - - ' ' - - ' ' | ; 1     ",
"- ' D E F G y } - - - - - - - - - - - - - - - - - - - - - - - - - - ; g - - - - - - - - > ^ - - - - ' ' - - - - - - - - - - - - - - - - - - - - - - ' ' ' ' H = d = ' . g I - - d ' - - ' - - - - - - - - - - - - - - - - - - ( e e f ' - - - - - - - - - - - -     ",
"- ' | J K e f - - - ' ' - - - - - - - - - - - - - - - - - - - - - - ' ' ' ' H = d = ' . g I - - - - ' ' - - - - - - - - - - - - - - - - - - - - - - - - - - L o M N - - ; - - - ' - - - ' - - - - - - - - - - - - - - - - - ; ; 1 ; ; w - - - - - - - - - - - -     ",
"' - - ' ; ; ' - - - ' ' - - - - - - - - - - - - - - - - - - - - - - - - - - L o M N - - ; - - - ' ; ' - - - ' - - - - - - - - - - - - - - - - - - - - - - O G P $ Q R = - - - - - - - - - - - - - - - - - - - - - - - - - - - - - - ; g - - - - - - - - > ^ - -     ",
"' - - | | - ' - ' ; ' - - - ' - - - - - - - - - - - - - - - - - - - - - - O G P $ Q R = - - - - - ' H S T U x ' - ' - - - - - - - - - - - - - - - - - - ' V P W X Y 3 Z - - - - - - ' ' - - - - - - - - - - - - - - - - - - - - - - ' ' ' ' H = d = ' . g I - -     ",
"- - - - - ' ' - - ' H S T U x ' - ' - - - - - - - - - - - - - - - - - - ' V P W X Y 3 Z - - - - w w `  ...N U - . ' | ; g ; - - - - - - - - - +.@.- - - ' V A #.$.%.&.Z - - - - - - ' ' - - - - - - - - - - - - - - - - - - - - - - - - - - L o M N - - ; - - -     ",
"- ' ' - - | - w w w `  ...N U - . ' | ; g ; - - - - - - - - - +.@.- - - ' V A #.$.%.&.Z - - - - ; *.G P $ =.-.;.. ' - ; ^ ; - - - - - - - - - g g - - - ' >.,.'.).!.~.d - - - - ' ; ' - - - ' - - - - - - - - - - - - - - - - - - - - - - O G P $ Q R = - - - -     ",
"- ' ' ' - - - - ; *.G P $ =.-.;.. ' - ; ^ ; - - - - - - - - - g g - - - ' >.,.'.).!.~.d - - - - S @ P {.].0 3 ^.' ' - - - - - - - - - - - ; ; - - - - - - ( /.(.P G K ; - - - - - ' H S T U x ' - ' - - - - - - - - - - - - - - - - - - ' V P W X Y 3 Z - - - -     ",
"d = ' ' . . - ' S @ P {.].0 3 ^.' ' - - - - - - - - - - - ; ; - - - - - - ( /.(.P G K ; - - - - ' : A _.$.%.:.^.' - - - - - - - - - - - - - @.g - - - - - - 1 K K J - - - - - - w w `  ...N U - . ' | ; g ; - - - - - - - - - +.@.- - - ' V A #.$.%.&.Z - - - -     ",
"<.[.}.| | - - ' ' : A _.$.%.:.^.' - - - - - - - - - - - - - @.g - - - - - - 1 K K J - - - - - - - |.1.W % 2.3.= - - - - - - - - - - - - - - g > - - - - - ; ; } 4.^ ' g ^ - - - ; *.G P $ =.-.;.. ' - ; ^ ; - - - - - - - - - g g - - - ' >.,.'.).!.~.d - - - -     ",
"5.6.7.8.' - - - - |.1.W % 2.3.= - - - - - - - - - - - - - - g > - - - - - ; ; } 4.^ ' g ^ - - - - 9.C 0.a.b.p ; ' - - - - - - - - - ' - - - . - - - - - - - - - ' - ; I h - - - S @ P {.].0 3 ^.' ' - - - - - - - - - - - ; ; - - - - - - ( /.(.P G K ; - - - -     ",
"c.t P d.' ' - - - 9.C 0.a.b.p ; ' - - - - - - - - - ' - - - . - - - - - - - - - ' - ; I h - - - > +.e.f.g.f.- - ' ' - - - - - - g w - - - ' ' - - - - - - - - - - - - > > - - - ' : A _.$.%.:.^.' - - - - - - - - - - - - - @.g - - - - - - 1 K K J - - - - - -     ",
"h.i.A d.' - - - > +.e.f.g.f.- - ' ' - - - - - - g w - - - ' ' - - - - - - - - - - - - > > - - - . j.h D D w | - ' ' - - - - - - w w - . ' - | - - - - - - - - - - ; - h , - - - - |.1.W % 2.3.= - - - - - - - - - - - - - - g > - - - - - ; ; } 4.^ ' g ^ - - -     ",
"'.k.B l.' - - - . j.h D D w | - ' ' - - - - - - w w - . ' - | - - - - - - - - - - ; - h , - - - - - - - - - - ' ' - - - - - - - ' ' . . ' ' m.- - - - - - - - - - ; - @.h - - - - 9.C 0.a.b.p ; ' - - - - - - - - - ' - - - . - - - - - - - - - ' - ; I h - - -     ",
"n.V K g - ' - - - - - - - - - ' ' - - - - - - - ' ' . . ' ' m.- - - - - - - - - - ; - @.h - - - ' - - ' ' ' ' ' - - - - - - - - ' ' | | U ' - - - - - - - - - - - ; - - - - - - > +.e.f.g.f.- - ' ' - - - - - - g w - - - ' ' - - - - - - - - - - - - > > - - -     ",
"K p ' ' - - | - ' - - ' ' ' ' ' - - - - - - - - ' ' | | U ' - - - - - - - - - - - ; - - - - - - - - | - - - ' - - - ' - - - - - - - ;.N : o.= - - - - - - - - - - - ; - - > h g . j.h D D w | - ' ' - - - - - - w w - . ' - | - - - - - - - - - - ; - h , - - -     ",
"p.q.' ' - - - ' - - | - - - ' - - - ' - - - - - - - ;.N : o.= - - - - - - - - - - - ; - - > h g - - - - - ' l.Z r.- . - > - - - - ;.*.M &.# ` ;.- . > w - - - - - - - - - ' @.h - - - - - - - ' ' - - - - - - - ' ' . . ' ' m.- - - - - - - - - - ; - @.h - - -     ",
"- - ' ' - - - - - - - - - ' l.Z r.- . - > - - - - ;.*.M &.# ` ;.- . > w - - - - - - - - - ' @.h - - - ' S s.t.j u.T ' h I > - - - o.v.5.w.#.j s.- . +.x.- - - - - - - - - ' > y.' - - ' ' ' ' ' - - - - - - - - ' ' | | U ' - - - - - - - - - - - ; - - - - - -     ",
"- - - - - - - - - - - ' S s.t.j u.T ' h I > - - - o.v.5.w.#.j s.- . +.x.- - - - - - - - - ' > y.- - ' ' z.V A '.=.A.;.> g - - - ' B.C.D.E.l (.s.- ' , g ' - - - - - - ' - ' - , - - | - - - ' - - - ' - - - - - - - ;.N : o.= - - - - - - - - - - - ; - - > h g     ",
"- - - - - - w ; - - ' ' z.V A '.=.A.;.> g - - - ' B.C.D.E.l (.s.- ' , g ' - - - - - - ' - ' - , ' - ' x F.P w.].w.3 Z - - - - - ' G.H.I.%.J.K.|.- ' | - ' - - - - - - - - - ' | - - - - - ' l.Z r.- . - > - - - - ;.*.M &.# ` ;.- . > w - - - - - - - - - ' @.h     ",
"- - - - - - w ; ' - ' x F.P w.].w.3 Z - - - - - ' G.H.I.%.J.K.|.- ' | - ' - - - - - - - - - ' | ' - - ' o L.6 M.t 3 Z - - - - - - 9.N.O.&.# K f | ' - - - - - - - - - - - - ' | - - - ' S s.t.j u.T ' h I > - - - o.v.5.w.#.j s.- . +.x.- - - - - - - - - ' > y.    ",
"- - - - - - - - ' - - ' o L.6 M.t 3 Z - - - - - - 9.N.O.&.# K f | ' - - - - - - - - - - - - ' | - - - - / P.A $ Q.) ' - - - - - ; ; R.C ) S.1 - | ' ' - - - - - - - - - - - H - - - ' ' z.V A '.=.A.;.> g - - - ' B.C.D.E.l (.s.- ' , g ' - - - - - - ' - ' - ,     ",
"- - - - - - - - - - - - / P.A $ Q.) ' - - - - - ; ; R.C ) S.1 - | ' ' - - - - - - - - - - - H - - - - - } / G F >.( ; - - - - - - - - 9.9.D ; - - ' ' - - - - - - - - - - - ' ' ' - ' x F.P w.].w.3 Z - - - - - ' G.H.I.%.J.K.|.- ' | - ' - - - - - - - - - ' |     ",
"| - - - - - - - - - - - } / G F >.( ; - - - - - - - - 9.9.D ; - - ' ' - - - - - - - - - - - ' ' - - - - ; 1 K T.U.' - - - - - - - - - - - - ; - - - - - - - - - - - - - - - - ; ' - - ' o L.6 M.t 3 Z - - - - - - 9.N.O.&.# K f | ' - - - - - - - - - - - - ' |     ",
"- - - - - - - - - - - - ; 1 K T.U.' - - - - - - - - - - - - ; - - - - - - - - - - - - - - - - ; - - - - - ; ^ 1 ; - - - - - - - - - - - - - - - - - - - - - - - - - - ' - - +.g - - - - / P.A $ Q.) ' - - - - - ; ; R.C ) S.1 - | ' ' - - - - - - - - - - - H -     ",
"T - ' - - - - - - - - - - ; ^ 1 ; - - - - - - - - - - - - - - - - - - - - - - - - - - ' - - +.g - - - - - - - - - - - ; - - - - - - - - - - - - - - - - - - - - - - - - - . @.g - - - - } / G F >.( ; - - - - - - - - 9.9.D ; - - ' ' - - - - - - - - - - - ' '     ",
"Z - ' > g ' - - - - - - - - - - - - - ; - - - - - - - - - - - - - - - - - - - - - - - - - . @.g - - - - - - - - - - - ; g ; - - - - - - - - - - - - - - - - - - - - - - - - - - - - - - ; 1 K T.U.' - - - - - - - - - - - - ; - - - - - - - - - - - - - - - - ;     ",
"d.| ' +.x.' - - - - - - - - - - - - - ; g ; - - - - - - - - - - - - - - - - - - - - - - - - - - - - - - - - - - - - - - - - - - - - - - - - - - - - - - - - - g ; - - - - - ' - - - - - - ; ^ 1 ; - - - - - - - - - - - - - - - - - - - - - - - - - - ' - - +.g     ",
"z.| . > w ' - - - - - - - - - - - - - - - - - - - - - - - - - - - - - - - - - g ; - - - - - ' - - - - - - ' - - ' - - 2 V.G.W.- ; - - - - - - - - - - - - - ; ^ ; - - - - - - ' - - - - - - - - - - - ; - - - - - - - - - - - - - - - - - - - - - - - - - . @.g     ",
"|.- ' - - ' - - - - - - - ' - - ' - - 2 V.G.W.- ; - - - - - - - - - - - - - ; ^ ; - - - - - - ' - - - - - ' | - ' - = b.X.&.o.+ - - - - - - - - - - - - - - - - - - - - - - - - - - - - - - - - - - - ; g ; - - - - - - - - - - - - - - - - - - - - - - - - - -     ",
"} ' ' - - - - - - - - - - ' | - ' - = b.X.&.o.+ - - - - - - - - - - - - - - - - - - - - - - - - - - - - - - - ' - S c Y.Z.w.6.F.' - - - - - - - - - - - - - - - - - - - - - - - - - - - - - - - - - - - - - - - - - - - - - - - - - - - - - - g ; - - - - - ' -     ",
"' ' - - - - - - - - - - - - - ' - S c Y.Z.w.6.F.' - - - - - - - - - - - - - - - - - - - - - - - - - - - - w g . | `... +.+a 5 :.' - - - - - ; ; - - - - - - - - - - - - - - - - - - - - - ' - - ' - - 2 V.G.W.- ; - - - - - - - - - - - - - ; ^ ; - - - - - - '     ",
"; ; - - - - - - - - - - - w g . | `... +.+a 5 :.' - - - - - ; ; - - - - - - - - - - - - - - - - - - - - - g i > - = ++u @+#+$+M - - - - - - g ; - - - - - - - - - - - - - - - - - - - - - ' | - ' - = b.X.&.o.+ - - - - - - - - - - - - - - - - - - - - - - - -     ",
"; ; ; - - - - - - - - - - g i > - = ++u @+#+$+M - - - - - - g ; - - - - - - - - - - - - - - - - - - - - - ' | ; ' - f.%+C.P &+*+' - - - - - ; ; - - - - - g w ; - - - - - - - h - - - - - - - ' - S c Y.Z.w.6.F.' - - - - - - - - - - - - - - - - - - - - - - -     ",
"h I - - - - - - - - - - - ' | ; ' - f.%+C.P &+*+' - - - - - ; ; - - - - - g w ; - - - - - - - h - - . +.> ' - - ' - g =+_ >.] D - - - - - - - - - - - - - ; ; - - - - - ' - - g - - - - - w g . | `... +.+a 5 :.' - - - - - ; ; - - - - - - - - - - - - - - - -     "};
