/* XPM */
static char *bigger[] = {
/* columns rows colors chars-per-pixel */
"144 42 242 2 ",
"   c #1D1E1E",
".  c #211F1D",
"X  c #1D211E",
"o  c #1F281E",
"O  c #1E3A19",
"+  c #26211D",
"@  c #29231E",
"#  c #222A1E",
"$  c #2B2C1E",
"%  c #3D2D1C",
"&  c #32281D",
"*  c #293B1A",
"=  c #333D1B",
"-  c #1D1F21",
";  c #2C2E21",
":  c #212A21",
">  c #2D3321",
",  c #1D2020",
"<  c #422E1C",
"1  c #49321C",
"2  c #55371C",
"3  c #663F1C",
"4  c #0E5E06",
"5  c #125C03",
"6  c #17580A",
"7  c #194817",
"8  c #1B5515",
"9  c #22540B",
"0  c #294A18",
"q  c #344E16",
"w  c #255915",
"e  c #38580F",
"r  c #0A6A07",
"t  c #076D08",
"y  c #0E6706",
"u  c #166A09",
"i  c #0D700B",
"p  c #047A0A",
"a  c #0A7D0E",
"s  c #097707",
"d  c #127B0B",
"f  c #1C7809",
"g  c #156F10",
"h  c #0B7E10",
"j  c #197912",
"k  c #276B07",
"l  c #346C07",
"z  c #3A6B05",
"x  c #376907",
"c  c #2E720F",
"v  c #2A7907",
"b  c #397607",
"n  c #266914",
"m  c #326E14",
"M  c #2E7210",
"N  c #2B7B12",
"B  c #217913",
"V  c #307111",
"C  c #317A13",
"Z  c #475C0C",
"A  c #555E0C",
"S  c #4B4617",
"D  c #5C4A16",
"F  c #5D4B18",
"G  c #534818",
"H  c #595716",
"J  c #465518",
"K  c #625F0B",
"L  c #614A1A",
"P  c #6D431B",
"I  c #74451B",
"U  c #79471B",
"Y  c #7C491B",
"T  c #754A1C",
"R  c #665B13",
"E  c #4C660D",
"W  c #62600C",
"Q  c #6A6F0B",
"!  c #656414",
"~  c #7D6413",
"^  c #786C11",
"/  c #824D1C",
"(  c #9A5619",
")  c #8C501B",
"_  c #A95D18",
"`  c #876913",
"'  c #936912",
"]  c #9B6D16",
"[  c #85731C",
"{  c #AD6218",
"}  c #B06016",
"|  c #B66319",
" . c #BB6519",
".. c #B6681A",
"X. c #8C5522",
"o. c #8B5521",
"O. c #834F20",
"+. c #C06719",
"@. c #03850F",
"#. c #0B840E",
"$. c #048A0B",
"%. c #0A8D0A",
"&. c #0C8407",
"*. c #1B8B0B",
"=. c #16870A",
"-. c #0B9B0D",
";. c #08990D",
":. c #1C940C",
">. c #1D9A0C",
",. c #13990B",
"<. c #028410",
"1. c #0D8210",
"2. c #0A8D11",
"3. c #068E10",
"4. c #158312",
"5. c #1C8C14",
"6. c #1A8715",
"7. c #0B9812",
"8. c #119414",
"9. c #1B9515",
"0. c #149D15",
"q. c #1B9B15",
"w. c #1B9E18",
"e. c #2E8406",
"r. c #238C0B",
"t. c #298E0A",
"y. c #2A8709",
"u. c #328D0B",
"i. c #328808",
"p. c #2A950C",
"a. c #25990D",
"s. c #27960C",
"d. c #349609",
"f. c #248A14",
"g. c #239616",
"h. c #388A16",
"j. c #04A30E",
"k. c #0AA20E",
"l. c #05AA0E",
"z. c #0BAB0D",
"x. c #0AA307",
"c. c #1DA10F",
"v. c #1BAD0C",
"b. c #14A70D",
"n. c #0CB30D",
"m. c #05BE0C",
"M. c #0BBD0D",
"N. c #06B30E",
"B. c #17B60D",
"V. c #05A613",
"C. c #0CA612",
"Z. c #02AC15",
"A. c #0DAC12",
"S. c #12A413",
"D. c #1BA211",
"F. c #13AB16",
"G. c #1BAC15",
"H. c #1AAA18",
"J. c #05B312",
"K. c #0CB214",
"L. c #0EB816",
"P. c #12B215",
"I. c #1AB413",
"U. c #12B916",
"Y. c #16BA18",
"T. c #1BBA19",
"R. c #1AB717",
"E. c #21A607",
"W. c #2FA907",
"Q. c #23A30D",
"!. c #2DA20B",
"~. c #25AC0C",
"^. c #2DAC0B",
"/. c #32A209",
"(. c #33AB0A",
"). c #24B40D",
"_. c #2CB30C",
"`. c #2BBF0E",
"'. c #23BD0D",
"]. c #36B50D",
"[. c #39B40D",
"{. c #31BA0B",
"}. c #22A012",
"|. c #25AE10",
" X c #23A819",
".X c #2CBA18",
"XX c #22B816",
"oX c #33AB19",
"OX c #58920F",
"+X c #559618",
"@X c #4A9210",
"#X c #61920F",
"$X c #639616",
"%X c #619318",
"&X c #608D0E",
"*X c #03C40F",
"=X c #0BC40D",
"-X c #05CC0C",
";X c #0DCC0B",
":X c #15C50C",
">X c #1AC30D",
",X c #17CC0B",
"<X c #0CD10E",
"1X c #03D00E",
"2X c #03C411",
"3X c #0DC415",
"4X c #03CA14",
"5X c #0BCB13",
"6X c #0FC618",
"7X c #11C616",
"8X c #13CA17",
"9X c #1BCD12",
"0X c #14C519",
"qX c #1BC419",
"wX c #14CD19",
"eX c #1BCB1B",
"rX c #1EC510",
"tX c #03D211",
"yX c #0CD413",
"uX c #0BD319",
"iX c #0CD819",
"pX c #12D211",
"aX c #1CD211",
"sX c #15D51A",
"dX c #18D319",
"fX c #11D919",
"gX c #1DD20E",
"hX c #25C60C",
"jX c #2BC30D",
"kX c #25CA0C",
"lX c #2DCB0D",
"zX c #32CC0B",
"xX c #33C40E",
"cX c #2DD10E",
"vX c #24D10E",
"bX c #25C210",
"nX c #23CC11",
"mX c #28CF10",
"MX c #25C416",
"NX c #24D311",
"BX c #29D310",
"VX c #31D10E",
/* pixels */
"X.e 9 5 5 5 5 5 4 5 5 5 4 5 5 9 e D U U I I 2 @     + < I I I P P I I I I I I I I I I I I I I I I I I I I / U Y o.o.o.o.I U U U U U U U U U U Y I I 2 @     . < P I I P I I I I I I I U U T U U U I Y U U U I U I o.X.O.O.X.X.X.X./ Y Y Y Y Y Y Y Y Y Y Y I F e w 4 4 4 4 4 4 4 4 4 4 4 6 n e U ",
". 6 4 y y r t r t t t t t t y y 6 7 $ + + + . .       + + . . + + + . + . . + + + + + . + + + + + . + + . @ + + + @ + + + + + + + + + + + + + + + + + X       . + + + + + . + + . @ @ + + + : + + + . . + + @ + @ @ @ @ . ; @ @ ; . @ . + + + @ @ + @ @ @ $ 0 w g g i i i i i i i i i g g u w . ",
". 5 y s s p p p p p p p p p s y 5 7 # + X X X o     . X , ,     X X X X . X X X X X X   + , , - - - - X         o X , ,   , , , X o X X X X X , X X X + - -   X , X X +   X X X - -     -   - - -       - . - -         .     .     . -     - -         - : 0 n j j h h h h d a a a a j j g 8 . ",
". 5 r s p p s p p p s p p p p s 5 0 * $ $ $ $ $ $ $ $ $ $ ; ; ; ; ; $ $ $ $ $ # # # # $ ; ; ; > ; ; ; $ $ $ $ $ $ $ ; ; ; ; $ # # # $ $ $ $ $ $ $ $ $ $ ; ; ; ; $ $ $ $ $ $ $ $ $ ; # + o , : : ; ; @ & @ @ @ ; @ $ $ $ @ $ @ $ $ @ $ @ o o + : $ $ @ $ ; > q n j 4.h 1.h h 4.4.h #.4.h j g u : ",
"I k f f f v f f f f f s s s s f l Z D D D D D D D D D D D L F F F D D D D G S * O * * S F F F F D D D D D L S S G D D D F F G * O O = S G D D D D D D F D F F D D D D D D D D G G G F * O O * G L L L L L L L L F L L F L L L L L L F G = # O * S F L L L F J m j 6.6.4.4.4.4.4.6.j 4.4.6.j w I ",
"} E v e.i.e.e.e.e.e.e.&.&.&.&.v l Z K A W K W W W W W W W W W W W W W W W W A 9 6 6 8 A W K W W W W W W A K Z Z A W W W W W A 9 6 6 6 Z K K W W W W W W W K K K W W W W W W W A Z E H w 8 8 w H ! ! ! ! ! ! ! ! ! ! ! ! ! ! ! ! ! ! ! ! e 8 8 8 e ! ! ! R ! E C f.5.5.5.5.5.5.5.5.5.5.5.5.j m _ ",
" .E b i.i.d.d.i.d.t.d.%.$.$.=.r.v x z x l l l l l l l l l z z z l l l l l l k y r r y k l x x x z z z l z z u u k l l l z l l y r r r n l l l l l l l l z l z l l l l l l l l k u u c g g g g n M V M c c c V V n M M M M M m N V V V c j g g g g m V M m m n f.f.9.9.9.9.9.9.9.q.9.9.q.g.f.m | ",
" .z e.i.t.t.t.t.t.t.t.%.%.%.%.r.v k v d d s d d #.s d d d d d d d d d d &.s a p p p p h a d d d d d d d =.f s s s d d d f d s p p p p p a d s d d s d d d f d d d 1.s d d #.s a p a a h p h h h h 1.a h a h h #.a a h h h h h h a h h h h a a a h h <.h h j j j 9.9.q.9.9.w.9.9.9.q.9.9.g.f.m | ",
" .z e.s.a.a.>.>.>.a.>.;.;.;.;.:.v k v j 1.#.#.@.#.1.#.#.a @.#.#.#.#.#.#.#.a @.@.@.@.<.<.<.#.#.1.#.#.#.#.f r.s p #.#.#.#.#.#.#.@.@.@.@.@.a #.#.#.1.<.#.#.#.#.#.#.#.#.#.#.#.@.1.@.<.<.1.<.<.<.<.<.<.<.<.<.<.<.<.<.<.<.<.<.<.<.<.<.<.<.<.<.<.<.<.<.<.<.<.<.<.j j 6.9.0.0.0.0.0.0.0.0.0.0.0.q.6.m | ",
" .E t.c.b.S.b.S.S.b.k.Z.j.V.j.,.e.v y.=.#.#.@.@.#.#.1.#.#.#.@.#.1.&.#.#.#.#.#.@.@.@.@.1.#.#.#.1.%.1.1.1.=.=.&.@.&.#.#.#.1.1.#.@.@.@.@.@.#.#.#.#.#.#.#.#.#.#.@.#.=.#.#.#.#.#.#.#.<.<.<.1.<.<.<.<.<.<.3.<.<.<.<.3.<.<.2.<.<.<.<.3.<.<.<.<.<.<.<.<.<.<.<.<.2.6.j 5.w.C.Z.Z.V.V.V.V.Z.V.V.C.S.9.m | ",
"..E t.E.Q.c.b.c.c.c.b.j.j.j.x.>.e.v y.r.r.*.*.*.*.r.*.*.*.*.*.*.*.*.r.*.r.r.*.$.@.$.$.*.r.r.r.r.*.r.t.r.r.r.%.&.=.r.r.r.r.r.*.$.@.$.$.1.r.*.r.r.r.r.r.*.*.*.=.*.*.*.r.*.=.*.*.%.2.2.2.2.8.2.3.2.2.3.2.2.3.3.2.2.2.2.2.2.3.2.2.2.3.3.3.3.7.2.3.3.3.3.3.3.2.8.6.f.w.C.V.V.V.V.V.V.V.C.C.C.S.8.N | ",
"..b r.a.c.c.D.b.b.S.b.V.j.V.j.>.t.v y.r.p.r.r.:.s.t.t.t.s.r.r.r.t.t.t.p.t.r.*.%.$.$.%.r.r.y.r.p.y.r.t.t.t.t.=.%.*.r.y.r.r.r.t.%.$.$.%.*.t.r.r.s.p.t.t.t.r.r.:.r.t.t.y.p.r.*.r.:.%.2.8.8.8.8.8.8.8.8.8.8.8.8.8.8.8.8.8.8.8.8.8.8.8.8.7.8.8.8.8.8.8.7.8.8.8.5.6.5.0.C.V.V.Z.V.V.V.V.Z.C.C.C.9.C | ",
" .E s.Q.c.b.b.C.C.V.V.l.V.V.l.a.e.v d.p.a.a.a.a.a.s.a.a.a.a.a.a.a.a.a.a.a.a.>.;.;.;.;.9.a.p.p.p.p.a.a.a.p.p.,.-.>.a.p.a.a.a.a.8.;.;.;.9.a.a.a.a.a.a.a.a.a.a.a.a.a.a.a.a.a.a.a.:.-.8.0.q.0.0.0.0.0.0.0.0.0.0.0.0.0.0.0.0.0.0.0.0.S.0.0.0.0.0.0.0.0.0.0.0.q.9.f.5.0.Z.Z.Z.V.Z.V.Z.V.Z.V.C.S.8.N | ",
"+.i.t.!.Q.Q.Q.Q.c.Q.c.j.j.j.x.>.e.e.p.!.c.>.c.a.Q.D.c.c.>.D.>.D.D.a.a.D.c.c.q.;.;.V.-.q.}.a.}.}.}.g.}.a.}.!.-.j.S.a.}.a.}.}.D.-.j.;.7.b.}.D.a.c.a.c.c.a.Q.q.c.c.c.c.Q.q.c.q.c.0.C.C.S.S.F.0.0.F.0.F.0.0.F.F.0.0.F.F.0.w.F.0.0.0.C.S.S.S.S.0.S.0.S.S.0.S.S.w.6.9.w.C.C.C.V.C.V.F.C.C.S.F.S.9.N | ",
"} b t.a.!./.!.!.!.d.!.x.;.j.x.>.y.y.a.b.S.S.S.S.S.S.S.S.C.S.S.S.S.b.S.S.S.b.C.V.V.V.V.C.S.S.S.S.S.C.S.S.S.D.k.V.C.S.S.S.H.S.S.V.V.V.V.C.S.S.b.S.A.S.S.S.S.S.S.b.S.S.S.S.b.C.S.C.V.V.C.V.V.C.V.Z.Z.V.V.V.V.V.V.V.V.V.V.V.Z.Z.V.V.V.V.V.V.V.V.Z.7.Z.V.V.V.F.S.6.9.F.F.F.F.H.F.F.F.F.H.H.H.S.9.N _ ",
"P v *.b.D.b.b.c.b.b.b.j.j.j.j.-.*.=.0.A.Z.Z.Z.Z.V.V.A.V.Z.A.V.Z.Z.Z.Z.Z.V.V.V.Z.V.V.Z.Z.Z.Z.Z.Z.A.Z.Z.Z.V.A.V.A.V.Z.Z.Z.V.V.Z.Z.V.Z.V.Z.Z.V.V.C.Z.Z.Z.C.Z.Z.V.Z.Z.V.A.V.V.Z.V.Z.Z.Z.F.Z.Z.Z.Z.Z.Z.Z.Z.Z.Z.Z.V.V.Z.Z.Z.Z.Z.V.V.Z.Z.Z.Z.Z.Z.Z.Z.Z.Z.Z.V.Z.Z.H.6.9.w.F.C.F.C.F.F.V.F.V.F.F.F.9.B 3 ",
"@ r %.C.j.Z.Z.Z.Z.Z.Z.Z.l.Z.Z.;.%.&.j.Z.Z.Z.Z.Z.Z.Z.Z.Z.Z.Z.Z.Z.Z.Z.Z.Z.Z.Z.Z.Z.Z.Z.Z.Z.Z.Z.Z.Z.Z.Z.Z.Z.Z.j.Z.Z.Z.Z.Z.Z.Z.Z.Z.Z.V.Z.Z.Z.Z.Z.Z.Z.Z.Z.Z.Z.Z.Z.Z.Z.Z.Z.Z.Z.Z.Z.Z.Z.Z.Z.A.Z.Z.Z.Z.Z.Z.Z.Z.Z.Z.Z.Z.Z.Z.Z.Z.Z.Z.Z.Z.Z.Z.Z.Z.Z.Z.Z.Z.Z.Z.Z.Z.Z.Z.F.9.9.H.Z.Z.F.Z.Z.Z.Z.Z.Z.F.F.F.9.g + ",
". r %.j.l.Z.Z.V.Z.V.Z.Z.Z.Z.Z.j.%.$.;.Z.Z.Z.Z.Z.Z.Z.Z.Z.Z.Z.Z.Z.Z.Z.Z.Z.Z.Z.Z.Z.Z.Z.Z.Z.Z.Z.Z.Z.Z.Z.Z.Z.Z.Z.l.Z.Z.Z.Z.Z.Z.Z.Z.Z.Z.Z.J.Z.Z.Z.Z.Z.Z.Z.Z.Z.Z.Z.Z.Z.Z.Z.Z.Z.Z.Z.Z.Z.Z.Z.K.Z.Z.Z.Z.Z.Z.Z.Z.Z.Z.Z.Z.Z.Z.Z.Z.Z.Z.Z.Z.Z.Z.Z.Z.Z.Z.Z.Z.Z.Z.Z.Z.Z.Z.F.6.9.H.V.Z.Z.Z.Z.Z.Z.Z.K.Z.K.H.q.j - ",
"& u %.b.l.z.z.j.j.l.l.z.j.l.l.k.%.&.j.Z.J.Z.Z.J.Z.Z.Z.J.J.Z.Z.Z.Z.J.J.A.Z.Z.Z.Z.Z.J.Z.Z.J.Z.Z.Z.Z.Z.Z.J.Z.A.z.Z.Z.Z.J.Z.Z.Z.J.Z.Z.J.Z.Z.Z.Z.Z.Z.J.Z.Z.J.Z.J.Z.Z.J.Z.Z.J.Z.J.Z.Z.Z.A.A.Z.Z.Z.Z.J.Z.Z.Z.Z.Z.Z.Z.Z.Z.Z.Z.Z.Z.Z.Z.Z.Z.Z.Z.Z.Z.Z.Z.Z.Z.Z.Z.Z.Z.F.9.9.F.K.K.K.K.K.F.K.F.Z.Y.H.H.9.B & ",
"/ l r.Q.v.Q.E.E.E.E.E.E.E.E.E.c.:.*.b.b.A.z.l.Z.J.Z.Z.l.A.A.A.K.z.A.z.F.K.A.F.K.z.A.A.K.K.b.z.A.A.K.z.A.A.v.l.Z.A.K.A.A.A.K.z.A.A.A.z.A.A.A.A.K.A.z.A.l.Z.Z.Z.A.A.A.A.z.A.A.A.K.Z.A.K.Z.Z.Z.K.Z.Z.L.L.Z.Z.L.Z.Z.Z.L.J.Z.J.J.Z.Z.K.Z.Z.Z.K.Z.Z.Z.L.Z.L.Z.F.F.9.9.H.P.A.F.H.P.K.F.Y.F.Y.F.H.q.M ) ",
"+.E d.W.^.^.!.W.W.W.W.W.W.W.W.!.d.e./.^.~.~.v.z.l.l.z.b.~.~.|.v.|.~.~.~.~.~.~.~.~.~.~.~.~.~.~.~.~.~.~.~.|.|.S.z.b.~.~.~.~.~.~.~.~.~.~.~.~.~.~.~.~.~.v.z.l.l.z.b.~.~.~.~.~.~.~.v.l.z.P.K.K.K.K.K.K.K.K.F.K.K.K.K.L.Z.K.K.K.K.K.K.K.Z.K.K.K.K.P.K.K.K.K.K.K.H.9.9.F.F.P.A.K.A.P.A.Z.F.F.P.H.w.h.+.",
" .b s.^.v.I.K.n.z.n.n.P.K.n.v.Q.d.e.!._.).~.v.A.l.J.A.v.|.I.P.I.I.|.|.|.|.~.|.|.|.|.|.|.|.|.|.|.|.|.|.|.|.|.K.N.P.).|.~.|.~.|.|.|.|.|.|.|.|.|.).~.~.|.K.J.J.J.B.|.|.|.|.|.|.).G.n.n.L.K.P.K.K.K.L.K.K.L.K.F.K.K.L.K.Y.K.K.K.K.K.J.L.Z.K.K.L.K.K.K.K.K.K.K.H.g.g.F.K.J.J.J.J.J.J.Z.Z.K.K.H.w.N +.",
" .b d.W.~.).v.v.~.~.v.I.v.).^./.d.t.W.W.^.^.~.z.l.l.z.~.^.^.^.^.^.^.^.^.^.^.^.^.(.^.^.^.^.^.^.(.^.^.^.^.~._.n.z.v.^.^.^.^.^.^.^.^.^.^.^.^.^.(.^.(.^.).b.l.l.n.~.^.^.^.^.^.^.^.v.z.N.Y.P.P.P.K.P.F.Y.K.K.K.Y.P.K.P.K.P.P.P.P.P.R.Y.Y.H.P.P.P.P.P.Y.F.Y.F.Y.H.g.g.H.P.K.J.J.J.K.J.L.Z.L.K.H.q.N  .",
"+.b d.^.|.~.).).~.).v.v.v.).W./.i.d._.`.`.`.'.M.m.*XM.hX`.{.{.{.{.{.jX`.`.jX`.`.jX`.jX`.`.`.`.`.`.`.`.jX`.`.>X2X>X`.jX`.`.`.`.`.`.`.`.`.`.`.`.jX`.jX'.M.m.m.n.'.`.`.`.jX`.jXjXB.L.3X0X6X6X6X6X6X6X6X6X6X6X0X0X6X0X6X0X0X6X0X0X0XqXqX0X0X6X6X6X0X6X6X6X6X0XT.g.w.H.P.L.J.J.K.J.L.Z.L.L.Y.H.H.N  .",
" .b p.^..X_.~._.^._.)._.)._.^.W.d.d.xXmXmXNXgX<X-XtXyX9XlXlXzXzXlXBXBXmXmXmXmXmXmXmXmXBXBXmXBXBXmXmXBXmXmXBXpX4XgXvXcXBXBXmXmXmXmXmXBXmXcXNXBXmXmXmXnX;X1X-X;X9XmXmXmXmXBXNXBXaX5XtXiXiXiXuXuXuXuXuXuXuXuXiXuXuXuXuXiXuXuXuXiXuXsXsXsXuXuXuXiXiXuXuXuXuXiXeX Xw.I.Y.L.L.L.L.L.L.L.L.U.Y.I.q.f. .",
"+.i.!.{.`.{.{.{.{.{.{._.{.{.{.]./.d.lXBXNXcXgX<XtXtX<XaXNXcXBXBXBXNXNXBXBXBXBXBXNXBXBXBXBXBXNXvXBXNXNXBXNXNXyXyXpXBXvXNXBXBXBXBXBXBXBXNXNXNXNXBXBXBXaXyX1X1X<XgXBXBXBXBXNXvXBXaX<XyXiXiXiXiXiXiXiXiXiXiXiXiXuXiXiXiXuXiXiXiXiXiXiXiXiXiXiXiXiXiXiXuXiXiXfXeX X XT.0XY.0XY.3XY.0X0XY.7X0XY.H.f.+.",
" .u.^.jXlXlXxXlXxXlXxXlXlXlXlX`.^./.zXBXcXBXvX<X1XtX<XaXBXBXBXBXcXcXcXcXBXBXBXBXBXBXBXBXBXBXcXcXBXcXBXcXNXNXyXyXpXcXcXcXBXcXBXBXBXcXBXBXcXcXcXcXBXcXNX<X1X1X<XgXcXcXBXBXcXcXcXgXyXtXiXiXiXiXiXyXiXiXiXiXiXiXiXiXiXiXiXiXiXiXiXiXiXiXiXiXiXiXyXyXiXiXiXiXfXeX XT.0XwXwXwXwXsXwXdXwXwXdX8XeXP.f. .",
" .h._.zXmXBXcXlXBXcXBXlXlXcXcXlX^./.xXVXcXcXvX<X1X1X<XvXVXVXcXVXcXcXcXcXcXcXVXcXcXVXVXcXcXlXcXVXcXcXcXcXBXNXyXyXgXcXcXVXcXcXcXcXcXcXlXVXcXcXcXVXcXcXvX<X1X1X;XgXcXcXcXcXcXcXcXvX<XyXiXiXiXfXiXuXiXiXiXiXiXiXiXiXiXsXiXiXiXiXiXiXiXiXiXiXiXiXfXuXiXiXiXiXsXeX XT.dXfXyXiXyXiXuXyXyXuXuXfXsXU.g. .",
"+.u._.zXBXNXcXBXBXcXBXBXcXcXcXxX(./.xXVXzXzXlX;X-X-X;XkXzXzXzXzXzXzXzXzXzXzXzXzXzXzXzXzXzXzXzXzXzXzXzXzXcXcXpX<XkXzXzXzXzXzXzXzXzXzXzXzXzXVXzXzXzXzXlX<X-X-X;XkXzXzXzXzXzXVXzXkX<XyXiXsXsXsXsXfXsXsXfXsXsXsXsXsXsXfXdXpXsXsXsXsXsXsXsXsXsXsXsXfXsXsXsXsXsXeX XT.dXiXiXiXiXiXiXiXiXiXiXfXdXY.g. .",
"| t._.zXcXNXNXNXNXNXNXBXNXvXcXlX(./.xXzXzXzXkX;X-X-X;XkXzXzXzXzXzXzXzXzXzXzXzXlXzXzXzXzXlXzXzXzXzXzXzXlXVXlX;X<X,XzXzXzXzXzXzXzXzXzXlXzXzXzXlXzXzXzXlX;X-X-X;XhXzXzXlXzXzXzXzX,X;X<XdXdXdXdXdXdXdXdX8XdXsXsXdXdXdXdXdXdXdXwXdXsXdXwXdXdXdXsXdXdXeXsXsXsXdXeX X.XeXiXiXiXiXiXiXiXiXiXiXfXsXT.r.} ",
"3 6.B.,XpXpXpXpXpXpXpXpXyXpXpX,Xv.:.B.>X:X:X=X=X=X*X=X=X:X:X:X:X:X:X:X:X:X:X:X:X:X:X:X:X:X:X:X:X:X:X:X:X:X:X-X=X=X:X:X:X:X:X:X:X:X:X:X:X>X:X:X:X:X:X:X*X*X=X=X=X:X:X:X:X>X:X:X:X-X5XeXeX8XeX8XeX8X8XeXeXwXsXeXwXdXwX8X9X8X8XsX9X9XeX8X8XwXwXeXwXwXeXeXwXeXqX X XsXiXiXiXiXiXiXiXiXiXiXfXdXT.6.3 ",
"  #.N.=X<X4XtX4XtX-X4XtX1X1X-X=Xx.,.M.*X*X*X*X*X*X*X2X*X*X*X*X*X*X*X*X*X*X*X2X*X*X*X*X*X*X*X*X*X*X*X*X*X*X2X-X*X*X*X*X*X*X-X*X*X*X*X*X*X*X*X*X*X*X*X*X*X*X*X-X*X*X*X*X*X*X*X*X*X*X=X5X5X5X7X5X8X8X8XuX6X0X6X6X0X6X6X6X8X5X8X6X6X6X5X8X8X8X6X6X6XuX6X0X0XeXqX XT.eXsXsXiXsXsXsXsXfXfXsXdXeXY.4.- ",
"  a l.M.M.M.m.*Xm.m.M.m.m.m.m.n.x.,.=X-X-X-X;X-X-X-X-X-X-X-X-X-X-X-X-X-X-X-X-X-X-X-X-X-X-X-X-X-X;X-X-X-X-X1XtXtX-X-X-X-X-X-X-X-X-X;X-X-X-X-X-X;X-X-X-X-X-X-X-X-X-X-X-X-X-X-X-X-X4XuXsXsXdXdXdXsXsXdXdXdXdXsXsXdXdXdXdXdXdXdXdXdXdXsXsXdXdXdXdXsXsXdXdXdXdXeX X XqXeXqXwXeXeXeXeX0XeXeXeXeXR.h - ",
"% d b.M.=X3X2XL.=X=X*X2X2X*X*Xn.b.x.:X;X;X;X;X;X;X;X;X;X;X;X;X;X;X;X;X;X;X;X;X;X-X-X-X;X;X;X;X;X;X;X;X;X;X;XtX-X-X;X;X;X;X;X;X-X-X-X-X;X;X;X;X;X;X;X;X,X;X;X;X,X;X;X;X;X;X;X;X;XtXuXsXsXdXdXsXsXsXdXsXdXdXdXsXdXdXdXsXsXdXsXdXsXdXsXdXdXsXsXsXdXdXdXsXsXdXdX XXXqX0XwX0X0X0X0XuXwX6XeXeXqXH.6.% ",
"( f.~.bXnXeX9X9X9X9X8X4X4X4X;X>XE.s.`.zXkXkXhXkXjXhXhXkXhXjXhXhXhXkXkXkXhXhX>X=X-X*X=X>XhXhXzXhXkXhXjXhXkXnX5X-X>XlXhXhXhXjXhX=X*X*X=X,XhXkXhXhXhXhXhXhXhXhXhXhXhXhXhXlXhXhXhXkX;X5XwXsXsXdXwXsXdXwXdXsXsXeXdXdXwXsXwXdXdXeXsXsXeXsXdXdXeXsXsXeXdXeXsXwXeXeX XH.qXsXuXuXuXuXuXuXuXuXuXwXeXY.f.X.",
" .u._.xXmXnXaX9X9XNXaX4XtXtX5XrXW.d.{.{.jX{.jX{.jX`.jX`.jX{.jX{.jX{.`.jX`.`.hXM.m.m.m.'.{.jXjX{.{.jXjXjXjXhX7XM.>XjX`.jX`.jX'.M.m.m.M.>XjX{.`.jX`.jXjXjX{.jX`.jX{.`.`.jX`.jXjX>XM.5X0X0XeX0X0X0X8X7X7X0X0X0X0XwX7X8X7X0XeXwXqX0X0X0X0XeX0X0X0XwXwXwX0X0XeXT. XXXwXiXuXuXuXuXuXuXuXuXuXuXeXT.f.| ",
"+.u.^.{.lXmXnXnXnXnXnX4X4X4X5X'./.d.(.[.].[.[.[.[.[.[.[.[.[.[.[.[.[.[.[.[.[.^.B.N.N.n.W.{.].].].[.[.{.[.{.[.B.v.).[.[.[.].[._.n.N.N.n.).].].[.].[.[.[.[.[.[.[.[.[.[.[.[.].].]._.B.R..XT.Y.Y.Y.T..X.X.X.X.X.X.X.X.X.X.X.X.X.X.X.X.X.X.X.XXXT.Y.Y.T..X.X.X.XoXoX XeXeXuXuXuXuXuXuXuXuXuXwXeXH.f...",
"+.f.^.{.`.xXjX`.jXjXbX=X*X*X=X).@X@X&X#X#XOX#X#X#X#X#X#X#X#X#X#X#X#X#X#X#X#X@Xy.1.%.r.@X#X#XOX#X#X#X&X#X#XOX@X@X@X#X#X#XOX#XOX*.&.%.*.@X#X&X#X#X#X&X#X#X&X&X&X#X#X#X#X#X#X#X#X@Xd.@X+Xf.6.6.g.+X+X$X%X%X%X$X$X$X$X$X$X$X$X$X$X$X$X%X%X+Xh.6.6.f.h.%X%X%X%X%X@XoXqXeX0X0X0X6X0X6X6X6XwX0XY.Y.f. .",
"+.y.}..XjXjXhXhXbXbXbX2X2X2X=X).@XQ ' ' ' ' ' ' ' ' ' ' ' ' ' ' ' ' ' ' ' ' ` q 7 7 q ~ ' ' ' ' ' ' ' ' ' ' ~ K ` ' ' ' ' ' ` q 7 7 0 R ' ' ' ' ' ' ' ' ' ' ' ' ' ' ' ' ' ' ' ` ^ ` ' J 7 7 q O.] ] ] ] ] ] ] ] ] ] ] ] ] ] ] ] ] ] ] ` J 7 7 0 ! ] ] ] ] [ ^ +XqX0X0X0X6X6X0X6X6X6X6X6X0XF.6...",
" .i.|.'.qXqX7X7X7X0X3X4X2X2X-X).@X^ { | } } } } } } } } } } } } } } } } } } ( < X X % ( } } } } } } } } } } } } _ } } } } } _ % X   % U } } } } } } | } } } } } } } } } } } } _ _ { _ 1 - - < ( .. .| | | | ....| | | .. . .........| _ 2 : : ; I ........{ ^ +XT.6X4X4X4X4X4X2XuX6X4X6X0XF.6...",
" .i.~.T.7X5X4X4X4X4X4X4X4X4X2X'.@X` }  .| | |  . . .|  .|  . . . . . . . . .( 1     % (  . .|  . . .}  . . . .} }  .}  . . ._ <     % / }  .|  . . . . . . . . .|  . . . . . . . . ._ 1 - - < )  . .+. . .+. .+. . .+. .+. .+.+.+. .+.| 2 + - ; I +...+.+...[ +XMX4X4X4X4X4X4X4X4X4X4X3X5XG.y. .",
" .b d.^.).I.I.I.I.I.B.n.J.J.n.~.OX` }  . .|  .| | |  .| |  ... . . .}  . . .( 1     % ) |  .| |  . . . . .} } }  . . . . . .( %     % Y |  . .|  . .}  .}  . . . .|  .|  .} }  .|  ._ 1 - - < (  . . .+.+. .+. .+. . .+. .+. . . .+.+._ 2 - - ; P +.+.+. ...[ +X XY.Y.L.Y.L.L.L.L.U.L.P.I.}.C  ."
};
