/* XPM */
static char *_08804ecbb4b40cfbcf9207a065e2e51lqVWXUzTT3uSby2H[] = {
/* columns rows colors chars-per-pixel */
"48 48 221 2 ",
"   c None",
".  c #79471C",
"X  c #7D491B",
"o  c #7E491B",
"O  c #78471B",
"+  c #79471B",
"@  c #73451C",
"#  c #76461C",
"$  c #75461C",
"%  c #35281D",
"&  c #34281E",
"*  c #34291F",
"=  c #34281F",
"-  c #54371D",
";  c #AD5F1A",
":  c #3C2D20",
">  c #A35C1F",
",  c #AD601C",
"<  c #AC5F1C",
"1  c #AC5F1D",
"2  c #AB5E1A",
"3  c #31271E",
"4  c #432F1D",
"5  c #443020",
"6  c #AA5E1A",
"7  c #583A21",
"8  c #45311F",
"9  c #B7641B",
"0  c #44301F",
"q  c #B6641B",
"w  c #45301F",
"e  c #AA5D1A",
"r  c #46311F",
"t  c #5C3A1C",
"y  c #B8651B",
"u  c #AC5E1A",
"i  c #3D2D20",
"p  c #A05A1D",
"a  c #A95D1A",
"s  c #33271E",
"d  c #33281E",
"f  c #30261E",
"g  c #31261E",
"h  c #7C491B",
"j  c #7C481B",
"k  c #804A1B",
"l  c #854D1B",
"z  c #864D1B",
"x  c #844C1B",
"c  c #7B481B",
"v  c #77461B",
"b  c #99561A",
"n  c #9A561A",
"m  c #7F4A1B",
"M  c #824C1B",
"N  c #834C1B",
"B  c #4A321D",
"V  c #49321D",
"C  c #49311D",
"Z  c #48311D",
"A  c #A25A1A",
"S  c #52351D",
"D  c #32271E",
"F  c #45301D",
"G  c #46301D",
"H  c #47301D",
"J  c #50341D",
"K  c #4F341D",
"L  c #50351D",
"P  c #98551A",
"I  c #9E581A",
"U  c #A1591A",
"Y  c #A0591A",
"T  c #2C241E",
"R  c #2B241E",
"E  c #BD6619",
"W  c #BF6719",
"Q  c #94541B",
"!  c #24211E",
"~  c #1E1E1E",
"^  c #1C1D1E",
"/  c #6A411C",
"(  c #BF671A",
")  c #BE691C",
"_  c #9A561A",
"`  c #26211E",
"'  c #1D1E1E",
"]  c #7B481B",
"[  c #C06719",
"{  c #97551A",
"}  c #7D491B",
"|  c #92531B",
" . c #22201E",
".. c #6B411C",
"X. c #BE6719",
"o. c #874D1B",
"O. c #1F1F1E",
"+. c #683F1C",
"@. c #C26819",
"#. c #884E1B",
"$. c #C16819",
"%. c #7C481B",
"&. c #7C491B",
"*. c #50351D",
"=. c #1D1D1E",
"-. c #36291D",
";. c #76461B",
":. c #77461B",
">. c #77471C",
",. c #78471C",
"<. c #33271D",
"1. c #33281D",
"2. c #33281E",
"3. c #2C251E",
"4. c #1F1E1E",
"5. c #382A1E",
"6. c #32271E",
"7. c #31271E",
"8. c #2F261E",
"9. c #201F1E",
"0. c #211F1E",
"q. c #31271F",
"w. c #36291F",
"e. c #35291F",
"r. c #AB5E1A",
"t. c #AC5E1A",
"y. c #AD5F1A",
"u. c #95541B",
"i. c #2C241E",
"p. c #A85D1B",
"a. c #AA5E1A",
"s. c #A95D1A",
"d. c #A1591A",
"f. c #3A2B1D",
"g. c #AD601F",
"h. c #AC6021",
"j. c #1B1D1E",
"k. c #533821",
"l. c #B96722",
"z. c #BE671A",
"x. c #BE6619",
"c. c #B76419",
"v. c #B7641B",
"b. c #B86826",
"n. c #BB671E",
"m. c #B76319",
"M. c #442F1D",
"N. c #BD661A",
"B. c #59391E",
"V. c #BB671F",
"C. c #BC661B",
"Z. c #51351D",
"A. c #BB6519",
"S. c #45301D",
"D. c #4C331D",
"F. c #BA6519",
"G. c #53361D",
"H. c #31261E",
"J. c #5B3A1C",
"K. c #B96419",
"L. c #46301D",
"P. c #94531B",
"I. c #2B241E",
"U. c #4D331D",
"Y. c #A85D1A",
"T. c #3B2B1D",
"R. c #AA5D1A",
"E. c #32271D",
"W. c #30261D",
"Q. c #2E251E",
"!. c #2D251E",
"~. c #31271D",
"^. c #7E4A1B",
"/. c #7E491B",
"(. c #7A481B",
"). c #56381C",
"_. c #49321D",
"`. c #78471B",
"'. c #834C1B",
"]. c #864D1B",
"[. c #874E1B",
"{. c #814B1B",
"}. c #79471B",
"|. c #25211E",
" X c #804A1B",
".X c #26221E",
"XX c #804B1B",
"oX c #99561A",
"OX c #4F341D",
"+X c #412E1D",
"@X c #47301D",
"#X c #3C2C1D",
"$X c #28221E",
"%X c #48311D",
"&X c #47311D",
"*X c #B86419",
"=X c #B66319",
"-X c #B1601A",
";X c #432F1D",
":X c #402D1D",
">X c #B0601A",
",X c #59391C",
"<X c #51351C",
"1X c #30261E",
"2X c #5A391C",
"3X c #C06819",
"4X c #BC6619",
"5X c #9C571A",
"6X c #29231E",
"7X c #A45B1A",
"8X c #A55B1A",
"9X c #A35A1A",
"0X c #9B561A",
"qX c #3F2D1D",
"wX c #392A1D",
"eX c #98551A",
"rX c #A25A1A",
"tX c #27221E",
"yX c #28231E",
"uX c #2A231E",
"iX c white",
/* pixels */
"E E E E E E E E E E E E E E E E E E E W Q ! ~ ^ / ( ) E E E E E E E E E E E E E E E E E E E E E ",
"E E E E E E E E E E E E E E E E E E E W _ ` ~ ' ] [ E E E E E E E E E E E E E E E E E E E E E E ",
"E E E E E E E E E E E E E E E E E E E W { ! ~ ' } [ E E E E E E E E E E E E E E E E E E E E E E ",
"E E E E E E E E E E E E E E E E E E E W |  .~ ^ ..X.E E E E E E E E E E E E E E E E E E E E E E ",
"E E E E E E E E E E E E E E E E E E E [ o.O.~ ^ +.E E E E E E E E E E E E E E E E E E E E E E E ",
"[ [ [ [ [ [ [ [ [ [ [ [ [ [ [ [ [ [ [ @.#.O.~ ^ / $.[ [ [ [ [ [ [ [ [ [ [ [ [ [ [ [ [ [ [ [ [ [ ",
"    .         ] ] ] %.&.&.&.X o o X O + *.~ ~ =.-.@ # $ $ ;.;.;.;.;.:.>.>.>.>.>.>.,.,.>.>.:.;.;.",
"' =.=.' ' ' ' ' ' ' ' ' ' ' ' ' ' ' =.=.^ ~ ~ ~ ' ^ ^ ^ ^ ^ =.=.=.=.=.=.=.=.=.=.=.=.=.=.=.=.=.=.",
"=.=.=.=.=.=.=.=.=.' ~ ~ ~ ' =.=.=.=.=.=.=.=.=.=.=.=.=.=.=.=.=.=.=.=.=.~ ~ ~ ~ =.^ ^ =.=.=.=.=.=.",
"<.1.2.2.2.2.2.2.1.3.4.~ O.5.<.6.2.7.2.% & 1.<.<.<.1.2.2.2.2.2.<.<.<.8.9.~ ~ 0.q.w.e.e.e.e.* * = ",
"r.t.t.t.t.t.t.t.y.u.i.' ^ - p.a.t.s.t.; y.t.r.r.r.t.t.t.t.t.t.r.r.t.d.f.^ ^ : > g.h., , , < < 1 ",
"X.X.X.X.X.X.X.X.W 2 3 =.j.k.l.z.x.X.X.x.x.X.X.X.X.X.X.X.X.X.X.X.X.W c.4 ^ ^ 5 v.X.z.z.x.x.x.x.x.",
"E E E E E E E E X.6 3 =.j.7 b.n.E E E E E E E E E E E E E E E E E E m.M.^ ^ 8 9 E E N.E E E E E ",
"E E E E E E E E X.6 3 =.j.B.V.C.E E E E E E E E E E E E E E E E E E m.M.^ ^ 8 v.E E E E N.E E E ",
"E E E E E E E E X.6 3 =.j.Z.A.E E E E E E E E E E E E E E E E E E E m.S.^ ^ 0 q E E E E E E E E ",
"E E E E E E E E X.6 3 =.j.D.F.E E E E E E E E E E E E E E E E E E E m.S.^ ^ w 9 E E E E E E N.N.",
"E E E E E E E E X.e 3 =.j.G.A.E E E E E E E E E E E E E E E E E E E m.S.^ ^ r 9 E E E E E E N.C.",
"E E E E E E E E X.s.H.=.j.t E E E E E E E E E E E E E E E E E E E E m.S.^ ^ r v.E E E E E E E E ",
"X.X.X.X.X.X.X.X.[ a.7.=.j.J.X.X.X.X.X.X.X.X.X.X.X.X.X.X.X.X.X.X.X.X.K.L.^ ^ r y W X.X.X.X.z.z.x.",
"r.r.r.r.r.r.r.r.t.P.I.' ^ U.Y.a.r.r.r.r.r.r.r.r.r.r.r.r.r.r.u u u t.d.T.^ ^ i p Y.a a R.s.Y.a.t.",
"6.6.6.6.6.6.6.6.E.i.4.~ ~  .W.E.6.6.6.6.6.6.6.6.6.6.6.6.6.6.s d d d Q.9.~ ~ 0.!.8.f g ~.7.8.7.d ",
"=.=.=.=.=.=.=.=.=.' ~ ~ ~ ~ =.=.=.=.=.=.=.=.=.=.=.=.=.=.=.=.=.=.=.=.=.~ ~ ~ ~ ' =.=.=.=.=.=.=.=.",
"~ ~ ' ' ' ' ' ' ' ' ' ' ' ' ' ' ' ' ' =.=.~ ~ ~ =.=.' ~ ~ 4.4.O.O.O.4.4.4.~ ~ ~ ' ' ' ' =.=.=.^ ",
"^.^.} } } } h h h h h h h } /./.} j (.(.).O.~ ' _.`.&.k '.l ].o.[.o.].z x '.{.k /.} c (.}.`.v # ",
"[ [ [ [ [ [ [ [ [ [ [ [ [ [ [ [ [ [ [ @.b |.~ ' X @.[ [ [ [ [ [ [ [ [ [ [ [ [ [ [ [ [ [ [ [ [ [ ",
"E E E E E E E E E E E E E E E E E E E W n |.~ ~ m [ E E E E E E E E E E E E E E E E E E E E E E ",
"E E E E E E E E E E E E E E E E E E E W b |.~ ~  X[ E E E E E E E E E E E E E E E E E E E E E E ",
"E E E E E E E E E E E E E E E E E E E W b |.~ ~ {.[ E E E E E E E E E E E E E E E E E E E E E E ",
"E E E E E E E E E E E E E E E E E E E W b |.' ~ {.[ E E E E E E E E E E E E E E E E E E E E E E ",
"E E E E E E E E E E E E E E E E E E E W n ` ' ~ M [ E E E E E E E E E E E E E E E E E E E E E E ",
"E E E E E E E E E E E E E E E E E E E W _ .X' ~ N [ E E E E E E E E E E E E E E E E E E E E E E ",
"E E E E E E E E E E E E E E E E E E E W _ .X' ~ XX[ E E E E E E E E E E E E E E E E E E E E E E ",
"W W W W W W W W W W W W W W W W W W W $.oX|.~ ' ] @.W W W W W W W W W W W W W W W W W W W W W W ",
"../ / / / / / / / / / / / / / / / / / ..OXO.~ ' +X............................................/ ",
"^ ^ ^ ^ ^ ^ ^ ^ ^ ^ ^ ^ ^ ^ ^ ^ ^ ^ ^ ^ ^ ~ ~ ~ =.^ ^ ^ ^ ^ ^ ^ ^ ^ ^ ^ ^ ^ ^ ^ ^ ^ ^ ^ ^ ^ ^ ^ ",
"^ ^ ^ ^ ^ ^ ^ ^ ^ ^ ~ ~ ~ ' ^ ^ ^ ^ ^ ^ ^ ^ ^ ^ ^ ^ ^ ^ ^ ^ ^ ^ ^ ^ ^ ~ ~ ~ ~ ^ j.^ ^ ^ ^ ^ ^ ^ ",
"L.L.L.L.L.L.L.L.@X#X9.~ ' $XS.B V C Z Z Z Z Z %X&X&X&X&X&XL.L.L.L.L.+X! ~ ~ ! 4 B B V Z Z Z %X&X",
"*X*X*X*X*X*X*X*XK.A 8.' j.S =XK.K.K.*X*X*X*X*X*X*X*X*X*X*X*Xc.*X*X*X-X;X^ ^ :X>XK.K.K.*X*X*X*X*X",
"E E E E E E E E W 2 D =.j.,XE E E E E E E E E E E E E E E E E E E x.F.U.j.^ S.c.x.E E E E E E E ",
"E E E E E E E E X.6 3 =.j.,XE E E E E E E E E E E E E E E E E E E E A.*.j.^ F m.E E E E E E E E ",
"E E E E E E E E X.R.7.=.j.,XE E E E E E E E E E E E E E E E E E E E A.<Xj.^ F m.E E E E E E E E ",
"E E E E E E E E X.s.H.=.j.,XE E E E E E E E E E E E E E E E E E E E A.<Xj.^ G *XE E E E E E E E ",
"E E E E E E E E X.s.1X=.j.,XE E E E E E E E E E E E E E E E E E E E A.Z.j.^ H *XE E E E E E E E ",
"E E E E E E E E X.s.1X=.j.,XE E E E E E E E E E E E E E E E E E E E A.J j.^ G *XE E E E E E E E ",
"E E E E E E E E X.s.1X=.j.2XE E E E E E E E E E E E E E E E E E E E A.K j.^ F m.E E E E E E E E ",
"W W W W W W W W 3Xr.7.=.j.t W W X.X.X.X.X.X.X.X.W W W W W W W W W W 4XL j.^ G K.W W W W W W W W ",
"{ P P P P b b _ 5X].6X' ^ &XI 7X8X8X8X8X8X8X8X8X9XU U U U U U U U d.0XqX^ ^ wXeXrXd.d.d.U U U Y ",
".X.X.X.X.XtXtX$XyX|.~ ~ ~ 9.I.8.1X1X1X1X1X1X1X1XQ.T T T T T T T T 3.uXO.~ ~ O.uX!.!.!.i.T T T R "
};
